<svg width="16" height="16" viewBox="0 0 16 16" fill="none" xmlns="http://www.w3.org/2000/svg">
<path opacity="0.4" d="M7.99967 14.6668C11.6816 14.6668 14.6663 11.6821 14.6663 8.00016C14.6663 4.31826 11.6816 1.3335 7.99967 1.3335C4.31778 1.3335 1.33301 4.31826 1.33301 8.00016C1.33301 11.6821 4.31778 14.6668 7.99967 14.6668Z" fill="white"/>
<path d="M10.3534 9.33995C10.2268 9.33995 10.1001 9.29328 10.0001 9.19328L8.0001 7.19328L6.0001 9.19328C5.80677 9.38661 5.48677 9.38661 5.29344 9.19328C5.1001 8.99995 5.1001 8.67995 5.29344 8.48661L7.64677 6.13328C7.8401 5.93995 8.1601 5.93995 8.35344 6.13328L10.7068 8.48661C10.9001 8.67995 10.9001 8.99995 10.7068 9.19328C10.6068 9.29328 10.4801 9.33995 10.3534 9.33995Z" fill="white"/>
</svg>
