<svg width="21" height="20" viewBox="0 0 21 20" fill="none" xmlns="http://www.w3.org/2000/svg">
<path d="M17.8481 18.308H2.94031C2.60992 18.308 2.33594 18.034 2.33594 17.7036C2.33594 17.3732 2.60992 17.0992 2.94031 17.0992H17.8481C18.1785 17.0992 18.4525 17.3732 18.4525 17.7036C18.4525 18.034 18.1785 18.308 17.8481 18.308Z" fill="#F2FBF9" fill-opacity="0.24"/>
<path opacity="0.4" d="M17.3162 11.6197L11.4901 17.4459C10.3458 18.5901 8.50049 18.5901 7.36427 17.4539L3.64941 13.7391L13.6094 3.77905L17.3243 7.49391C18.4605 8.63013 18.4605 10.4755 17.3162 11.6197Z" fill="#F2FBF9" fill-opacity="0.24"/>
<path d="M13.6102 3.77892L3.64208 13.7389L2.90877 13.0056C1.77256 11.8694 1.77256 10.0241 2.91683 8.8798L8.74296 3.05367C9.88723 1.9094 11.7326 1.9094 12.8688 3.04562L13.6102 3.77892Z" fill="#F2FBF9" fill-opacity="0.24"/>
<path d="M11.112 14.7623L10.0241 15.8501C9.79849 16.0758 9.43587 16.0758 9.21024 15.8501C8.98461 15.6245 8.98461 15.2619 9.21024 15.0363L10.2981 13.9484C10.5237 13.7228 10.8864 13.7228 11.112 13.9484C11.3376 14.174 11.3376 14.5367 11.112 14.7623Z" fill="#F2FBF9" fill-opacity="0.24"/>
<path d="M14.642 11.2329L12.4743 13.4005C12.2487 13.6262 11.8861 13.6262 11.6604 13.4005C11.4348 13.1749 11.4348 12.8123 11.6604 12.5867L13.8281 10.419C14.0537 10.1933 14.4164 10.1933 14.642 10.419C14.8596 10.6446 14.8596 11.0072 14.642 11.2329Z" fill="#F2FBF9" fill-opacity="0.24"/>
</svg>
