<svg width="34" height="34" viewBox="0 0 34 34" fill="none" xmlns="http://www.w3.org/2000/svg">
<path opacity="0.4" d="M24.6459 16.1816C24.4909 16.3083 24.336 16.4069 24.1529 16.4914L22.6179 17.266L18.2943 19.4208C17.5197 19.8151 16.2663 19.8151 15.5058 19.4208L11.1822 17.266L9.6471 16.4914C9.4781 16.3928 9.32318 16.3083 9.15418 16.1816C7.66135 15.1394 7.39377 13.2382 8.59085 11.7313L14.4636 4.40792C14.8298 3.95725 15.2664 3.61925 15.717 3.42209C16.4775 3.05592 17.3225 3.05592 18.0689 3.42209C18.5196 3.61925 18.9703 3.95725 19.3224 4.40792L25.1951 11.7313C26.4063 13.2523 26.1387 15.1535 24.6459 16.1816Z" fill="white"/>
<path d="M16.3672 3.88647C16.7174 3.79049 17.0753 3.79038 17.4189 3.88452V11.239L17.6787 11.4343L23.7246 15.9792L22.6855 16.5037L17.291 12.4509L16.8994 12.157L16.5088 12.4519L11.1143 16.5173L10.0557 15.9832L16.1074 11.4343L16.3672 11.239V3.88647Z" fill="white" stroke="#F3F7F8" stroke-width="1.3"/>
<path d="M12.3511 20.3223L14.6185 21.3363C16.0691 21.9842 17.731 21.9842 19.1956 21.3363L21.463 20.3223C23.491 19.421 25.3641 21.8715 23.9558 23.5897L19.083 29.5469C17.8859 31.0116 15.9283 31.0116 14.7171 29.5469L9.85838 23.5897C8.43596 21.8715 10.309 19.421 12.3511 20.3223Z" fill="#F3F7F8"/>
</svg>
