<svg width="7" height="11" viewBox="0 0 7 11" fill="none" xmlns="http://www.w3.org/2000/svg">
<path d="M6.96775 5.90201C6.96777 6.03925 6.93649 6.17514 6.87569 6.30194C6.8149 6.42874 6.72578 6.54397 6.61343 6.64102L2.09761 10.541C1.87082 10.7369 1.56324 10.8469 1.24251 10.8469C0.921785 10.8469 0.614201 10.7369 0.387413 10.541C0.160625 10.3452 0.0332031 10.0795 0.0332031 9.80252C0.0332031 9.52553 0.160625 9.25989 0.387413 9.06403L3.16635 5.90002L0.387413 2.73602C0.160625 2.54016 0.0332031 2.27452 0.0332031 1.99753C0.0332031 1.72054 0.160625 1.45487 0.387413 1.259C0.614201 1.06314 0.921785 0.953125 1.24251 0.953125C1.56324 0.953125 1.87082 1.06314 2.09761 1.259L6.61343 5.15903C6.72639 5.25652 6.81583 5.37238 6.87665 5.49991C6.93746 5.62744 6.96844 5.76409 6.96775 5.90201Z" fill="#C0C9EA"/>
</svg>
