<svg width="41" height="47" viewBox="0 0 41 47" fill="none" xmlns="http://www.w3.org/2000/svg">
<path opacity="0.4" d="M12.7622 6.5603H28.2397C30.0506 6.5603 32.186 8.06822 32.9889 9.92864L37.0889 19.3678C38.0797 21.6395 37.5331 24.8707 35.9102 26.5745L24.0714 38.8924C22.1068 40.9291 18.9122 40.9291 16.9477 38.8924L5.10891 26.5745C3.46891 24.8707 2.93933 21.6395 3.93016 19.3678L8.03016 9.92864C8.81599 8.06822 10.9514 6.5603 12.7622 6.5603Z" fill="#F3F7F8"/>
<path d="M27.3337 15.177H13.667C12.9666 15.177 12.3857 15.8428 12.3857 16.6458C12.3857 17.4487 12.9666 18.1145 13.667 18.1145H19.2191V28.3958C19.2191 29.1987 19.7999 29.8645 20.5003 29.8645C21.2007 29.8645 21.7816 29.1987 21.7816 28.3958V18.1145H27.3337C28.0341 18.1145 28.6149 17.4487 28.6149 16.6458C28.6149 15.8428 28.0341 15.177 27.3337 15.177Z" fill="#F3F7F8"/>
</svg>
