<svg width="71" height="71" viewBox="0 0 71 71" fill="none" xmlns="http://www.w3.org/2000/svg">
<path d="M0 35.1C0 15.7148 15.7148 0 35.1 0C54.4852 0 70.2 15.7148 70.2 35.1C70.2 54.4852 54.4852 70.2 35.1 70.2C15.7148 70.2 0 54.4852 0 35.1Z" fill="#1F267E" fill-opacity="0.4"/>
<path opacity="0.8" d="M36.3686 21.749L36.3263 21.8476L32.2422 31.3257H28.2284C27.2707 31.3257 26.3694 31.5087 25.5244 31.8749L27.989 25.9881L28.0453 25.8613L28.1298 25.636C28.1721 25.5374 28.2002 25.4529 28.2425 25.3825C30.0874 21.1152 32.1717 20.1435 36.3686 21.749Z" fill="white"/>
<path d="M36.7354 22.5869V22.5879L39.8477 23.8975L39.8506 23.8984C41.5456 24.6012 42.6368 25.296 43.2822 26.0713C43.3998 26.2284 43.4946 26.3602 43.5879 26.5117L43.5947 26.5225C43.6986 26.684 43.7614 26.8188 43.7949 26.9443L43.8086 26.9941L43.8291 27.041C43.876 27.1465 43.8998 27.2156 43.915 27.2842L43.9209 27.3086L43.9287 27.333C44.1988 28.216 44.0958 29.3369 43.5557 30.8379C43.0443 30.7316 42.5163 30.6758 41.9727 30.6758H33.2285L36.7158 22.5801C36.7223 22.5824 36.7288 22.5846 36.7354 22.5869Z" fill="white" stroke="#F3F7F8" stroke-width="1.3"/>
<path opacity="0.4" d="M48.8461 38.1984V40.9446C48.8461 41.2263 48.8321 41.5079 48.818 41.7755C48.5504 46.7047 45.8041 49.1834 40.5933 49.1834H29.6083C29.2562 49.1834 28.9323 49.1552 28.6084 49.1129C24.1299 48.8172 21.7357 46.423 21.4259 41.9445C21.3836 41.6065 21.3555 41.2826 21.3555 40.9446V38.1984C21.3555 35.3676 23.0736 32.9312 25.5241 31.8749C26.3691 31.5088 27.2705 31.3257 28.2281 31.3257H41.9735C42.6636 31.3257 43.3255 31.4243 43.9592 31.6074C46.7759 32.4664 48.8461 35.0859 48.8461 38.1984Z" fill="#F3F7F8"/>
<path opacity="0.6" d="M27.9887 25.9878L25.5241 31.8746C23.0736 32.9309 21.3555 35.3673 21.3555 38.198V34.0716C21.3555 30.072 24.2003 26.7342 27.9887 25.9878Z" fill="#F3F7F8"/>
<path opacity="0.6" d="M48.8459 34.0718V38.1982C48.8459 35.0858 46.7757 32.4663 43.959 31.6072C44.6913 29.7904 44.9166 28.3399 44.5505 27.1428C44.5223 27.016 44.4801 26.9034 44.4237 26.7766C47.0573 28.1427 48.8459 30.9171 48.8459 34.0718Z" fill="#6F8DA1"/>
</svg>
