<svg width="24" height="24" viewBox="0 0 24 24" fill="none" xmlns="http://www.w3.org/2000/svg">
<path d="M9.828 5L7.828 7H4V19H20V7H16.172L14.172 5H9.828ZM9 3H15L17 5H21C21.2652 5 21.5196 5.10536 21.7071 5.29289C21.8946 5.48043 22 5.73478 22 6V20C22 20.2652 21.8946 20.5196 21.7071 20.7071C21.5196 20.8946 21.2652 21 21 21H3C2.73478 21 2.48043 20.8946 2.29289 20.7071C2.10536 20.5196 2 20.2652 2 20V6C2 5.73478 2.10536 5.48043 2.29289 5.29289C2.48043 5.10536 2.73478 5 3 5H7L9 3ZM12 18C10.9122 18 9.84883 17.6774 8.94436 17.0731C8.03989 16.4687 7.33494 15.6098 6.91866 14.6048C6.50238 13.5998 6.39346 12.4939 6.60568 11.427C6.8179 10.3601 7.34172 9.3801 8.11091 8.61091C8.8801 7.84172 9.86011 7.3179 10.927 7.10568C11.9939 6.89346 13.0998 7.00238 14.1048 7.41866C15.1098 7.83494 15.9687 8.53989 16.5731 9.44436C17.1774 10.3488 17.5 11.4122 17.5 12.5C17.5 13.9587 16.9205 15.3576 15.8891 16.3891C14.8576 17.4205 13.4587 18 12 18ZM12 16C12.6922 16 13.3689 15.7947 13.9445 15.4101C14.5201 15.0256 14.9687 14.4789 15.2336 13.8394C15.4985 13.1999 15.5678 12.4961 15.4327 11.8172C15.2977 11.1383 14.9644 10.5146 14.4749 10.0251C13.9854 9.53564 13.3617 9.2023 12.6828 9.06725C12.0039 8.9322 11.3001 9.00151 10.6606 9.26642C10.0211 9.53133 9.47444 9.97993 9.08986 10.5555C8.70527 11.1311 8.5 11.8078 8.5 12.5C8.5 13.4283 8.86875 14.3185 9.52513 14.9749C10.1815 15.6313 11.0717 16 12 16Z" fill="#D2D4E5"/>
</svg>
