<svg width="24" height="24" viewBox="0 0 24 24" fill="none" xmlns="http://www.w3.org/2000/svg">
<path d="M12 22C10.0222 22 8.08879 21.4135 6.4443 20.3147C4.79981 19.2159 3.51809 17.6541 2.76121 15.8268C2.00433 13.9996 1.8063 11.9889 2.19215 10.0491C2.578 8.10929 3.53041 6.32746 4.92894 4.92894C6.32746 3.53041 8.10929 2.578 10.0491 2.19215C11.9889 1.8063 13.9996 2.00433 15.8268 2.76121C17.6541 3.51809 19.2159 4.79981 20.3147 6.4443C21.4135 8.08879 22 10.0222 22 12C22 14.6522 20.9464 17.1957 19.0711 19.0711C17.1957 20.9464 14.6522 22 12 22ZM9.71 19.667C8.72342 17.5743 8.15188 15.3102 8.027 13H4.062C4.25659 14.5389 4.89393 15.9882 5.89657 17.1717C6.89922 18.3553 8.22402 19.2221 9.71 19.667ZM10.03 13C10.1749 15.3694 10.848 17.6764 12 19.752C13.1525 17.6766 13.8256 15.3695 13.97 13H10.03ZM19.938 13H15.973C15.8481 15.3102 15.2766 17.5743 14.29 19.667C15.776 19.2221 17.1008 18.3553 18.1034 17.1717C19.1061 15.9882 19.7434 14.5389 19.938 13ZM4.062 11H8.027C8.15188 8.68979 8.72342 6.42569 9.71 4.333C8.22402 4.77788 6.89922 5.64476 5.89657 6.8283C4.89393 8.01184 4.25659 9.46111 4.062 11ZM10.031 11H13.969C13.8249 8.63057 13.1521 6.32347 12 4.248C10.8475 6.32339 10.1744 8.6305 10.03 11H10.031ZM14.29 4.333C15.2766 6.42569 15.8481 8.68979 15.973 11H19.938C19.7434 9.46111 19.1061 8.01184 18.1034 6.8283C17.1008 5.64476 15.776 4.77788 14.29 4.333Z" fill="#D2D4E5"/>
</svg>
