<svg width="24" height="24" viewBox="0 0 24 24" fill="none" xmlns="http://www.w3.org/2000/svg">
<path d="M12 18C10.8133 18 9.65327 17.6481 8.66658 16.9888C7.67988 16.3295 6.91085 15.3925 6.45672 14.2961C6.0026 13.1997 5.88378 11.9933 6.11529 10.8295C6.3468 9.66557 6.91824 8.59647 7.75736 7.75736C8.59647 6.91824 9.66557 6.3468 10.8295 6.11529C11.9933 5.88378 13.1997 6.0026 14.2961 6.45672C15.3925 6.91085 16.3295 7.67988 16.9888 8.66658C17.6481 9.65327 18 10.8133 18 12C18 13.5913 17.3679 15.1174 16.2426 16.2426C15.1174 17.3679 13.5913 18 12 18ZM12 16C12.7911 16 13.5645 15.7654 14.2223 15.3259C14.8801 14.8864 15.3928 14.2616 15.6955 13.5307C15.9983 12.7998 16.0775 11.9956 15.9231 11.2196C15.7688 10.4437 15.3878 9.73098 14.8284 9.17157C14.269 8.61216 13.5563 8.2312 12.7804 8.07686C12.0044 7.92252 11.2002 8.00173 10.4693 8.30448C9.73836 8.60723 9.11365 9.11992 8.67412 9.77772C8.2346 10.4355 8 11.2089 8 12C8 13.0609 8.42143 14.0783 9.17157 14.8284C9.92172 15.5786 10.9391 16 12 16ZM11 1H13V4H11V1ZM11 20H13V23H11V20ZM3.515 4.929L4.929 3.515L7.05 5.636L5.636 7.05L3.515 4.929ZM16.95 18.364L18.364 16.95L20.485 19.071L19.071 20.485L16.95 18.364ZM19.071 3.514L20.485 4.929L18.364 7.05L16.95 5.636L19.071 3.515V3.514ZM5.636 16.95L7.05 18.364L4.929 20.485L3.515 19.071L5.636 16.95ZM23 11V13H20V11H23ZM4 11V13H1V11H4Z" fill="#D2D4E5"/>
</svg>
