<svg width="10" height="12" viewBox="0 0 10 12" fill="none" xmlns="http://www.w3.org/2000/svg">
<path d="M8.57112 5.14306C8.7192 5.2319 8.84175 5.35758 8.92684 5.50785C9.01192 5.65812 9.05664 5.82787 9.05664 6.00056C9.05664 6.17324 9.01192 6.34299 8.92684 6.49326C8.84175 6.64353 8.7192 6.76921 8.57112 6.85806L1.51512 11.0921C1.36333 11.1833 1.19005 11.2325 1.01298 11.2348C0.835912 11.2371 0.661416 11.1923 0.507329 11.105C0.353242 11.0177 0.225092 10.8911 0.135978 10.7381C0.0468636 10.5851 -1.81198e-05 10.4111 0.000124931 10.2341V1.76606C0.000264168 1.58921 0.0473003 1.41556 0.136436 1.26282C0.225571 1.11008 0.353617 0.983709 0.507518 0.896594C0.661419 0.809478 0.83567 0.764733 1.0125 0.766922C1.18934 0.769112 1.36243 0.818156 1.51412 0.909056L8.57112 5.14306Z" fill="white"/>
</svg>
