<svg width="20" height="21" viewBox="0 0 20 21" fill="none" xmlns="http://www.w3.org/2000/svg">
<path d="M10 20.5C8.02219 20.5 6.08879 19.9135 4.4443 18.8147C2.79981 17.7159 1.51809 16.1541 0.761209 14.3268C0.00433284 12.4996 -0.193701 10.4889 0.192152 8.5491C0.578004 6.60929 1.53041 4.82746 2.92894 3.42894C4.32746 2.03041 6.10929 1.078 8.0491 0.692152C9.98891 0.306299 11.9996 0.504333 13.8268 1.26121C15.6541 2.01809 17.2159 3.29981 18.3147 4.9443C19.4135 6.58879 20 8.52219 20 10.5C20 13.1522 18.9464 15.6957 17.0711 17.5711C15.1957 19.4464 12.6522 20.5 10 20.5ZM9 13.5V15.5H11V13.5H9ZM11 11.855C11.5937 11.6777 12.1298 11.346 12.5533 10.8937C12.9769 10.4414 13.2728 9.8848 13.4108 9.28071C13.5488 8.67663 13.5239 8.04674 13.3387 7.4554C13.1536 6.86407 12.8147 6.3325 12.3568 5.915C11.899 5.4975 11.3384 5.20905 10.7326 5.07912C10.1267 4.94918 9.4972 4.98243 8.90839 5.17545C8.31957 5.36847 7.79256 5.71436 7.38119 6.17776C6.96983 6.64116 6.68886 7.20546 6.567 7.813L8.52901 8.206C8.58468 7.92744 8.71832 7.67041 8.91437 7.46482C9.11042 7.25923 9.36082 7.11355 9.63643 7.04471C9.91204 6.97587 10.2015 6.98671 10.4712 7.07597C10.7409 7.16523 10.9797 7.32924 11.1598 7.54892C11.34 7.76859 11.454 8.03489 11.4887 8.31685C11.5234 8.5988 11.4773 8.88481 11.3558 9.14159C11.2343 9.39837 11.0423 9.61537 10.8023 9.76733C10.5623 9.9193 10.2841 9.99999 10 10C9.73479 10 9.48043 10.1054 9.2929 10.2929C9.10536 10.4804 9 10.7348 9 11V12.5H11V11.855Z" fill="white"/>
</svg>
