<svg width="16" height="16" viewBox="0 0 16 16" fill="none" xmlns="http://www.w3.org/2000/svg">
<path d="M5.01124 7.94888C5.01122 8.08612 5.03823 8.22202 5.09074 8.34882C5.14324 8.47561 5.22021 8.59084 5.31724 8.6879L9.21723 12.5879C9.4131 12.7838 9.67874 12.8938 9.95573 12.8938C10.2327 12.8938 10.4984 12.7838 10.6942 12.5879C10.8901 12.392 11.0001 12.1264 11.0001 11.8494C11.0001 11.5724 10.8901 11.3068 10.6942 11.1109L8.29423 7.9469L10.6942 4.7829C10.8901 4.58704 11.0001 4.32139 11.0001 4.0444C11.0001 3.76741 10.8901 3.50174 10.6942 3.30588C10.4984 3.11002 10.2327 3 9.95573 3C9.67874 3 9.4131 3.11002 9.21723 3.30588L5.31724 7.2059C5.21969 7.3034 5.14241 7.41925 5.08988 7.54678C5.03736 7.67431 5.01064 7.81096 5.01124 7.94888Z" fill="white"/>
</svg>
