<svg width="35" height="34" viewBox="0 0 35 34" fill="none" xmlns="http://www.w3.org/2000/svg">
<path d="M31.7331 26.858V31.083H3.56641V26.858C3.56641 26.0835 4.20016 25.4497 4.97474 25.4497H30.3247C31.0993 25.4497 31.7331 26.0835 31.7331 26.858Z" fill="white" stroke="#F3F7F8" stroke-width="1.95" stroke-miterlimit="10" stroke-linecap="round" stroke-linejoin="round"/>
<path opacity="0.6" d="M12.0171 15.5913H6.38379V25.4496H12.0171V15.5913Z" fill="#F3F7F8"/>
<path opacity="0.4" d="M17.6499 15.5913H12.0166V25.4496H17.6499V15.5913Z" fill="#F3F7F8"/>
<path opacity="0.6" d="M23.2832 15.5913H17.6499V25.4496H23.2832V15.5913Z" fill="#F3F7F8"/>
<path opacity="0.4" d="M28.917 15.5913H23.2837V25.4496H28.917V15.5913Z" fill="#F3F7F8"/>
<path d="M33.1421 32.1394H2.15879C1.58137 32.1394 1.10254 31.6605 1.10254 31.0831C1.10254 30.5057 1.58137 30.0269 2.15879 30.0269H33.1421C33.7195 30.0269 34.1984 30.5057 34.1984 31.0831C34.1984 31.6605 33.7195 32.1394 33.1421 32.1394Z" fill="#F3F7F8"/>
<path d="M30.8458 8.19744L18.1708 3.12747C17.8892 3.0148 17.4103 3.0148 17.1287 3.12747L4.45366 8.19744C3.96075 8.3946 3.56641 8.97201 3.56641 9.50717V14.1829C3.56641 14.9574 4.20016 15.5912 4.97474 15.5912H30.3247C31.0993 15.5912 31.7331 14.9574 31.7331 14.1829V9.50717C31.7331 8.97201 31.3387 8.3946 30.8458 8.19744ZM17.6497 12.0704C16.4808 12.0704 15.5372 11.1268 15.5372 9.95785C15.5372 8.78894 16.4808 7.84535 17.6497 7.84535C18.8187 7.84535 19.7622 8.78894 19.7622 9.95785C19.7622 11.1268 18.8187 12.0704 17.6497 12.0704Z" fill="#F3F7F8"/>
</svg>
