<svg width="35" height="35" viewBox="0 0 35 35" fill="none" xmlns="http://www.w3.org/2000/svg">
<path opacity="0.4" d="M31.7341 13.5249V24.0311C31.7341 27.2562 29.1146 29.8616 25.8895 29.8616H9.41197C6.18688 29.8616 3.56738 27.2562 3.56738 24.0311V13.5249H31.7341Z" fill="white"/>
<path d="M9.41211 6.28809H25.8896C28.7576 6.28818 31.0838 8.60397 31.084 11.4678V12.874H4.21777V11.4678C4.218 8.60391 6.54411 6.28809 9.41211 6.28809Z" fill="white" stroke="#F3F7F8" stroke-width="1.3"/>
<path d="M12.0165 25.1433H9.1998C8.62239 25.1433 8.14355 24.6644 8.14355 24.087C8.14355 23.5096 8.62239 23.0308 9.1998 23.0308H12.0165C12.5939 23.0308 13.0727 23.5096 13.0727 24.087C13.0727 24.6644 12.5939 25.1433 12.0165 25.1433Z" fill="#F3F7F8"/>
<path d="M21.171 25.1433H15.5377C14.9603 25.1433 14.4814 24.6644 14.4814 24.087C14.4814 23.5096 14.9603 23.0308 15.5377 23.0308H21.171C21.7484 23.0308 22.2273 23.5096 22.2273 24.087C22.2273 24.6644 21.7484 25.1433 21.171 25.1433Z" fill="#F3F7F8"/>
</svg>
