<svg width="28" height="20" viewBox="0 0 28 20" fill="none" xmlns="http://www.w3.org/2000/svg">
<path d="M27.4033 6.58701V6.62299ZM0.701294 7.41699V12.45H10.2141V7.41699H0.701294ZM13.8143 19.934V18.874H13.1577C12.377 18.8732 11.6285 18.5706 11.0764 18.0325C10.5244 17.4945 10.2139 16.7649 10.2131 16.004V13.245H0.701294V16.751C0.701294 17.1777 0.787514 17.6001 0.955032 17.9943C1.12255 18.3885 1.36809 18.7467 1.67763 19.0484C1.98716 19.3501 2.35462 19.5894 2.75905 19.7527C3.16348 19.916 3.59693 20 4.03468 20L13.8143 19.934ZM17.9592 7.41699V12.45H27.472V7.41699H17.9592ZM17.1436 13.245V4C17.1433 3.44923 16.9187 2.9211 16.5191 2.53165C16.1195 2.14219 15.5777 1.92327 15.0126 1.923H13.7466V0H3.62634C2.85073 0.00105875 2.10721 0.301895 1.55887 0.836548C1.01052 1.3712 0.702108 2.09601 0.701294 2.85199V6.62299H11.0287V16C11.0293 16.5504 11.2539 17.0782 11.6532 17.4674C12.0525 17.8566 12.5939 18.0755 13.1587 18.076H14.6299V19.864H24.546C25.3217 19.8632 26.0655 19.5625 26.6141 19.0278C27.1627 18.4931 27.4712 17.7681 27.472 17.012V13.241L17.1436 13.245ZM0.701294 7.41699V12.45H10.2141V7.41699H0.701294ZM0.701294 7.41699V12.45H10.2141V7.41699H0.701294Z" fill="white"/>
<path d="M27.4042 3.24905V6.62204H17.9602V3.99704C17.9588 3.23584 17.6479 2.50621 17.0956 1.96805C16.5432 1.42989 15.7945 1.1271 15.0136 1.12604H14.5621V0.06604H24.1386C25.0045 0.0668343 25.8346 0.40245 26.4468 0.999207C27.0591 1.59596 27.4034 2.40511 27.4042 3.24905Z" fill="white"/>
</svg>
