<svg width="25" height="24" viewBox="0 0 25 24" fill="none" xmlns="http://www.w3.org/2000/svg">
<path opacity="0.8" d="M13.1502 2.52009L13.1202 2.59009L10.2202 9.32009H7.3702C6.6902 9.32009 6.0502 9.45009 5.4502 9.71009L7.2002 5.53009L7.2402 5.44009L7.3002 5.28009C7.3302 5.21009 7.3502 5.15009 7.3802 5.10009C8.6902 2.07009 10.1702 1.38009 13.1502 2.52009Z" fill="#F2FBF9"/>
<path d="M18.5402 9.52002C18.0902 9.39002 17.6202 9.32002 17.1302 9.32002H10.2202L13.1202 2.59002L13.1502 2.52002C13.2902 2.57002 13.4402 2.64002 13.5902 2.69002L15.8002 3.62002C17.0302 4.13002 17.8902 4.66002 18.4202 5.30002C18.5102 5.42002 18.5902 5.53002 18.6702 5.66002C18.7602 5.80002 18.8302 5.94002 18.8702 6.09002C18.9102 6.18002 18.9402 6.26002 18.9602 6.35002C19.2202 7.20002 19.0602 8.23002 18.5402 9.52002Z" fill="#F2FBF9"/>
<path opacity="0.4" d="M22.0102 14.2001V16.1501C22.0102 16.3501 22.0002 16.5501 21.9902 16.7401C21.8002 20.2401 19.8502 22.0001 16.1502 22.0001H8.35023C8.10023 22.0001 7.87023 21.9801 7.64023 21.9501C4.46023 21.7401 2.76023 20.0401 2.54023 16.8601C2.51023 16.6201 2.49023 16.3901 2.49023 16.1501V14.2001C2.49023 12.1901 3.71023 10.4601 5.45023 9.71007C6.05023 9.45007 6.69023 9.32007 7.37023 9.32007H17.1302C17.6202 9.32007 18.0902 9.39007 18.5402 9.52007C20.5402 10.1301 22.0102 11.9901 22.0102 14.2001Z" fill="#F2FBF9"/>
<path opacity="0.6" d="M7.20023 5.53003L5.45023 9.71003C3.71023 10.46 2.49023 12.19 2.49023 14.2V11.27C2.49023 8.43003 4.51023 6.06003 7.20023 5.53003Z" fill="#F2FBF9"/>
<path opacity="0.6" d="M22.01 11.2701V14.2001C22.01 11.9901 20.54 10.1301 18.54 9.52009C19.06 8.23009 19.22 7.20009 18.96 6.35009C18.94 6.26009 18.91 6.18009 18.87 6.09009C20.74 7.06009 22.01 9.03009 22.01 11.2701Z" fill="#F2FBF9"/>
<path d="M14.75 14.69H13V13C13 12.59 12.66 12.25 12.25 12.25C11.84 12.25 11.5 12.59 11.5 13V14.69H9.75C9.34 14.69 9 15.03 9 15.44C9 15.85 9.34 16.19 9.75 16.19H11.5V18C11.5 18.41 11.84 18.75 12.25 18.75C12.66 18.75 13 18.41 13 18V16.19H14.75C15.16 16.19 15.5 15.85 15.5 15.44C15.5 15.03 15.16 14.69 14.75 14.69Z" fill="#F2FBF9"/>
</svg>
