<svg width="25" height="24" viewBox="0 0 25 24" fill="none" xmlns="http://www.w3.org/2000/svg">
<path d="M18.4999 7.04997C18.2599 7.00997 18.0099 6.99998 17.7499 6.99998H7.74994C7.46994 6.99998 7.19994 7.01998 6.93994 7.05998C7.07994 6.77998 7.27994 6.52001 7.51994 6.28001L10.7699 3.02C12.1399 1.66 14.3599 1.66 15.7299 3.02L17.4799 4.78996C18.1199 5.41996 18.4599 6.21997 18.4999 7.04997Z" fill="#F2FBF9"/>
<path opacity="0.4" d="M2.75 16.36V12C2.75 9.28 4.39 7.38 6.94 7.06C7.2 7.02 7.47 7 7.75 7H17.75C18.01 7 18.26 7.00999 18.5 7.04999C21.08 7.34999 22.75 9.26 22.75 12V17C22.75 19.76 20.51 22 17.75 22H8.38H7.75C4.99 22 2.75 19.76 2.75 17V16.36Z" fill="#F2FBF9"/>
<path d="M22.75 12.5H19.75C18.65 12.5 17.75 13.4 17.75 14.5C17.75 15.6 18.65 16.5 19.75 16.5H22.75" fill="#F2FBF9"/>
<path d="M1.98006 21.68L2.74005 20.92C2.34005 20.32 2.11006 19.6 2.11006 18.83C2.11006 16.72 3.82006 15.01 5.93006 15.01C8.04006 15.01 9.75006 16.72 9.75006 18.83C9.75006 20.94 8.04006 22.65 5.93006 22.65C5.16006 22.65 4.44005 22.42 3.84005 22.02L3.08006 22.78C2.93006 22.93 2.73005 23.01 2.53005 23.01C2.33005 23.01 2.13006 22.93 1.98006 22.78C1.67006 22.47 1.67006 21.98 1.98006 21.68Z" fill="#F2FBF9"/>
</svg>
