<svg width="14" height="17" viewBox="0 0 14 17" fill="none" xmlns="http://www.w3.org/2000/svg">
<path d="M7.74985 1.25C7.74985 1.05109 7.67084 0.860322 7.53018 0.71967C7.38953 0.579018 7.19877 0.5 6.99985 0.5C6.80094 0.5 6.61018 0.579018 6.46952 0.71967C6.32887 0.860322 6.24985 1.05109 6.24985 1.25V1.9715L5.75935 1.712C5.67229 1.66596 5.577 1.63751 5.47894 1.62829C5.38089 1.61907 5.28197 1.62925 5.18785 1.65826C5.09372 1.68727 5.00623 1.73453 4.93038 1.79735C4.85452 1.86016 4.79177 1.93731 4.74573 2.02437C4.69968 2.11144 4.67124 2.20672 4.66202 2.30478C4.6528 2.40284 4.66298 2.50176 4.69199 2.59588C4.72099 2.69001 4.76826 2.7775 4.83107 2.85335C4.89389 2.92921 4.97104 2.99196 5.0581 3.038L6.24985 3.668V5.0945C5.72189 5.23113 5.24116 5.5091 4.85935 5.8985L3.62335 5.1845L3.6736 3.8375C3.68096 3.63869 3.60904 3.44509 3.47367 3.29931C3.33829 3.15352 3.15054 3.06748 2.95173 3.06012C2.75292 3.05277 2.55932 3.12469 2.41354 3.26006C2.26775 3.39544 2.18171 3.58319 2.17435 3.782L2.1541 4.33625L1.52935 3.97625C1.44398 3.92343 1.34886 3.88829 1.24965 3.87291C1.15044 3.85753 1.04915 3.86223 0.951791 3.88672C0.854429 3.91121 0.762976 3.95501 0.682852 4.0155C0.602729 4.07599 0.535566 4.15196 0.485345 4.23889C0.435125 4.32582 0.402869 4.42195 0.390489 4.52158C0.37811 4.62121 0.385859 4.72231 0.413278 4.81889C0.440696 4.91547 0.487226 5.00556 0.550108 5.08382C0.612991 5.16208 0.690947 5.22692 0.779354 5.2745L1.4041 5.63525L0.933854 5.93075C0.769835 6.03855 0.654608 6.20634 0.6129 6.39813C0.571192 6.58992 0.606326 6.79041 0.710764 6.95659C0.815201 7.12277 0.980619 7.24138 1.17152 7.28698C1.36242 7.33258 1.56359 7.30154 1.73185 7.2005L2.87335 6.4835L4.1086 7.19675C3.96256 7.72229 3.96256 8.27771 4.1086 8.80325L2.87335 9.51575L1.73185 8.7995C1.56359 8.69846 1.36242 8.66742 1.17152 8.71302C0.980619 8.75862 0.815201 8.87723 0.710764 9.04341C0.606326 9.20959 0.571192 9.41008 0.6129 9.60187C0.654608 9.79366 0.769835 9.96145 0.933854 10.0693L1.4041 10.3647L0.779354 10.7248C0.694011 10.774 0.619203 10.8396 0.559202 10.9177C0.499201 10.9959 0.455182 11.0851 0.429657 11.1803C0.404133 11.2754 0.397603 11.3747 0.410441 11.4724C0.423279 11.5701 0.455233 11.6643 0.504479 11.7496C0.553724 11.835 0.619297 11.9098 0.697454 11.9698C0.77561 12.0298 0.864819 12.0738 0.959988 12.0993C1.05516 12.1248 1.15442 12.1314 1.25211 12.1185C1.3498 12.1057 1.44401 12.0737 1.52935 12.0245L2.15335 11.6637L2.17435 12.2188C2.17805 12.3172 2.20109 12.4139 2.24218 12.5035C2.28326 12.593 2.34158 12.6736 2.4138 12.7406C2.48602 12.8076 2.57073 12.8597 2.66309 12.894C2.75546 12.9282 2.85366 12.9439 2.9521 12.9403C3.05055 12.9366 3.1473 12.9135 3.23683 12.8724C3.32637 12.8313 3.40693 12.773 3.47393 12.7008C3.54093 12.6286 3.59304 12.5439 3.62731 12.4515C3.66156 12.3591 3.6773 12.2609 3.6736 12.1625L3.62335 10.8155L4.85935 10.1015C5.24116 10.4909 5.72189 10.7689 6.24985 10.9055V12.332L5.0581 12.962C4.88227 13.055 4.75057 13.214 4.69199 13.4041C4.63341 13.5942 4.65274 13.7998 4.74573 13.9756C4.83872 14.1515 4.99775 14.2832 5.18785 14.3417C5.37794 14.4003 5.58352 14.381 5.75935 14.288L6.24985 14.0285V14.75C6.24985 14.9489 6.32887 15.1397 6.46952 15.2803C6.61018 15.421 6.80094 15.5 6.99985 15.5C7.19877 15.5 7.38953 15.421 7.53018 15.2803C7.67084 15.1397 7.74985 14.9489 7.74985 14.75V14.0285L8.24035 14.288C8.41619 14.381 8.62177 14.4003 8.81186 14.3417C9.00195 14.2832 9.16099 14.1515 9.25398 13.9756C9.34697 13.7998 9.3663 13.5942 9.30772 13.4041C9.24914 13.214 9.11744 13.055 8.9416 12.962L7.74985 12.332V10.9055C8.27773 10.7691 8.75846 10.4914 9.14035 10.1023L10.3764 10.8155L10.3261 12.1625C10.3224 12.2609 10.3381 12.3591 10.3724 12.4515C10.4067 12.5439 10.4588 12.6286 10.5258 12.7008C10.5928 12.773 10.6733 12.8313 10.7629 12.8724C10.8524 12.9135 10.9492 12.9366 11.0476 12.9403C11.146 12.9439 11.2443 12.9282 11.3366 12.894C11.429 12.8597 11.5137 12.8076 11.5859 12.7406C11.6581 12.6736 11.7164 12.593 11.7575 12.5035C11.7986 12.4139 11.8217 12.3172 11.8254 12.2188L11.8456 11.6637L12.4704 12.0245C12.5557 12.0745 12.6501 12.1072 12.7481 12.1206C12.8461 12.134 12.9457 12.1279 13.0414 12.1026C13.137 12.0773 13.2267 12.0333 13.3052 11.9733C13.3838 11.9132 13.4497 11.8382 13.4992 11.7525C13.5486 11.6668 13.5807 11.5722 13.5934 11.4742C13.6062 11.3761 13.5994 11.2764 13.5735 11.181C13.5475 11.0855 13.503 10.9961 13.4424 10.918C13.3818 10.8398 13.3063 10.7744 13.2204 10.7255L12.5964 10.3655L13.0659 10.07C13.2343 9.96418 13.3539 9.79576 13.3982 9.6018C13.4425 9.40784 13.4079 9.20423 13.3021 9.03575C13.1963 8.86727 13.0279 8.74773 12.8339 8.70342C12.6399 8.65912 12.4363 8.69368 12.2679 8.7995L11.1264 9.5165L9.8911 8.804C10.0373 8.27822 10.0373 7.72253 9.8911 7.19675L11.1264 6.4835L12.2679 7.2005C12.4363 7.30632 12.6399 7.34088 12.8339 7.29658C13.0279 7.25227 13.1963 7.13273 13.3021 6.96425C13.4079 6.79577 13.4425 6.59216 13.3982 6.3982C13.3539 6.20424 13.2343 6.03582 13.0659 5.93L12.5956 5.63525L13.2204 5.2745C13.3063 5.22561 13.3818 5.1602 13.4424 5.08203C13.503 5.00386 13.5475 4.91447 13.5735 4.81902C13.5994 4.72356 13.6062 4.62393 13.5934 4.52584C13.5807 4.42776 13.5486 4.33316 13.4992 4.2475C13.4497 4.16185 13.3838 4.08682 13.3052 4.02674C13.2267 3.96665 13.137 3.92271 13.0414 3.89743C12.9457 3.87214 12.8461 3.86603 12.7481 3.87943C12.6501 3.89283 12.5557 3.92548 12.4704 3.9755L11.8456 4.3355L11.8254 3.78125C11.8217 3.68281 11.7986 3.58606 11.7575 3.49652C11.7164 3.40699 11.6581 3.32642 11.5859 3.25942C11.5137 3.19243 11.429 3.14031 11.3366 3.10605C11.2443 3.07179 11.146 3.05606 11.0476 3.05975C10.9492 3.06344 10.8524 3.08649 10.7629 3.12757C10.6733 3.16866 10.5928 3.22698 10.5258 3.2992C10.4588 3.37142 10.4067 3.45613 10.3724 3.54849C10.3381 3.64085 10.3224 3.73906 10.3261 3.8375L10.3764 5.1845L9.14035 5.89775C8.75846 5.50862 8.27773 5.23092 7.74985 5.0945V3.668L8.9416 3.038C9.11744 2.94501 9.24914 2.78597 9.30772 2.59588C9.3663 2.40579 9.34697 2.20021 9.25398 2.02437C9.16099 1.84854 9.00195 1.71684 8.81186 1.65826C8.62177 1.59968 8.41619 1.61901 8.24035 1.712L7.74985 1.9715V1.25Z" fill="#1D1F76"/>
</svg>
