<svg width="25" height="24" viewBox="0 0 25 24" fill="none" xmlns="http://www.w3.org/2000/svg">
<path d="M5.25 15C4.31 15 3.44 15.33 2.75 15.88C1.83 16.61 1.25 17.74 1.25 19C1.25 21.21 3.04 23 5.25 23C6.26 23 7.18 22.62 7.89 22C8.72 21.27 9.25 20.2 9.25 19C9.25 16.79 7.46 15 5.25 15ZM6.25 19.25C6.25 19.51 6.11 19.76 5.89 19.89L4.64 20.64C4.52 20.71 4.39 20.75 4.25 20.75C4 20.75 3.75 20.62 3.61 20.39C3.4 20.03 3.50999 19.57 3.87 19.36L4.75999 18.83V17.75C4.75999 17.34 5.09999 17 5.50999 17C5.91999 17 6.25999 17.34 6.25999 17.75V19.25H6.25Z" fill="#F2FBF9"/>
<path opacity="0.4" d="M19.73 12.95H21.75V11.51C21.75 9.44001 20.06 7.75 17.99 7.75H6.50999C4.43999 7.75 2.75 9.44001 2.75 11.51V15.88C3.44 15.33 4.31 15 5.25 15C7.46 15 9.25 16.79 9.25 19C9.25 19.75 9.04 20.46 8.67 21.06C8.46 21.42 8.19 21.74 7.88 22H17.99C20.06 22 21.75 20.31 21.75 18.24V17.05H19.85C18.77 17.05 17.78 16.26 17.69 15.18C17.63 14.55 17.87 13.96 18.29 13.55C18.66 13.17 19.17 12.95 19.73 12.95Z" fill="#F2FBF9"/>
<path d="M15.1 3.95012V7.75011H6.50999C4.43999 7.75011 2.75 9.44012 2.75 11.5101V7.84014C2.75 6.65014 3.48 5.59009 4.59 5.17009L12.53 2.17009C13.77 1.71009 15.1 2.62012 15.1 3.95012Z" fill="#F2FBF9"/>
<path d="M22.8098 13.9699V16.03C22.8098 16.58 22.3698 17.0299 21.8098 17.0499H19.8498C18.7698 17.0499 17.7798 16.2599 17.6898 15.1799C17.6298 14.5499 17.8698 13.9599 18.2898 13.5499C18.6598 13.1699 19.1698 12.95 19.7298 12.95H21.8098C22.3698 12.97 22.8098 13.4199 22.8098 13.9699Z" fill="#F2FBF9"/>
<path d="M14.25 12.75H7.25C6.84 12.75 6.5 12.41 6.5 12C6.5 11.59 6.84 11.25 7.25 11.25H14.25C14.66 11.25 15 11.59 15 12C15 12.41 14.66 12.75 14.25 12.75Z" fill="#F2FBF9"/>
</svg>
