<svg width="25" height="24" viewBox="0 0 25 24" fill="none" xmlns="http://www.w3.org/2000/svg">
<path opacity="0.8" d="M13.6502 2.52009L13.6202 2.59009L10.7202 9.32009H7.8702C7.1902 9.32009 6.5502 9.45009 5.9502 9.71009L7.7002 5.53009L7.7402 5.44009L7.8002 5.28009C7.8302 5.21009 7.8502 5.15009 7.8802 5.10009C9.1902 2.07009 10.6702 1.38009 13.6502 2.52009Z" fill="#F2FBF9"/>
<path d="M19.0402 9.52002C18.5902 9.39002 18.1202 9.32002 17.6302 9.32002H10.7202L13.6202 2.59002L13.6502 2.52002C13.7902 2.57002 13.9402 2.64002 14.0902 2.69002L16.3002 3.62002C17.5302 4.13002 18.3902 4.66002 18.9202 5.30002C19.0102 5.42002 19.0902 5.53002 19.1702 5.66002C19.2602 5.80002 19.3302 5.94002 19.3702 6.09002C19.4102 6.18002 19.4402 6.26002 19.4602 6.35002C19.7202 7.20002 19.5602 8.23002 19.0402 9.52002Z" fill="#F2FBF9"/>
<path opacity="0.4" d="M22.5102 14.2001V16.1501C22.5102 16.3501 22.5002 16.5501 22.4902 16.7401C22.3002 20.2401 20.3502 22.0001 16.6502 22.0001H8.85023C8.60023 22.0001 8.37023 21.9801 8.14023 21.9501C4.96023 21.7401 3.26023 20.0401 3.04023 16.8601C3.01023 16.6201 2.99023 16.3901 2.99023 16.1501V14.2001C2.99023 12.1901 4.21023 10.4601 5.95023 9.71007C6.55023 9.45007 7.19023 9.32007 7.87023 9.32007H17.6302C18.1202 9.32007 18.5902 9.39007 19.0402 9.52007C21.0402 10.1301 22.5102 11.9901 22.5102 14.2001Z" fill="#F2FBF9"/>
<path opacity="0.6" d="M7.70023 5.53003L5.95023 9.71003C4.21023 10.46 2.99023 12.19 2.99023 14.2V11.27C2.99023 8.43003 5.01023 6.06003 7.70023 5.53003Z" fill="#F2FBF9"/>
<path opacity="0.6" d="M22.51 11.2701V14.2001C22.51 11.9901 21.04 10.1301 19.04 9.52009C19.56 8.23009 19.72 7.20009 19.46 6.35009C19.44 6.26009 19.41 6.18009 19.37 6.09009C21.24 7.06009 22.51 9.03009 22.51 11.2701Z" fill="#F2FBF9"/>
<path d="M15.25 16.75H10.25C9.84 16.75 9.5 16.41 9.5 16C9.5 15.59 9.84 15.25 10.25 15.25H15.25C15.66 15.25 16 15.59 16 16C16 16.41 15.66 16.75 15.25 16.75Z" fill="#F2FBF9"/>
</svg>
