<svg width="20" height="20" viewBox="0 0 20 20" fill="none" xmlns="http://www.w3.org/2000/svg">
<path opacity="0.4" d="M10.0003 18.3333C14.6027 18.3333 18.3337 14.6023 18.3337 9.99996C18.3337 5.39759 14.6027 1.66663 10.0003 1.66663C5.39795 1.66663 1.66699 5.39759 1.66699 9.99996C1.66699 14.6023 5.39795 18.3333 10.0003 18.3333Z" fill="#F3F7F8"/>
<path d="M13.3337 9.37496H10.6253V6.66663C10.6253 6.32496 10.342 6.04163 10.0003 6.04163C9.65866 6.04163 9.37533 6.32496 9.37533 6.66663V9.37496H6.66699C6.32533 9.37496 6.04199 9.65829 6.04199 9.99996C6.04199 10.3416 6.32533 10.625 6.66699 10.625H9.37533V13.3333C9.37533 13.675 9.65866 13.9583 10.0003 13.9583C10.342 13.9583 10.6253 13.675 10.6253 13.3333V10.625H13.3337C13.6753 10.625 13.9587 10.3416 13.9587 9.99996C13.9587 9.65829 13.6753 9.37496 13.3337 9.37496Z" fill="#F3F7F8"/>
</svg>
