<svg width="34" height="35" viewBox="0 0 34 35" fill="none" xmlns="http://www.w3.org/2000/svg">
<path d="M29.7023 10.4302C28.5052 9.10636 26.5054 8.44444 23.6042 8.44444H23.2662V8.38811C23.2662 6.02211 23.2662 3.09277 17.9709 3.09277H15.8302C10.5349 3.09277 10.5349 6.03619 10.5349 8.38811V8.45852H10.1969C7.28163 8.45852 5.29588 9.12044 4.0988 10.4443C2.70455 11.9934 2.7468 14.0778 2.88763 15.5002L2.90172 15.5988L3.04255 17.0775C3.05663 17.0916 3.0848 17.1198 3.11297 17.1339C3.57772 17.4437 4.05655 17.7535 4.56355 18.0352C4.76072 18.1619 4.97197 18.2746 5.18322 18.3873C7.59147 19.7111 10.2391 20.5984 12.929 21.0349C13.0558 22.3588 13.6332 23.9079 16.7175 23.9079C19.8017 23.9079 20.4073 22.3729 20.5059 21.0068C23.3789 20.542 26.1533 19.5421 28.6601 18.0774C28.7446 18.0352 28.801 17.9929 28.8714 17.9507C29.5192 17.5845 30.1248 17.1902 30.7163 16.7536C30.7445 16.7395 30.7726 16.7114 30.7867 16.6832L30.8431 16.1762L30.9135 15.5143C30.9276 15.4298 30.9276 15.3594 30.9416 15.2608C31.0543 13.8384 31.0261 11.8949 29.7023 10.4302ZM18.4356 20.0773C18.4356 21.5701 18.4356 21.7954 16.7034 21.7954C14.9711 21.7954 14.9711 21.5279 14.9711 20.0914V18.3169H18.4356V20.0773ZM12.5488 8.44444V8.38811C12.5488 5.99394 12.5488 5.10669 15.8302 5.10669H17.9709C21.2523 5.10669 21.2523 6.00802 21.2523 8.38811V8.45852H12.5488V8.44444Z" fill="white"/>
<path opacity="0.4" d="M29.2803 26.1357C29.1377 27.4936 28.7988 28.7324 27.8623 29.6465C26.9303 30.5562 25.2877 31.2577 22.2803 31.2578H11.5479C8.54087 31.2577 6.89805 30.5566 5.96582 29.6484C5.02928 28.7359 4.68938 27.4998 4.54688 26.1494L3.81445 18.3242C3.95626 18.4092 4.10015 18.4936 4.24707 18.5752V18.5742C4.45631 18.7063 4.67333 18.8234 4.86719 18.9268V18.9277C7.20115 20.2243 9.75094 21.1076 12.3477 21.5684C12.4573 22.1822 12.6982 22.8508 13.2471 23.4033C13.9592 24.12 15.0732 24.5303 16.7168 24.5303C18.3618 24.5303 19.4766 24.1158 20.1885 23.3926C20.7389 22.8333 20.9783 22.156 21.0869 21.5352C23.8661 21.0173 26.5487 20.0352 28.9873 18.6104L28.9941 18.6064C29.0292 18.5854 29.0646 18.565 29.0996 18.5439C29.1316 18.5247 29.1633 18.5046 29.1953 18.4854C29.4824 18.3289 29.762 18.161 30.0371 17.9873L29.2803 26.1357Z" fill="white" stroke="#F3F7F8" stroke-width="1.3"/>
</svg>
