<svg width="34" height="35" viewBox="0 0 34 35" fill="none" xmlns="http://www.w3.org/2000/svg">
<path d="M2.81738 31.3774H30.9834C31.2018 31.3774 31.3896 31.5653 31.3896 31.7837C31.3894 32.002 31.2017 32.1899 30.9834 32.1899H2.81738C2.59908 32.1899 2.41136 32.002 2.41113 31.7837C2.41113 31.5653 2.59895 31.3774 2.81738 31.3774Z" fill="white" stroke="#F3F7F8" stroke-width="1.3"/>
<path opacity="0.4" d="M23.9413 3.61694H9.85794C5.63294 3.61694 4.22461 6.13786 4.22461 9.25028V31.7836H29.5746V9.25028C29.5746 6.13786 28.1663 3.61694 23.9413 3.61694Z" fill="#F3F7F8"/>
<path d="M14.083 25.0937H9.85801C9.28059 25.0937 8.80176 24.6149 8.80176 24.0375C8.80176 23.46 9.28059 22.9812 9.85801 22.9812H14.083C14.6604 22.9812 15.1393 23.46 15.1393 24.0375C15.1393 24.6149 14.6604 25.0937 14.083 25.0937Z" fill="#F3F7F8"/>
<path d="M23.9424 25.0937H19.7174C19.14 25.0937 18.6611 24.6149 18.6611 24.0375C18.6611 23.46 19.14 22.9812 19.7174 22.9812H23.9424C24.5198 22.9812 24.9986 23.46 24.9986 24.0375C24.9986 24.6149 24.5198 25.0937 23.9424 25.0937Z" fill="#F3F7F8"/>
<path d="M14.083 18.7563H9.85801C9.28059 18.7563 8.80176 18.2775 8.80176 17.7C8.80176 17.1226 9.28059 16.6438 9.85801 16.6438H14.083C14.6604 16.6438 15.1393 17.1226 15.1393 17.7C15.1393 18.2775 14.6604 18.7563 14.083 18.7563Z" fill="#F3F7F8"/>
<path d="M23.9424 18.7563H19.7174C19.14 18.7563 18.6611 18.2775 18.6611 17.7C18.6611 17.1226 19.14 16.6438 19.7174 16.6438H23.9424C24.5198 16.6438 24.9986 17.1226 24.9986 17.7C24.9986 18.2775 24.5198 18.7563 23.9424 18.7563Z" fill="#F3F7F8"/>
<path d="M14.083 12.4189H9.85801C9.28059 12.4189 8.80176 11.9401 8.80176 11.3626C8.80176 10.7852 9.28059 10.3064 9.85801 10.3064H14.083C14.6604 10.3064 15.1393 10.7852 15.1393 11.3626C15.1393 11.9401 14.6604 12.4189 14.083 12.4189Z" fill="#F3F7F8"/>
<path d="M23.9424 12.4189H19.7174C19.14 12.4189 18.6611 11.9401 18.6611 11.3626C18.6611 10.7852 19.14 10.3064 19.7174 10.3064H23.9424C24.5198 10.3064 24.9986 10.7852 24.9986 11.3626C24.9986 11.9401 24.5198 12.4189 23.9424 12.4189Z" fill="#F3F7F8"/>
</svg>
