<svg width="34" height="34" viewBox="0 0 34 34" fill="none" xmlns="http://www.w3.org/2000/svg">
<path opacity="0.4" d="M30.9841 12.6748V23.181C30.9841 26.4061 28.3646 29.0115 25.1395 29.0115H8.66197C5.43688 29.0115 2.81738 26.4061 2.81738 23.181V12.6748H30.9841Z" fill="white"/>
<path d="M8.66211 5.43848H25.1396C28.0076 5.43857 30.3338 7.75436 30.334 10.6182V12.0244H3.46777V10.6182C3.468 7.7543 5.79411 5.43848 8.66211 5.43848Z" fill="white" stroke="#F3F7F8" stroke-width="1.3"/>
<path d="M11.2665 24.2937H8.4498C7.87239 24.2937 7.39355 23.8148 7.39355 23.2374C7.39355 22.66 7.87239 22.1812 8.4498 22.1812H11.2665C11.8439 22.1812 12.3227 22.66 12.3227 23.2374C12.3227 23.8148 11.8439 24.2937 11.2665 24.2937Z" fill="#F3F7F8"/>
<path d="M20.421 24.2937H14.7877C14.2103 24.2937 13.7314 23.8148 13.7314 23.2374C13.7314 22.66 14.2103 22.1812 14.7877 22.1812H20.421C20.9984 22.1812 21.4773 22.66 21.4773 23.2374C21.4773 23.8148 20.9984 24.2937 20.421 24.2937Z" fill="#6F8DA1"/>
</svg>
