<svg width="34" height="35" viewBox="0 0 34 35" fill="none" xmlns="http://www.w3.org/2000/svg">
<path opacity="0.4" d="M14.07 25.9222C20.2846 25.9222 25.3225 20.8842 25.3225 14.6696C25.3225 8.45495 20.2846 3.41699 14.07 3.41699C7.85534 3.41699 2.81738 8.45495 2.81738 14.6696C2.81738 20.8842 7.85534 25.9222 14.07 25.9222Z" fill="white"/>
<path d="M27.7891 17.4175C29.3245 18.8363 30.29 20.8589 30.29 23.1196C30.29 27.408 26.807 30.891 22.5186 30.8911C20.2579 30.8911 18.2352 29.9256 16.8164 28.3901C22.3397 27.2992 26.6981 22.9407 27.7891 17.4175Z" fill="white" stroke="#F3F7F8" stroke-width="1.3"/>
<path d="M16.1259 14.275L12.7459 13.092C12.4079 12.9794 12.3375 12.9512 12.3375 12.4583C12.3375 12.0921 12.591 11.7964 12.9149 11.7964H15.0274C15.4781 11.7964 15.8443 12.2048 15.8443 12.7118C15.8443 13.2892 16.3231 13.768 16.9005 13.768C17.4779 13.768 17.9568 13.2892 17.9568 12.7118C17.9568 11.0922 16.7034 9.76837 15.1401 9.69796V9.62754C15.1401 9.05012 14.6613 8.57129 14.0839 8.57129C13.5064 8.57129 13.0276 9.03604 13.0276 9.62754V9.69796H12.9009C11.4221 9.69796 10.2109 10.9373 10.2109 12.4724C10.2109 13.8103 10.8024 14.6694 12.0277 15.0919L15.4218 16.2749C15.7598 16.3875 15.8302 16.4157 15.8302 16.9086C15.8302 17.2748 15.5767 17.5705 15.2528 17.5705H13.1403C12.6896 17.5705 12.3234 17.1621 12.3234 16.6551C12.3234 16.0777 11.8446 15.5989 11.2672 15.5989C10.6898 15.5989 10.2109 16.0777 10.2109 16.6551C10.2109 18.2747 11.4644 19.5985 13.0276 19.669V19.7535C13.0276 20.3309 13.5064 20.8097 14.0839 20.8097C14.6613 20.8097 15.1401 20.3309 15.1401 19.7535V19.683H15.2669C16.7456 19.683 17.9568 18.4437 17.9568 16.9086C17.9568 15.5707 17.3512 14.7116 16.1259 14.275Z" fill="#F3F7F8"/>
</svg>
