<svg width="34" height="35" viewBox="0 0 34 35" fill="none" xmlns="http://www.w3.org/2000/svg">
<path opacity="0.4" d="M16.9004 4.26733C24.3193 4.26733 30.3338 10.2811 30.334 17.7C30.334 25.119 24.3194 31.1335 16.9004 31.1335C9.48151 31.1334 3.46777 25.1189 3.46777 17.7C3.46795 10.2812 9.48162 4.26751 16.9004 4.26733Z" fill="white" stroke="#F3F7F8" stroke-width="1.3"/>
<path d="M16.9003 14.7002C16.2102 14.7002 15.6328 15.2635 15.6328 15.9677V19.4463C15.6328 20.1504 16.1961 20.7138 16.9003 20.7138C17.6045 20.7138 18.1678 20.1504 18.1678 19.4463V15.9677C18.1678 15.2635 17.5904 14.7002 16.9003 14.7002Z" fill="#F3F7F8"/>
<path d="M16.9005 25.5163C13.2107 25.5163 10.2109 22.5165 10.2109 18.8267V16.5734C10.2109 12.8835 13.2107 9.88379 16.9005 9.88379C20.5904 9.88379 23.5901 12.8835 23.5901 16.5734V18.8267C23.5901 22.5165 20.5904 25.5163 16.9005 25.5163ZM16.9005 11.9963C14.3796 11.9963 12.3234 14.0525 12.3234 16.5734V18.8267C12.3234 21.3476 14.3796 23.4038 16.9005 23.4038C19.4214 23.4038 21.4776 21.3476 21.4776 18.8267V16.5734C21.4776 14.0525 19.4214 11.9963 16.9005 11.9963Z" fill="#F3F7F8"/>
</svg>
