<svg width="20" height="20" viewBox="0 0 20 20" fill="none" xmlns="http://www.w3.org/2000/svg">
<path d="M10 20C8.02219 20 6.08879 19.4135 4.4443 18.3147C2.79981 17.2159 1.51809 15.6541 0.761209 13.8268C0.00433284 11.9996 -0.193701 9.98891 0.192152 8.0491C0.578004 6.10929 1.53041 4.32746 2.92894 2.92894C4.32746 1.53041 6.10929 0.578004 8.0491 0.192152C9.98891 -0.193701 11.9996 0.00433284 13.8268 0.761209C15.6541 1.51809 17.2159 2.79981 18.3147 4.4443C19.4135 6.08879 20 8.02219 20 10C20 12.6522 18.9464 15.1957 17.0711 17.0711C15.1957 18.9464 12.6522 20 10 20ZM10 18C11.5823 18 13.129 17.5308 14.4446 16.6518C15.7602 15.7727 16.7855 14.5233 17.391 13.0615C17.9965 11.5997 18.155 9.99113 17.8463 8.43928C17.5376 6.88743 16.7757 5.46197 15.6569 4.34315C14.538 3.22433 13.1126 2.4624 11.5607 2.15372C10.0089 1.84504 8.40035 2.00347 6.93854 2.60897C5.47673 3.21447 4.2273 4.23985 3.34825 5.55544C2.4692 6.87104 2 8.41775 2 10C2 12.1217 2.84286 14.1566 4.34315 15.6569C5.84344 17.1572 7.87827 18 10 18ZM6.5 12H12C12.1326 12 12.2598 11.9473 12.3536 11.8536C12.4473 11.7598 12.5 11.6326 12.5 11.5C12.5 11.3674 12.4473 11.2402 12.3536 11.1465C12.2598 11.0527 12.1326 11 12 11H8C7.33696 11 6.70108 10.7366 6.23224 10.2678C5.7634 9.79893 5.5 9.16305 5.5 8.5C5.5 7.83696 5.7634 7.20108 6.23224 6.73224C6.70108 6.2634 7.33696 6 8 6H9V4H11V6H13.5V8H8C7.8674 8 7.74022 8.05268 7.64645 8.14645C7.55268 8.24022 7.5 8.3674 7.5 8.5C7.5 8.63261 7.55268 8.75979 7.64645 8.85356C7.74022 8.94733 7.8674 9 8 9H12C12.663 9 13.2989 9.2634 13.7678 9.73224C14.2366 10.2011 14.5 10.837 14.5 11.5C14.5 12.163 14.2366 12.7989 13.7678 13.2678C13.2989 13.7366 12.663 14 12 14H11V16H9V14H6.5V12Z" fill="white"/>
</svg>
