<svg width="34" height="35" viewBox="0 0 34 35" fill="none" xmlns="http://www.w3.org/2000/svg">
<path opacity="0.4" d="M24.5479 3.86719C26.3706 3.86731 27.8708 5.30003 27.9629 7.11035L27.9678 7.28711C27.9537 9.12411 26.5157 10.6128 24.7041 10.6904C24.5948 10.6798 24.4853 10.6797 24.376 10.6904C22.5628 10.6121 21.128 9.12171 21.1279 7.28711C21.1279 5.40538 22.655 3.86719 24.5479 3.86719Z" fill="white" stroke="#F3F7F8" stroke-width="1.3"/>
<path opacity="0.4" d="M29.2798 21.1024C27.7025 22.1586 25.4914 22.553 23.4493 22.2854C23.9845 21.1305 24.2662 19.849 24.2802 18.497C24.2802 17.0886 23.9704 15.7507 23.3789 14.5818C25.4632 14.3001 27.6743 14.6945 29.2657 15.7507C31.4909 17.2154 31.4909 19.6236 29.2798 21.1024Z" fill="#F3F7F8"/>
<path opacity="0.4" d="M9.06987 11.3429C9.16845 11.3288 9.26704 11.3288 9.36563 11.3429C11.5485 11.2725 13.2808 9.48388 13.2808 7.28688C13.2808 5.04763 11.464 3.2168 9.21071 3.2168C6.97146 3.2168 5.14062 5.03355 5.14062 7.28688C5.15471 9.48388 6.88695 11.2725 9.06987 11.3429Z" fill="#F3F7F8"/>
<path opacity="0.4" d="M9.22453 18.497C9.22453 19.8631 9.52028 21.1587 10.0554 22.3277C8.06969 22.5389 5.99945 22.1164 4.47845 21.1165C2.25328 19.6377 2.25328 17.2295 4.47845 15.7507C5.98536 14.7367 8.11195 14.3283 10.1118 14.5537C9.53436 15.7367 9.22453 17.0746 9.22453 18.497Z" fill="#F3F7F8"/>
<path d="M17.0697 22.7502C16.9571 22.7361 16.8303 22.7361 16.7036 22.7502C14.1122 22.6657 12.042 20.5391 12.042 17.9196C12.042 15.2438 14.1967 13.075 16.8867 13.075C19.5625 13.075 21.7313 15.2438 21.7313 17.9196C21.7313 20.5391 19.6752 22.6657 17.0697 22.7502Z" fill="#F3F7F8"/>
<path d="M12.4914 25.6656C10.3648 27.088 10.3648 29.4259 12.4914 30.8342C14.9138 32.4538 18.8853 32.4538 21.3076 30.8342C23.4342 29.4118 23.4342 27.0739 21.3076 25.6656C18.8993 24.046 14.9278 24.046 12.4914 25.6656Z" fill="#F3F7F8"/>
</svg>
