<svg width="34" height="34" viewBox="0 0 34 34" fill="none" xmlns="http://www.w3.org/2000/svg">
<path opacity="0.4" d="M16.9005 2.81689C13.2107 2.81689 10.2109 5.81664 10.2109 9.50648C10.2109 13.1259 13.0417 16.0552 16.7315 16.182C16.8442 16.1679 16.9569 16.1679 17.0414 16.182C17.0695 16.182 17.0836 16.182 17.1118 16.182C17.1259 16.182 17.1259 16.182 17.1399 16.182C20.7453 16.0552 23.576 13.1259 23.5901 9.50648C23.5901 5.81664 20.5904 2.81689 16.9005 2.81689Z" fill="white"/>
<path d="M16.918 18.6135C19.4066 18.6136 21.8576 19.2452 23.6934 20.469C25.2303 21.4936 26.0474 22.8085 26.1533 24.179L26.165 24.4534C26.1632 25.928 25.3339 27.3496 23.6904 28.4583C21.8478 29.6949 19.3908 30.3332 16.9004 30.3333C14.4094 30.3333 11.9512 29.6954 10.1084 28.4583L10.1064 28.4563L9.80762 28.2473C8.3629 27.1831 7.63579 25.8469 7.63574 24.4768C7.63574 23.0153 8.46296 21.5789 10.1182 20.47C11.9691 19.2448 14.4294 18.6135 16.918 18.6135Z" fill="white" stroke="#F3F7F8" stroke-width="1.3"/>
</svg>
