<svg width="20" height="20" viewBox="0 0 20 20" fill="none" xmlns="http://www.w3.org/2000/svg">
<path d="M7.92571 3.52511L15.059 7.09178C18.259 8.69178 18.259 11.3084 15.059 12.9084L7.92571 16.4751C3.12571 18.8751 1.16737 16.9084 3.56737 12.1168L4.29237 10.6751C4.50071 10.2501 4.50071 9.75845 4.29237 9.33345L3.56737 7.88345C1.16737 3.09178 3.13404 1.12511 7.92571 3.52511Z" fill="white" fill-opacity="0.72"/>
<path d="M12.3662 10.625H7.86621C7.52454 10.625 7.24121 10.3417 7.24121 10C7.24121 9.65833 7.52454 9.375 7.86621 9.375H12.3662C12.7079 9.375 12.9912 9.65833 12.9912 10C12.9912 10.3417 12.7079 10.625 12.3662 10.625Z" fill="#F2FBF9"/>
</svg>
