<svg width="12" height="12" viewBox="0 0 12 12" fill="none" xmlns="http://www.w3.org/2000/svg">
<path d="M10.8865 5.10434H6.91621V1.134C6.91621 0.633131 6.50085 0.217773 5.99998 0.217773C5.49911 0.217773 5.08375 0.633131 5.08375 1.134V5.10434H1.11342C0.612547 5.10434 0.197189 5.51969 0.197189 6.02057C0.197189 6.52144 0.612547 6.9368 1.11342 6.9368H5.08375V10.9071C5.08375 11.408 5.49911 11.8234 5.99998 11.8234C6.50085 11.8234 6.91621 11.408 6.91621 10.9071V6.9368H10.8865C11.3874 6.9368 11.8028 6.52144 11.8028 6.02057C11.8028 5.51969 11.3874 5.10434 10.8865 5.10434Z" fill="white"/>
</svg>
