<svg width="34" height="34" viewBox="0 0 34 34" fill="none" xmlns="http://www.w3.org/2000/svg">
<path d="M29.9271 30.9831H3.8729C3.29548 30.9831 2.81665 30.5043 2.81665 29.9269C2.81665 29.3494 3.29548 28.8706 3.8729 28.8706H29.9271C30.5045 28.8706 30.9833 29.3494 30.9833 29.9269C30.9833 30.5043 30.5045 30.9831 29.9271 30.9831Z" fill="white"/>
<path opacity="0.4" d="M28.9976 19.2944L18.8153 29.4766C16.8155 31.4765 13.5904 31.4765 11.6047 29.4907L5.11224 22.9983L22.5192 5.59131L29.0117 12.0837C30.9974 14.0695 30.9974 17.2946 28.9976 19.2944Z" fill="white"/>
<path d="M22.5193 5.59092L5.09818 22.9979L3.8166 21.7163C1.83085 19.7306 1.83085 16.5055 3.83068 14.5057L14.0129 4.32342C16.0128 2.32358 19.2378 2.32358 21.2236 4.30933L22.5193 5.59092Z" fill="white"/>
<path d="M18.1534 24.7865L16.2522 26.6878C15.8578 27.0821 15.2241 27.0821 14.8297 26.6878C14.4354 26.2934 14.4354 25.6597 14.8297 25.2654L16.731 23.3641C17.1253 22.9698 17.7591 22.9698 18.1534 23.3641C18.5477 23.7584 18.5477 24.3922 18.1534 24.7865Z" fill="white"/>
<path d="M24.3219 18.6181L20.5335 22.4065C20.1391 22.8008 19.5054 22.8008 19.1111 22.4065C18.7167 22.0122 18.7167 21.3784 19.1111 20.9841L22.8995 17.1957C23.2938 16.8013 23.9276 16.8013 24.3219 17.1957C24.7021 17.59 24.7021 18.2237 24.3219 18.6181Z" fill="white"/>
</svg>
