<svg width="22" height="22" viewBox="0 0 22 22" fill="none" xmlns="http://www.w3.org/2000/svg">
<path opacity="0.4" d="M19.25 20.1665H2.75C2.37417 20.1665 2.0625 19.8548 2.0625 19.479C2.0625 19.1032 2.37417 18.7915 2.75 18.7915H19.25C19.6258 18.7915 19.9375 19.1032 19.9375 19.479C19.9375 19.8548 19.6258 20.1665 19.25 20.1665Z" fill="white"/>
<path opacity="0.4" d="M17.435 3.18986C15.6567 1.41153 13.915 1.36569 12.0908 3.18986L10.9817 4.29903C10.89 4.39069 10.8533 4.53736 10.89 4.66569C11.5867 7.09486 13.53 9.03819 15.9592 9.73486C15.9958 9.74403 16.0325 9.75319 16.0692 9.75319C16.17 9.75319 16.2617 9.71653 16.335 9.64319L17.435 8.53403C18.3425 7.63569 18.7825 6.76486 18.7825 5.88486C18.7917 4.97736 18.3517 4.09736 17.435 3.18986Z" fill="white"/>
<path d="M14.3092 10.5692C14.0433 10.4409 13.7867 10.3126 13.5392 10.1659C13.3375 10.0467 13.145 9.9184 12.9525 9.7809C12.7967 9.68007 12.6133 9.5334 12.4392 9.38673C12.4208 9.37756 12.3567 9.32257 12.2833 9.24923C11.9808 8.99257 11.6417 8.66257 11.3392 8.2959C11.3117 8.27757 11.2658 8.2134 11.2017 8.1309C11.11 8.0209 10.9542 7.83756 10.8167 7.62673C10.7067 7.48923 10.5783 7.28756 10.4592 7.0859C10.3125 6.8384 10.1842 6.5909 10.0558 6.33423C9.9275 6.05923 9.82666 5.7934 9.735 5.5459L3.97833 11.3026C3.85916 11.4217 3.74916 11.6509 3.72166 11.8067L3.22666 15.3176C3.135 15.9409 3.30916 16.5276 3.69416 16.9217C4.02416 17.2426 4.4825 17.4167 4.9775 17.4167C5.0875 17.4167 5.1975 17.4076 5.3075 17.3892L8.8275 16.8942C8.9925 16.8667 9.22166 16.7567 9.33166 16.6376L15.0883 10.8809C14.8317 10.7892 14.5842 10.6884 14.3092 10.5692Z" fill="white"/>
</svg>
