<svg width="93" height="39" viewBox="0 0 93 39" fill="none" xmlns="http://www.w3.org/2000/svg">
<g clip-path="url(#clip0_16592_43380)">
<path d="M9.57565 23.6579H9.56922L5.47263 19.5069L4.82309 20.165L0.166992 24.8895L4.91312 29.6986L10.2252 24.316L9.57565 23.6579Z" fill="white"/>
<path d="M23.814 10.5402L19.0679 5.7311L14.3218 0.921955V0.915439L13.46 0.0487499L8.71387 4.85789L9.5692 5.7311H9.57563L14.3218 10.5402L10.2252 14.6977L14.3218 18.8487L14.9713 19.5069L19.0679 15.3494L23.814 10.5402Z" fill="white"/>
<path d="M14.3218 20.165L10.2252 24.316L14.3154 28.467H14.3218L9.5757 33.2762L9.00977 33.8496L13.7559 38.6587L14.3218 38.0918L19.068 33.2762H19.0744L23.8141 28.467L14.9714 19.5069L14.3218 20.165Z" fill="white"/>
<path d="M9.57584 14.0396V14.0331L4.82328 9.22392L0.0771484 14.0331L4.82328 18.8422H4.82971L4.82328 18.8487L5.47282 19.5069L10.2254 14.6977L9.57584 14.0396Z" fill="white"/>
<path d="M38.4643 12.1563C39.0209 12.3219 39.5059 12.6733 39.8405 13.1533C40.2377 13.6976 40.4458 14.3598 40.4322 15.0366C40.4454 15.4754 40.3622 15.9118 40.1887 16.3141C40.0152 16.7164 39.7557 17.0747 39.429 17.363C38.7505 17.9769 37.8689 18.3096 36.9594 18.2948H30.6763V6.49353H36.5414C37.4417 6.46189 38.3231 6.76036 39.0238 7.33415C39.3493 7.60746 39.6085 7.95292 39.7814 8.34386C39.9542 8.7348 40.0361 9.16075 40.0206 9.58884C40.0441 10.1851 39.8919 10.7749 39.5833 11.2831C39.3228 11.6981 38.9268 12.0071 38.4643 12.1563ZM33.5767 8.76777V11.2831H35.9369C36.0936 11.2846 36.249 11.253 36.3929 11.1901C36.5369 11.1273 36.6663 11.0347 36.7729 10.9182C36.8853 10.7984 36.9732 10.6572 37.0317 10.5029C37.0902 10.3486 37.1181 10.1842 37.1138 10.0189C37.1186 9.8546 37.091 9.69095 37.0324 9.53762C36.9739 9.3843 36.8857 9.2444 36.7729 9.12617C36.666 9.01056 36.5364 8.91894 36.3924 8.85721C36.2484 8.79548 36.0932 8.76501 35.9369 8.76777H33.5767ZM36.3485 16.001C36.5058 16.0039 36.6619 15.9735 36.807 15.9118C36.952 15.8501 37.0828 15.7584 37.1909 15.6426C37.3038 15.5218 37.392 15.3796 37.4505 15.2242C37.5089 15.0687 37.5366 14.9031 37.5318 14.7368C37.5367 14.5725 37.509 14.4089 37.4505 14.2555C37.3919 14.1022 37.3037 13.9623 37.1909 13.8441C37.0839 13.7265 36.9535 13.6331 36.8083 13.5703C36.6631 13.5074 36.5064 13.4763 36.3485 13.4792H33.5767V16.001H36.3485Z" fill="white"/>
<path d="M46.4645 8.87203C47.1643 8.86557 47.8587 8.99612 48.5096 9.2565C49.1128 9.49487 49.6571 9.86409 50.1045 10.3382C50.5663 10.8353 50.9057 11.436 51.0949 12.0912C51.3232 12.848 51.4061 13.6421 51.3393 14.4306H44.2651C44.3882 14.9427 44.6727 15.4003 45.0754 15.7339C45.4639 16.0597 45.9539 16.2352 46.4581 16.2291C46.8956 16.2378 47.3256 16.1132 47.6925 15.8716C48.0594 15.6299 48.3463 15.2823 48.5161 14.8737L50.8312 16.0141C50.4114 16.7652 49.783 17.3747 49.0241 17.767C48.2317 18.1931 47.3487 18.4168 46.4517 18.4186C45.7952 18.4255 45.1425 18.3175 44.5224 18.0993C43.9394 17.8921 43.3989 17.5785 42.9275 17.174C42.4778 16.7598 42.1205 16.2533 41.8792 15.6882C41.6119 15.0526 41.4741 14.3688 41.4741 13.6779C41.4741 12.987 41.6119 12.3032 41.8792 11.6676C42.1294 11.0901 42.5028 10.5761 42.9725 10.1623C43.4423 9.75545 43.9833 9.44158 44.5674 9.23695C45.1739 9.00405 45.816 8.88054 46.4645 8.87203ZM47.8858 11.5242C47.4835 11.1925 46.9766 11.0189 46.4581 11.0355C45.9409 11.02 45.435 11.1909 45.0304 11.5177C44.633 11.8647 44.3632 12.3379 44.2651 12.8601H48.6575C48.5554 12.3397 48.2836 11.8692 47.8858 11.5242Z" fill="white"/>
<path d="M67.256 6.35668V18.2948H64.3878V12.1954L60.4584 15.5644L56.4776 12.1954V18.2948H53.5771V6.35668L60.4262 11.8566L67.256 6.35668Z" fill="white"/>
<path d="M68.6772 9.02191H71.3976V18.2948H68.6772V9.02191Z" fill="white"/>
<path d="M79.1791 18.2948V13.6486C79.2197 13.0149 79.0766 12.3829 78.7675 11.8305C78.6224 11.6258 78.4281 11.4621 78.2029 11.3549C77.9778 11.2477 77.7294 11.2006 77.4813 11.218C77.2024 11.2005 76.9234 11.2505 76.6674 11.3638C76.4113 11.4771 76.1855 11.6504 76.0086 11.8696C75.6405 12.3851 75.4588 13.0133 75.4941 13.6486V18.2948H72.748V9.02191H75.3205L75.4427 10.247C75.9572 9.3347 76.9282 8.87203 78.3688 8.87203C78.8822 8.82604 79.3988 8.91387 79.8693 9.12715C80.3398 9.34043 80.7486 9.67209 81.057 10.0906C81.6703 11.1687 81.9545 12.4069 81.8737 13.6486V18.2948H79.1791Z" fill="white"/>
<path d="M87.0192 8.87203C87.6594 8.85788 88.2952 8.98229 88.8842 9.23695C89.3667 9.43964 89.7724 9.79362 90.0418 10.247V5.68548H92.7686V18.2948H90.1962L90.0675 17.0632C89.8181 17.5288 89.4152 17.8909 88.9292 18.0863C88.3319 18.3338 87.69 18.4514 87.0449 18.4317C86.2883 18.4411 85.5442 18.2357 84.897 17.8387C84.2399 17.4316 83.7077 16.8472 83.3599 16.1509C82.9725 15.3854 82.7781 14.5347 82.794 13.6747C82.777 12.8124 82.9715 11.9593 83.3599 11.1919C83.7092 10.495 84.241 9.90886 84.897 9.49761C85.5336 9.09413 86.2683 8.87757 87.0192 8.87203ZM87.7652 16.0727C88.0651 16.0829 88.3638 16.0303 88.6426 15.9182C88.9215 15.8061 89.1745 15.6368 89.3858 15.4211C89.6031 15.1872 89.772 14.9116 89.8825 14.6105C89.9929 14.3095 90.0427 13.989 90.0289 13.6681C90.0438 13.3471 89.9945 13.0264 89.884 12.7251C89.7735 12.4239 89.6041 12.1484 89.3858 11.9152C88.9566 11.4886 88.3793 11.2496 87.7781 11.2496C87.1768 11.2496 86.5995 11.4886 86.1703 11.9152C85.9521 12.1484 85.7826 12.4239 85.6721 12.7251C85.5616 13.0264 85.5123 13.3471 85.5272 13.6681C85.5123 13.9892 85.5616 14.3099 85.6721 14.6111C85.7826 14.9124 85.9521 15.1879 86.1703 15.4211C86.3787 15.6336 86.6275 15.8009 86.9017 15.913C87.1758 16.025 87.4697 16.0793 87.7652 16.0727Z" fill="white"/>
<path d="M35.506 20.2498C36.7614 20.1662 37.9991 20.585 38.9531 21.4162C39.3608 21.8141 39.6806 22.2952 39.8913 22.8277C40.1019 23.3602 40.1986 23.9319 40.175 24.505C40.1993 25.0773 40.1029 25.6482 39.8922 26.1797C39.6815 26.7113 39.3613 27.1911 38.9531 27.5873C37.9977 28.416 36.7611 28.8345 35.506 28.7537H33.5767V32.012H30.6763V20.2498H35.506ZM35.1973 26.4143C35.7482 26.4373 36.2861 26.2408 36.6958 25.8669C36.8776 25.6905 37.0224 25.4786 37.1213 25.244C37.2202 25.0094 37.2712 24.7569 37.2712 24.5018C37.2712 24.2466 37.2202 23.9941 37.1213 23.7595C37.0224 23.5249 36.8776 23.313 36.6958 23.1366C36.2872 22.7551 35.746 22.5535 35.1909 22.5761H33.5703V26.4143H35.1973Z" fill="white"/>
<path d="M45.6541 32.1814C44.9973 32.186 44.3446 32.0758 43.7248 31.8556C43.1403 31.6519 42.5991 31.338 42.1299 30.9302C41.6586 30.5153 41.2851 29.9988 41.0366 29.4184C40.7658 28.7878 40.632 28.1055 40.6443 27.4179C40.6368 26.7272 40.7749 26.0429 41.0495 25.4108C41.2979 24.8305 41.6715 24.3139 42.1428 23.899C42.6153 23.496 43.1555 23.1826 43.7377 22.9736C44.9749 22.5392 46.3205 22.5392 47.5577 22.9736C48.1406 23.1809 48.6812 23.4945 49.1526 23.899C49.6216 24.3146 49.9929 24.8311 50.2395 25.4108C50.5163 26.0424 50.6566 26.7268 50.6511 27.4179C50.6573 28.1069 50.5169 28.7893 50.2395 29.4184C49.991 29.9988 49.6175 30.5153 49.1462 30.9302C48.6779 31.3393 48.1365 31.6534 47.5513 31.8556C46.9419 32.0731 46.3002 32.1833 45.6541 32.1814ZM44.0271 29.1773C44.2403 29.3923 44.4946 29.561 44.7743 29.673C45.0541 29.7851 45.3535 29.8381 45.6541 29.8289C45.9539 29.8388 46.2525 29.786 46.5313 29.6739C46.8101 29.5618 47.0632 29.3927 47.2748 29.1773C47.7019 28.6934 47.938 28.067 47.938 27.4179C47.938 26.7687 47.7019 26.1423 47.2748 25.6584C47.0632 25.443 46.8101 25.2739 46.5313 25.1618C46.2525 25.0497 45.9539 24.9969 45.6541 25.0068C45.3535 24.9976 45.0541 25.0507 44.7743 25.1627C44.4946 25.2747 44.2403 25.4434 44.0271 25.6584C43.6 26.1423 43.3638 26.7687 43.3638 27.4179C43.3638 28.067 43.6 28.6934 44.0271 29.1773Z" fill="white"/>
<path d="M64.3171 22.7977H67.2175L64.3878 32.038H60.6128L58.87 26.2253L57.1207 32.038H53.3264L50.5225 22.7977H53.455L55.3843 29.4966L57.4487 22.7977H60.407L62.4843 29.4966L64.3171 22.7977Z" fill="white"/>
<path d="M72.1051 22.6478C72.8044 22.6393 73.4988 22.7676 74.1502 23.0258C74.7509 23.2688 75.2943 23.6374 75.7451 24.1075C76.2068 24.6083 76.5479 25.2104 76.7419 25.8669C76.9682 26.6241 77.0489 27.4183 76.9798 28.2063H69.9057C70.0305 28.7178 70.3146 29.1748 70.716 29.5096C71.1034 29.844 71.5962 30.0266 72.1051 30.0244C72.5428 30.034 72.9731 29.9098 73.3402 29.6681C73.7072 29.4263 73.994 29.0782 74.163 28.669L76.4782 29.8159C76.059 30.562 75.4329 31.1669 74.6775 31.5558C73.8865 31.9854 73.0026 32.2093 72.1051 32.2075C71.4483 32.2116 70.7957 32.1013 70.1758 31.8816C69.5912 31.678 69.0501 31.364 68.5809 30.9563C68.1112 30.5425 67.7378 30.0284 67.4876 29.451C67.2118 28.8192 67.0736 28.1347 67.0824 27.4439C67.0743 26.7511 67.2125 26.0646 67.4876 25.4303C67.7378 24.8529 68.1112 24.3388 68.5809 23.925C69.0514 23.5128 69.5917 23.1905 70.1758 22.9736C70.7957 22.7539 71.4483 22.6437 72.1051 22.6478ZM73.5264 25.2935C73.1172 24.9769 72.6167 24.8055 72.1019 24.8055C71.5871 24.8055 71.0866 24.9769 70.6774 25.2935C70.2842 25.6278 70.0145 26.0872 69.9121 26.5968H74.2981C74.1842 26.0856 73.9059 25.6271 73.5071 25.2935H73.5264Z" fill="white"/>
<path d="M78.2529 22.7977H80.8254L80.9475 23.8859C81.2408 23.4549 81.6554 23.1234 82.1373 22.9345C82.7236 22.7263 83.3427 22.6291 83.9637 22.6478V24.9872C83.1614 24.9323 82.3654 25.1627 81.7128 25.6389C81.4644 25.859 81.2686 26.1337 81.1405 26.4419C81.0123 26.7501 80.9552 27.0839 80.9733 27.4179V32.038H78.2529V22.7977Z" fill="white"/>
<path d="M70.0407 7.94669C69.6182 7.94498 69.2136 7.77416 68.9148 7.47146C68.6161 7.16876 68.4475 6.7587 68.4458 6.33061C68.4449 6.01162 68.5376 5.69955 68.7121 5.43403C68.8866 5.16851 69.135 4.96151 69.4258 4.83932C69.7166 4.71712 70.0367 4.68524 70.3454 4.74772C70.6541 4.8102 70.9376 4.96422 71.1597 5.19023C71.4558 5.49394 71.6219 5.90368 71.6219 6.33061C71.6219 6.75755 71.4558 7.16728 71.1597 7.47099C71.0155 7.62401 70.8417 7.74524 70.6492 7.8271C70.4566 7.90895 70.2495 7.94966 70.0407 7.94669Z" fill="white"/>
</g>
<defs>
<clipPath id="clip0_16592_43380">
<rect width="92.691" height="38.61" fill="white" transform="translate(0.0771484 0.0487499)"/>
</clipPath>
</defs>
</svg>
