<svg width="147" height="39" viewBox="0 0 147 39" fill="none" xmlns="http://www.w3.org/2000/svg">
<g clip-path="url(#clip0_16587_35725)">
<path d="M16.576 23.6581H16.5695L12.4729 19.5071L11.8234 20.1652L7.1673 24.8897L11.9134 29.6988L17.2255 24.3162L16.576 23.6581Z" fill="white"/>
<path d="M30.8143 10.5403L26.0682 5.73118L21.3221 0.922033V0.915517L20.4603 0.0488281L15.7142 4.85797L16.5695 5.73118H16.5759L21.3221 10.5403L17.2255 14.6978L21.3221 18.8488L21.9716 19.507L26.0682 15.3495L30.8143 10.5403Z" fill="white"/>
<path d="M21.3221 20.1652L17.2255 24.3162L21.3156 28.4672H21.3221L16.5759 33.2764L16.01 33.8498L20.7561 38.6589L21.3221 38.092L26.0682 33.2764H26.0746L30.8143 28.4672L21.9716 19.5071L21.3221 20.1652Z" fill="white"/>
<path d="M16.576 14.0395V14.033L11.8234 9.22388L7.07727 14.033L11.8234 18.8422H11.8298L11.8234 18.8487L12.4729 19.5068L17.2255 14.6977L16.576 14.0395Z" fill="white"/>
<path d="M45.4644 12.1563C46.0209 12.3219 46.5059 12.6732 46.8406 13.1533C47.2378 13.6976 47.4458 14.3598 47.4323 15.0366C47.4455 15.4754 47.3623 15.9117 47.1888 16.3141C47.0153 16.7164 46.7558 17.0746 46.429 17.3629C45.7506 17.9768 44.869 18.3095 43.9595 18.2948H37.6763V6.49349H43.5415C44.4418 6.46186 45.3232 6.76032 46.0239 7.33411C46.3494 7.60743 46.6086 7.95289 46.7814 8.34383C46.9543 8.73476 47.0361 9.16072 47.0207 9.58881C47.0442 10.185 46.892 10.7749 46.5834 11.2831C46.3229 11.698 45.9268 12.0071 45.4644 12.1563ZM40.5767 8.76773V11.2831H42.9369C43.0937 11.2846 43.249 11.2529 43.393 11.1901C43.537 11.1273 43.6664 11.0346 43.773 10.9182C43.8853 10.7983 43.9733 10.6572 44.0317 10.5029C44.0902 10.3486 44.1181 10.1841 44.1138 10.0189C44.1187 9.85457 44.091 9.69092 44.0325 9.53759C43.974 9.38426 43.8857 9.24436 43.773 9.12614C43.6661 9.01053 43.5364 8.91891 43.3924 8.85717C43.2484 8.79544 43.0933 8.76497 42.9369 8.76773H40.5767ZM43.3485 16.001C43.5058 16.0039 43.662 15.9735 43.807 15.9118C43.9521 15.8501 44.0829 15.7584 44.191 15.6426C44.3038 15.5218 44.392 15.3796 44.4505 15.2241C44.509 15.0687 44.5366 14.9031 44.5319 14.7368C44.5367 14.5725 44.5091 14.4088 44.4505 14.2555C44.392 14.1022 44.3037 13.9623 44.191 13.8441C44.0839 13.7264 43.9535 13.6331 43.8083 13.5702C43.6631 13.5073 43.5064 13.4763 43.3485 13.4791H40.5767V16.001H43.3485Z" fill="white"/>
<path d="M53.4646 8.87205C54.1644 8.86559 54.8588 8.99614 55.5097 9.25653C56.1128 9.4949 56.6572 9.86411 57.1046 10.3383C57.5664 10.8354 57.9057 11.436 58.095 12.0912C58.3233 12.848 58.4062 13.6421 58.3394 14.4306H51.2652C51.3883 14.9427 51.6727 15.4003 52.0755 15.7339C52.4639 16.0597 52.9539 16.2352 53.4582 16.2291C53.8957 16.2378 54.3257 16.1133 54.6925 15.8716C55.0594 15.63 55.3463 15.2824 55.5161 14.8737L57.8313 16.0141C57.4114 16.7652 56.783 17.3747 56.0242 17.767C55.2318 18.1931 54.3488 18.4168 53.4517 18.4187C52.7953 18.4255 52.1426 18.3175 51.5224 18.0994C50.9395 17.8921 50.399 17.5785 49.9275 17.174C49.4779 16.7599 49.1205 16.2534 48.8792 15.6883C48.612 15.0526 48.4742 14.3689 48.4742 13.6779C48.4742 12.987 48.612 12.3032 48.8792 11.6676C49.1295 11.0902 49.5028 10.5761 49.9725 10.1623C50.4423 9.75548 50.9834 9.4416 51.5674 9.23698C52.174 9.00407 52.816 8.88056 53.4646 8.87205ZM54.8859 11.5243C54.4835 11.1925 53.9766 11.019 53.4582 11.0355C52.941 11.02 52.4351 11.1909 52.0305 11.5177C51.633 11.8647 51.3633 12.3379 51.2652 12.8601H55.6576C55.5555 12.3397 55.2837 11.8692 54.8859 11.5243Z" fill="white"/>
<path d="M74.2562 6.35669V18.2948H71.388V12.1954L67.4586 15.5644L63.4777 12.1954V18.2948H60.5773V6.35669L67.4264 11.8566L74.2562 6.35669Z" fill="white"/>
<path d="M75.6775 9.02197H78.3978V18.2949H75.6775V9.02197Z" fill="white"/>
<path d="M86.1794 18.2948V13.6486C86.22 13.0148 86.077 12.3829 85.7678 11.8305C85.6227 11.6258 85.4284 11.4621 85.2033 11.3549C84.9782 11.2477 84.7298 11.2005 84.4816 11.2179C84.2027 11.2005 83.9237 11.2504 83.6677 11.3637C83.4116 11.477 83.1858 11.6504 83.0089 11.8696C82.6408 12.3851 82.4591 13.0133 82.4944 13.6486V18.2948H79.7484V9.02188H82.3208L82.443 10.247C82.9575 9.33467 83.9285 8.872 85.3691 8.872C85.8825 8.82602 86.3991 8.91384 86.8696 9.12712C87.3401 9.34041 87.7489 9.67207 88.0573 10.0906C88.6706 11.1687 88.9549 12.4068 88.874 13.6486V18.2948H86.1794Z" fill="white"/>
<path d="M94.0189 8.87209C94.6591 8.85794 95.2949 8.98235 95.8839 9.23702C96.3664 9.4397 96.7721 9.79369 97.0415 10.2471V5.68555H99.7683V18.2949H97.1959L97.0672 17.0633C96.8178 17.5289 96.4149 17.891 95.9289 18.0864C95.3316 18.3338 94.6897 18.4515 94.0446 18.4317C93.288 18.4412 92.5439 18.2358 91.8966 17.8387C91.2396 17.4316 90.7074 16.8472 90.3596 16.151C89.9722 15.3855 89.7778 14.5348 89.7937 13.6747C89.7767 12.8124 89.9712 11.9594 90.3596 11.192C90.7089 10.4951 91.2407 9.90893 91.8966 9.49767C92.5333 9.09419 93.268 8.87763 94.0189 8.87209ZM94.7649 16.0728C95.0648 16.083 95.3635 16.0304 95.6423 15.9183C95.9212 15.8061 96.1742 15.6369 96.3855 15.4211C96.6028 15.1873 96.7717 14.9117 96.8822 14.6106C96.9926 14.3095 97.0424 13.9891 97.0286 13.6682C97.0435 13.3472 96.9942 13.0264 96.8837 12.7252C96.7732 12.424 96.6037 12.1485 96.3855 11.9153C95.9563 11.4886 95.379 11.2496 94.7778 11.2496C94.1765 11.2496 93.5992 11.4886 93.17 11.9153C92.9518 12.1485 92.7823 12.424 92.6718 12.7252C92.5613 13.0264 92.512 13.3472 92.5269 13.6682C92.512 13.9892 92.5613 14.31 92.6718 14.6112C92.7823 14.9124 92.9518 15.1879 93.17 15.4211C93.3783 15.6336 93.6272 15.801 93.9014 15.913C94.1755 16.0251 94.4693 16.0794 94.7649 16.0728Z" fill="white"/>
<path d="M42.5061 20.2497C43.7615 20.1662 44.9992 20.585 45.9531 21.4162C46.3609 21.8141 46.6807 22.2952 46.8913 22.8277C47.102 23.3601 47.1987 23.9318 47.175 24.505C47.1994 25.0772 47.103 25.6482 46.8923 26.1797C46.6816 26.7112 46.3614 27.1911 45.9531 27.5873C44.9978 28.416 43.7611 28.8345 42.5061 28.7537H40.5767V32.0119H37.6763V20.2497H42.5061ZM42.1974 26.4143C42.7483 26.4373 43.2861 26.2408 43.6958 25.8669C43.8777 25.6905 44.0225 25.4786 44.1214 25.244C44.2203 25.0093 44.2712 24.7569 44.2712 24.5017C44.2712 24.2466 44.2203 23.9941 44.1214 23.7595C44.0225 23.5248 43.8777 23.3129 43.6958 23.1365C43.2873 22.7551 42.746 22.5535 42.1909 22.5761H40.5703V26.4143H42.1974Z" fill="white"/>
<path d="M52.6543 32.1816C51.9974 32.1862 51.3448 32.076 50.7249 31.8557C50.1404 31.6521 49.5992 31.3381 49.13 30.9304C48.6588 30.5155 48.2852 29.9989 48.0367 29.4186C47.7659 28.7879 47.6321 28.1057 47.6445 27.418C47.6369 26.7274 47.775 26.0431 48.0496 25.411C48.2981 24.8306 48.6716 24.314 49.1429 23.8991C49.6154 23.4962 50.1557 23.1828 50.7378 22.9738C51.9751 22.5393 53.3206 22.5393 54.5579 22.9738C55.1408 23.181 55.6813 23.4947 56.1528 23.8991C56.6217 24.3147 56.993 24.8313 57.2396 25.411C57.5164 26.0426 57.6568 26.7269 57.6512 27.418C57.6574 28.1071 57.517 28.7894 57.2396 29.4186C56.9912 29.9989 56.6176 30.5155 56.1463 30.9304C55.678 31.3394 55.1366 31.6536 54.5514 31.8557C53.942 32.0733 53.3004 32.1835 52.6543 32.1816ZM51.0272 29.1775C51.2404 29.3925 51.4947 29.5611 51.7745 29.6732C52.0542 29.7852 52.3536 29.8383 52.6543 29.8291C52.9541 29.8389 53.2526 29.7862 53.5314 29.6741C53.8103 29.5619 54.0633 29.3929 54.2749 29.1775C54.702 28.6936 54.9381 28.0672 54.9381 27.418C54.9381 26.7689 54.702 26.1425 54.2749 25.6586C54.0633 25.4431 53.8103 25.2741 53.5314 25.162C53.2526 25.0499 52.9541 24.9971 52.6543 25.0069C52.3536 24.9978 52.0542 25.0508 51.7745 25.1629C51.4947 25.2749 51.2404 25.4436 51.0272 25.6586C50.6001 26.1425 50.364 26.7689 50.364 27.418C50.364 28.0672 50.6001 28.6936 51.0272 29.1775Z" fill="white"/>
<path d="M71.3172 22.7979H74.2176L71.388 32.0382H67.6129L65.8701 26.2255L64.1209 32.0382H60.3265L57.5226 22.7979H60.4551L62.3845 29.4968L64.4488 22.7979H67.4071L69.4844 29.4968L71.3172 22.7979Z" fill="white"/>
<path d="M79.1053 22.6479C79.8046 22.6393 80.499 22.7677 81.1504 23.0258C81.7511 23.2689 82.2945 23.6375 82.7453 24.1075C83.207 24.6083 83.5481 25.2105 83.7421 25.867C83.9683 26.6242 84.0491 27.4183 83.98 28.2064H76.9058C77.0307 28.7178 77.3148 29.1748 77.7162 29.5097C78.1036 29.844 78.5964 30.0266 79.1053 30.0245C79.5429 30.034 79.9733 29.9099 80.3404 29.6681C80.7074 29.4264 80.9941 29.0782 81.1632 28.6691L83.4784 29.816C83.0592 30.562 82.4331 31.167 81.6777 31.5559C80.8867 31.9855 80.0028 32.2094 79.1053 32.2075C78.4485 32.2116 77.7959 32.1014 77.176 31.8817C76.5914 31.6781 76.0502 31.3641 75.581 30.9563C75.1113 30.5426 74.738 30.0285 74.4878 29.451C74.212 28.8193 74.0738 28.1347 74.0826 27.444C74.0745 26.7512 74.2126 26.0647 74.4878 25.4304C74.738 24.8529 75.1113 24.3389 75.581 23.9251C76.0516 23.5129 76.5919 23.1905 77.176 22.9737C77.7959 22.754 78.4485 22.6438 79.1053 22.6479ZM80.5265 25.2935C80.1174 24.977 79.6169 24.8055 79.1021 24.8055C78.5873 24.8055 78.0867 24.977 77.6776 25.2935C77.2844 25.6278 77.0146 26.0872 76.9123 26.5968H81.2983C81.1844 26.0856 80.9061 25.6272 80.5072 25.2935H80.5265Z" fill="white"/>
<path d="M85.2534 22.7979H87.8258L87.948 23.8861C88.2413 23.4551 88.6558 23.1236 89.1377 22.9347C89.724 22.7265 90.3431 22.6293 90.9641 22.648V24.9874C90.1619 24.9325 89.3658 25.1629 88.7133 25.6391C88.4648 25.8592 88.269 26.1339 88.1409 26.4421C88.0128 26.7503 87.9556 27.0841 87.9737 27.4181V32.0382H85.2534V22.7979Z" fill="white"/>
<path d="M77.0409 7.9467C76.6184 7.94499 76.2137 7.77417 75.915 7.47147C75.6163 7.16876 75.4477 6.7587 75.446 6.33062C75.4451 6.01162 75.5378 5.69956 75.7123 5.43404C75.8868 5.16852 76.1352 4.96152 76.426 4.83933C76.7168 4.71713 77.0369 4.68525 77.3456 4.74773C77.6543 4.81021 77.9377 4.96423 78.1599 5.19024C78.456 5.49395 78.6221 5.90369 78.6221 6.33062C78.6221 6.75756 78.456 7.16729 78.1599 7.471C78.0157 7.62402 77.8419 7.74525 77.6494 7.8271C77.4568 7.90895 77.2497 7.94967 77.0409 7.9467Z" fill="white"/>
</g>
<defs>
<clipPath id="clip0_16587_35725">
<rect width="92.691" height="38.61" fill="white" transform="translate(7.07727 0.0488281)"/>
</clipPath>
</defs>
</svg>
