<svg width="284" height="119" viewBox="0 0 284 119" fill="none" xmlns="http://www.w3.org/2000/svg">
<g clip-path="url(#clip0_13145_10629)">
<path d="M29.3361 72.632H29.3165L16.7906 59.9673L14.8045 61.9754L0.567871 76.3897L15.0798 91.0625L31.3222 74.6401L29.3361 72.632Z" fill="#1929FF"/>
<path d="M72.8719 32.6099L58.36 17.9371L43.8481 3.26427V3.24438L41.2131 0.600098L26.7012 15.2729L29.3165 17.9371H29.3361L43.8481 32.6099L31.3222 45.2945L43.8481 57.9593L45.8341 59.9673L58.36 47.2827L72.8719 32.6099Z" fill="#1929FF"/>
<path d="M43.8478 61.9754L31.3219 74.6401L43.8282 87.3048H43.8478L29.3359 101.978L27.6055 103.727L42.1174 118.4L43.8478 116.67L58.3598 101.978H58.3794L72.8717 87.3048L45.8339 59.9673L43.8478 61.9754Z" fill="#1929FF"/>
<path d="M29.336 43.2864V43.2666L14.8044 28.5938L0.29248 43.2666L14.8044 57.9394H14.8241L14.8044 57.9593L16.7905 59.9673L31.3221 45.2945L29.336 43.2864Z" fill="#1929FF"/>
<path d="M117.666 37.5406C119.368 38.0459 120.851 39.1179 121.874 40.5826C123.088 42.2431 123.725 44.2636 123.683 46.3284C123.723 47.6673 123.469 48.9986 122.939 50.2261C122.408 51.4536 121.615 52.5466 120.616 53.4262C118.541 55.2993 115.845 56.3143 113.065 56.2693H93.853V20.2633H111.786C114.539 20.1668 117.234 21.0774 119.377 22.8281C120.372 23.6619 121.165 24.716 121.693 25.9087C122.222 27.1015 122.472 28.4011 122.425 29.7072C122.497 31.5263 122.031 33.3259 121.087 34.8765C120.291 36.1425 119.08 37.0854 117.666 37.5406ZM102.721 27.2021V34.8765H109.938C110.417 34.8811 110.892 34.7845 111.333 34.5928C111.773 34.401 112.168 34.1184 112.494 33.7631C112.838 33.3974 113.107 32.9669 113.286 32.4961C113.464 32.0253 113.55 31.5235 113.537 31.0194C113.551 30.518 113.467 30.0187 113.288 29.5509C113.109 29.0831 112.839 28.6563 112.494 28.2956C112.167 27.9428 111.771 27.6633 111.331 27.475C110.891 27.2866 110.416 27.1937 109.938 27.2021H102.721ZM111.197 49.2709C111.678 49.2797 112.155 49.187 112.599 48.9987C113.042 48.8104 113.442 48.5307 113.773 48.1774C114.118 47.8088 114.387 47.3749 114.566 46.9007C114.745 46.4264 114.829 45.9212 114.815 45.4139C114.83 44.9125 114.745 44.4132 114.566 43.9454C114.387 43.4776 114.117 43.0507 113.773 42.69C113.445 42.3312 113.046 42.0465 112.602 41.8546C112.158 41.6627 111.679 41.568 111.197 41.5767H102.721V49.2709H111.197Z" fill="white"/>
<path d="M142.128 27.5202C144.268 27.5005 146.391 27.8988 148.381 28.6933C150.225 29.4205 151.89 30.547 153.258 31.9936C154.67 33.5103 155.707 35.3428 156.286 37.3419C156.984 39.6509 157.238 42.0738 157.033 44.4795H135.403C135.779 46.042 136.649 47.438 137.881 48.4558C139.068 49.4499 140.567 49.9854 142.108 49.9668C143.446 49.9933 144.761 49.6133 145.883 48.876C147.004 48.1388 147.882 47.0782 148.401 45.8314L155.48 49.3107C154.196 51.6024 152.275 53.4621 149.954 54.659C147.531 55.959 144.832 56.6415 142.089 56.6471C140.082 56.668 138.086 56.3385 136.19 55.6729C134.407 55.0407 132.754 54.0838 131.313 52.8497C129.938 51.5861 128.845 50.0407 128.108 48.3167C127.29 46.3774 126.869 44.2911 126.869 42.1831C126.869 40.0751 127.29 37.9888 128.108 36.0495C128.873 34.2877 130.014 32.7192 131.451 31.4568C132.887 30.2156 134.541 29.2579 136.327 28.6336C138.182 27.923 140.145 27.5462 142.128 27.5202ZM146.474 35.6121C145.244 34.6 143.694 34.0705 142.108 34.121C140.527 34.0737 138.98 34.595 137.743 35.5923C136.528 36.6509 135.703 38.0946 135.403 39.6879H148.833C148.521 38.1002 147.69 36.6647 146.474 35.6121Z" fill="white"/>
<path d="M205.702 19.8457V56.2693H196.931V37.6598L184.917 47.9388L172.745 37.6598V56.2693H163.876V19.8457L184.818 36.626L205.702 19.8457Z" fill="white"/>
<path d="M210.047 27.9775H218.365V56.2694H210.047V27.9775Z" fill="white"/>
<path d="M242.158 56.2693V42.0936C242.282 40.1601 241.845 38.232 240.9 36.5465C240.456 35.9221 239.862 35.4226 239.173 35.0956C238.485 34.7685 237.725 34.6246 236.967 34.6776C236.114 34.6243 235.261 34.7768 234.478 35.1225C233.695 35.4682 233.005 35.9972 232.464 36.6658C231.338 38.2387 230.783 40.1553 230.891 42.0936V56.2693H222.494V27.9775H230.36L230.733 31.7153C232.306 28.9318 235.276 27.5202 239.68 27.5202C241.25 27.3799 242.83 27.6478 244.268 28.2986C245.707 28.9493 246.957 29.9612 247.9 31.2381C249.775 34.5275 250.644 38.305 250.397 42.0936V56.2693H242.158Z" fill="white"/>
<path d="M266.128 27.5201C268.086 27.4769 270.03 27.8565 271.831 28.6335C273.306 29.2519 274.547 30.3319 275.37 31.7151V17.7979H283.708V56.2692H275.842L275.449 52.5116C274.686 53.9322 273.455 55.0369 271.969 55.633C270.142 56.388 268.179 56.747 266.207 56.6868C263.894 56.7156 261.618 56.0888 259.639 54.8775C257.63 53.6354 256.003 51.8524 254.94 49.7281C253.755 47.3927 253.161 44.7972 253.209 42.173C253.157 39.5422 253.752 36.9394 254.94 34.598C256.008 32.4718 257.634 30.6835 259.639 29.4287C261.586 28.1977 263.832 27.537 266.128 27.5201ZM268.409 49.4895C269.326 49.5207 270.24 49.3602 271.092 49.0181C271.945 48.676 272.718 48.1596 273.365 47.5013C274.029 46.7879 274.545 45.947 274.883 45.0284C275.221 44.1099 275.373 43.1322 275.331 42.1531C275.377 41.1737 275.226 40.1951 274.888 39.276C274.55 38.357 274.032 37.5164 273.365 36.8049C272.052 35.5032 270.287 34.774 268.449 34.774C266.61 34.774 264.845 35.5032 263.533 36.8049C262.865 37.5164 262.347 38.357 262.009 39.276C261.672 40.1951 261.521 41.1737 261.566 42.1531C261.521 43.1325 261.672 44.1112 262.009 45.0302C262.347 45.9493 262.865 46.7898 263.533 47.5013C264.17 48.1497 264.931 48.6603 265.769 49.0021C266.607 49.3439 267.506 49.5098 268.409 49.4895Z" fill="white"/>
<path d="M108.621 62.2336C112.459 61.9787 116.244 63.2565 119.16 65.7925C120.407 67.0065 121.385 68.4744 122.029 70.0989C122.673 71.7235 122.969 73.4678 122.897 75.2165C122.971 76.9625 122.676 78.7045 122.032 80.3261C121.388 81.9478 120.409 83.4119 119.16 84.6206C116.239 87.1491 112.458 88.4258 108.621 88.1794H102.721V98.1204H93.853V62.2336H108.621ZM107.677 81.0419C109.361 81.112 111.006 80.5125 112.258 79.3718C112.815 78.8335 113.257 78.187 113.56 77.4711C113.862 76.7553 114.018 75.9849 114.018 75.2065C114.018 74.4281 113.862 73.6578 113.56 72.9419C113.257 72.2261 112.815 71.5795 112.258 71.0413C111.009 69.8775 109.354 69.2625 107.657 69.3314H102.702V81.0419H107.677Z" fill="white"/>
<path d="M139.65 98.6376C137.642 98.6517 135.646 98.3154 133.751 97.6435C131.964 97.0222 130.309 96.0642 128.874 94.8202C127.433 93.5544 126.291 91.9783 125.531 90.2076C124.703 88.2836 124.294 86.2019 124.332 84.1039C124.309 81.9968 124.731 79.909 125.571 77.9803C126.33 76.2097 127.473 74.6336 128.914 73.3677C130.358 72.1383 132.01 71.182 133.79 70.5445C137.573 69.2189 141.688 69.2189 145.471 70.5445C147.253 71.1768 148.906 72.1336 150.347 73.3677C151.781 74.6357 152.917 76.2116 153.67 77.9803C154.517 79.9075 154.946 81.9953 154.929 84.1039C154.948 86.2063 154.519 88.2881 153.67 90.2076C152.911 91.9783 151.769 93.5544 150.328 94.8202C148.896 96.0682 147.24 97.0267 145.451 97.6435C143.588 98.3072 141.626 98.6434 139.65 98.6376ZM134.675 89.472C135.327 90.128 136.105 90.6426 136.96 90.9845C137.815 91.3263 138.731 91.4882 139.65 91.4602C140.567 91.4902 141.48 91.3291 142.332 90.9871C143.185 90.6451 143.958 90.1293 144.605 89.472C145.911 87.9957 146.633 86.0846 146.633 84.1039C146.633 82.1233 145.911 80.2121 144.605 78.7358C143.958 78.0785 143.185 77.5628 142.332 77.2207C141.48 76.8787 140.567 76.7176 139.65 76.7476C138.731 76.7196 137.815 76.8815 136.96 77.2234C136.105 77.5652 135.327 78.0798 134.675 78.7358C133.369 80.2121 132.647 82.1233 132.647 84.1039C132.647 86.0846 133.369 87.9957 134.675 89.472Z" fill="white"/>
<path d="M196.715 70.0078H205.584L196.931 98.2003H185.389L180.06 80.4657L174.711 98.2003H163.11L154.536 70.0078H163.503L169.402 90.4464L175.714 70.0078H184.759L191.111 90.4464L196.715 70.0078Z" fill="white"/>
<path d="M220.528 69.5505C222.666 69.5245 224.789 69.916 226.781 70.7037C228.618 71.4453 230.279 72.5698 231.657 74.0041C233.069 75.5319 234.112 77.3691 234.705 79.3722C235.397 81.6824 235.644 84.1054 235.433 86.5098H213.803C214.184 88.0701 215.053 89.4644 216.28 90.4861C217.465 91.5062 218.972 92.0634 220.528 92.0568C221.866 92.0859 223.182 91.7071 224.304 90.9695C225.426 90.2319 226.303 89.1698 226.82 87.9214L233.899 91.4206C232.617 93.6968 230.703 95.5426 228.393 96.729C225.975 98.0398 223.272 98.723 220.528 98.7172C218.519 98.7297 216.524 98.3935 214.628 97.7231C212.841 97.1019 211.186 96.1439 209.752 94.8999C208.316 93.6375 207.174 92.069 206.409 90.3072C205.566 88.3796 205.143 86.2911 205.17 84.1836C205.145 82.0699 205.568 79.9753 206.409 78.0401C207.174 76.2783 208.316 74.7098 209.752 73.4474C211.19 72.1897 212.843 71.2062 214.628 70.5446C216.524 69.8743 218.519 69.538 220.528 69.5505ZM224.873 77.6226C223.622 76.6568 222.092 76.1336 220.518 76.1336C218.944 76.1336 217.413 76.6568 216.162 77.6226C214.96 78.6425 214.135 80.0442 213.822 81.5989H227.233C226.885 80.0392 226.034 78.6405 224.814 77.6226H224.873Z" fill="white"/>
<path d="M239.327 70.0076H247.192L247.566 73.3279C248.463 72.0129 249.73 71.0014 251.204 70.4252C252.996 69.7899 254.889 69.4934 256.788 69.5504V76.6879C254.335 76.5203 251.901 77.2235 249.906 78.6761C249.146 79.3479 248.548 80.1857 248.156 81.1262C247.764 82.0666 247.589 83.0849 247.644 84.1039V98.2001H239.327V70.0076Z" fill="white"/>
<path d="M214.216 24.6971C212.924 24.6918 211.686 24.1707 210.773 23.2471C209.86 22.3235 209.344 21.0724 209.339 19.7664C209.336 18.7931 209.62 17.841 210.153 17.0309C210.687 16.2208 211.446 15.5892 212.335 15.2164C213.225 14.8436 214.203 14.7463 215.147 14.9369C216.091 15.1275 216.958 15.5975 217.637 16.287C218.542 17.2137 219.05 18.4638 219.05 19.7664C219.05 21.0689 218.542 22.319 217.637 23.2457C217.196 23.7126 216.665 24.0824 216.076 24.3322C215.487 24.5819 214.854 24.7061 214.216 24.6971Z" fill="#1929FF"/>
</g>
<defs>
<clipPath id="clip0_13145_10629">
<rect width="283.415" height="117.8" fill="white" transform="translate(0.29248 0.600098)"/>
</clipPath>
</defs>
</svg>
