<svg width="34" height="34" viewBox="0 0 34 34" fill="none" xmlns="http://www.w3.org/2000/svg">
<path opacity="0.4" d="M2.81669 13.7311C2.23927 13.7311 1.76044 13.2523 1.76044 12.6748V9.154C1.76044 5.06984 5.0841 1.76025 9.15419 1.76025H12.675C13.2524 1.76025 13.7313 2.23909 13.7313 2.8165C13.7313 3.39392 13.2524 3.87275 12.675 3.87275H9.15419C6.23894 3.87275 3.87294 6.23875 3.87294 9.154V12.6748C3.87294 13.2523 3.3941 13.7311 2.81669 13.7311Z" fill="white"/>
<path d="M30.9833 13.7311C30.4059 13.7311 29.9271 13.2523 29.9271 12.6748V9.154C29.9271 6.23875 27.5611 3.87275 24.6458 3.87275H21.125C20.5476 3.87275 20.0687 3.39392 20.0687 2.8165C20.0687 2.23909 20.5476 1.76025 21.125 1.76025H24.6458C28.7159 1.76025 32.0396 5.06984 32.0396 9.154V12.6748C32.0396 13.2523 31.5607 13.7311 30.9833 13.7311Z" fill="white"/>
<path opacity="0.4" d="M24.6459 32.0396H22.5334C21.9559 32.0396 21.4771 31.5607 21.4771 30.9833C21.4771 30.4059 21.9559 29.9271 22.5334 29.9271H24.6459C27.5611 29.9271 29.9271 27.5611 29.9271 24.6458V22.5333C29.9271 21.9559 30.4059 21.4771 30.9834 21.4771C31.5608 21.4771 32.0396 21.9559 32.0396 22.5333V24.6458C32.0396 28.73 28.7159 32.0396 24.6459 32.0396Z" fill="white"/>
<path d="M12.675 32.0397H9.15419C5.0841 32.0397 1.76044 28.7301 1.76044 24.6459V21.1251C1.76044 20.5477 2.23927 20.0688 2.81669 20.0688C3.3941 20.0688 3.87294 20.5477 3.87294 21.1251V24.6459C3.87294 27.5612 6.23894 29.9272 9.15419 29.9272H12.675C13.2524 29.9272 13.7313 30.406 13.7313 30.9834C13.7313 31.5608 13.2524 32.0397 12.675 32.0397Z" fill="white"/>
<path d="M12.675 7.39355H9.85832C8.25282 7.39355 7.39374 8.23855 7.39374 9.85814V12.6748C7.39374 14.2944 8.25282 15.1394 9.85832 15.1394H12.675C14.2805 15.1394 15.1396 14.2944 15.1396 12.6748V9.85814C15.1396 8.23855 14.2805 7.39355 12.675 7.39355Z" fill="white"/>
<path opacity="0.4" d="M23.9417 7.39355H21.125C19.5195 7.39355 18.6604 8.23855 18.6604 9.85814V12.6748C18.6604 14.2944 19.5195 15.1394 21.125 15.1394H23.9417C25.5472 15.1394 26.4062 14.2944 26.4062 12.6748V9.85814C26.4062 8.23855 25.5472 7.39355 23.9417 7.39355Z" fill="white"/>
<path opacity="0.4" d="M12.675 18.6606H9.85832C8.25282 18.6606 7.39374 19.5056 7.39374 21.1252V23.9419C7.39374 25.5615 8.25282 26.4065 9.85832 26.4065H12.675C14.2805 26.4065 15.1396 25.5615 15.1396 23.9419V21.1252C15.1396 19.5056 14.2805 18.6606 12.675 18.6606Z" fill="white"/>
<path d="M23.9417 18.6606H21.125C19.5195 18.6606 18.6604 19.5056 18.6604 21.1252V23.9419C18.6604 25.5615 19.5195 26.4065 21.125 26.4065H23.9417C25.5472 26.4065 26.4062 25.5615 26.4062 23.9419V21.1252C26.4062 19.5056 25.5472 18.6606 23.9417 18.6606Z" fill="white"/>
</svg>
