<svg width="35" height="35" viewBox="0 0 35 35" fill="none" xmlns="http://www.w3.org/2000/svg">
<path opacity="0.4" d="M23.1936 2.86499H11.1885C5.97393 2.86499 2.86523 5.97369 2.86523 11.1883V23.179C2.86523 28.4079 5.97393 31.5166 11.1885 31.5166H23.1792C28.3938 31.5166 31.5025 28.4079 31.5025 23.1933V11.1883C31.5169 5.97369 28.4082 2.86499 23.1936 2.86499Z" fill="white"/>
<path d="M22.9218 16.1163H18.2659V11.4604C18.2659 10.8731 17.7788 10.386 17.1915 10.386C16.6041 10.386 16.117 10.8731 16.117 11.4604V16.1163H11.4612C10.8738 16.1163 10.3867 16.6034 10.3867 17.1907C10.3867 17.7781 10.8738 18.2652 11.4612 18.2652H16.117V22.9211C16.117 23.5084 16.6041 23.9955 17.1915 23.9955C17.7788 23.9955 18.2659 23.5084 18.2659 22.9211V18.2652H22.9218C23.5092 18.2652 23.9962 17.7781 23.9962 17.1907C23.9962 16.6034 23.5092 16.1163 22.9218 16.1163Z" fill="white"/>
</svg>
