<svg width="34" height="34" viewBox="0 0 34 34" fill="none" xmlns="http://www.w3.org/2000/svg">
<path d="M29.7018 9.83018C28.5047 8.50635 26.5049 7.84443 23.6037 7.84443H23.2657V7.7881C23.2657 5.4221 23.2657 2.49277 17.9704 2.49277H15.8297C10.5344 2.49277 10.5344 5.43618 10.5344 7.7881V7.85852H10.1964C7.28114 7.85852 5.29539 8.52043 4.09831 9.84427C2.70406 11.3934 2.74631 13.4778 2.88714 14.9002L2.90123 14.9988L3.04206 16.4775C3.05614 16.4916 3.08431 16.5198 3.11248 16.5339C3.57723 16.8437 4.05606 17.1535 4.56306 17.4352C4.76023 17.5619 4.97148 17.6746 5.18273 17.7873C7.59098 19.1111 10.2386 19.9984 12.9286 20.4349C13.0553 21.7588 13.6327 23.3079 16.717 23.3079C19.8012 23.3079 20.4068 21.7729 20.5054 20.4068C23.3784 19.942 26.1528 18.9421 28.6596 17.4774C28.7441 17.4352 28.8005 17.3929 28.8709 17.3507C29.5187 16.9845 30.1243 16.5902 30.7158 16.1536C30.744 16.1395 30.7721 16.1114 30.7862 16.0832L30.8426 15.5762L30.913 14.9143C30.9271 14.8298 30.9271 14.7594 30.9411 14.6608C31.0538 13.2384 31.0256 11.2949 29.7018 9.83018ZM18.4351 19.4773C18.4351 20.9701 18.4351 21.1954 16.7029 21.1954C14.9706 21.1954 14.9706 20.9279 14.9706 19.4914V17.7169H18.4351V19.4773ZM12.5483 7.84443V7.7881C12.5483 5.39393 12.5483 4.50668 15.8297 4.50668H17.9704C21.2518 4.50668 21.2518 5.40802 21.2518 7.7881V7.85852H12.5483V7.84443Z" fill="white"/>
<path opacity="0.4" d="M29.2803 25.5355C29.1377 26.8933 28.7988 28.1321 27.8623 29.0462C26.9303 29.9559 25.2877 30.6575 22.2803 30.6575H11.5479C8.54087 30.6575 6.89805 29.9563 5.96582 29.0482C5.02928 28.1356 4.68938 26.8996 4.54688 25.5491L3.81445 17.7239C3.95626 17.8089 4.10015 17.8933 4.24707 17.9749V17.9739C4.45631 18.106 4.67333 18.2231 4.86719 18.3265V18.3275C7.20115 19.6241 9.75094 20.5073 12.3477 20.9681C12.4573 21.5819 12.6982 22.2505 13.2471 22.803C13.9592 23.5197 15.0732 23.93 16.7168 23.93C18.3618 23.93 19.4766 23.5155 20.1885 22.7923C20.7389 22.233 20.9783 21.5557 21.0869 20.9349C23.8661 20.417 26.5487 19.4349 28.9873 18.0101L28.9941 18.0062C29.0292 17.9851 29.0646 17.9647 29.0996 17.9437C29.1316 17.9245 29.1633 17.9043 29.1953 17.8851C29.4824 17.7286 29.762 17.5607 30.0371 17.387L29.2803 25.5355Z" fill="white" stroke="#F3F7F8" stroke-width="1.3"/>
</svg>
