<svg width="20" height="20" viewBox="0 0 20 20" fill="none" xmlns="http://www.w3.org/2000/svg">
<path d="M17.1254 17.728H2.21765C1.88726 17.728 1.61328 17.454 1.61328 17.1237C1.61328 16.7933 1.88726 16.5193 2.21765 16.5193H17.1254C17.4558 16.5193 17.7298 16.7933 17.7298 17.1237C17.7298 17.454 17.4558 17.728 17.1254 17.728Z" fill="#F2FBF9" fill-opacity="0.24"/>
<path opacity="0.4" d="M16.5926 11.0397L10.7665 16.8658C9.6222 18.0101 7.77686 18.0101 6.64064 16.8739L2.92578 13.159L12.8858 3.19897L16.6007 6.91384C17.7369 8.05005 17.7369 9.89539 16.5926 11.0397Z" fill="#F2FBF9" fill-opacity="0.24"/>
<path d="M12.8865 3.19921L2.91844 13.1592L2.18514 12.4259C1.04893 11.2897 1.04893 9.44436 2.1932 8.30009L8.01933 2.47396C9.1636 1.32969 11.0089 1.32969 12.1452 2.4659L12.8865 3.19921Z" fill="#F2FBF9" fill-opacity="0.24"/>
<path d="M10.3874 14.1826L9.29952 15.2704C9.07388 15.4961 8.71126 15.4961 8.48563 15.2704C8.26 15.0448 8.26 14.6822 8.48563 14.4566L9.5735 13.3687C9.79913 13.1431 10.1618 13.1431 10.3874 13.3687C10.613 13.5943 10.613 13.9569 10.3874 14.1826Z" fill="#F2FBF9" fill-opacity="0.24"/>
<path d="M13.9164 10.653L11.7487 12.8207C11.5231 13.0463 11.1605 13.0463 10.9348 12.8207C10.7092 12.5951 10.7092 12.2325 10.9348 12.0068L13.1025 9.83915C13.3282 9.61351 13.6908 9.61351 13.9164 9.83915C14.134 10.0648 14.134 10.4274 13.9164 10.653Z" fill="#F2FBF9" fill-opacity="0.24"/>
</svg>
