<svg width="16" height="16" viewBox="0 0 16 16" fill="none" xmlns="http://www.w3.org/2000/svg">
<path opacity="0.4" d="M7.66683 14C11.1646 14 14.0002 11.1645 14.0002 7.66666C14.0002 4.16886 11.1646 1.33333 7.66683 1.33333C4.16903 1.33333 1.3335 4.16886 1.3335 7.66666C1.3335 11.1645 4.16903 14 7.66683 14Z" fill="white"/>
<path d="M14.2002 14.6667C14.0802 14.6667 13.9602 14.62 13.8735 14.5333L12.6335 13.2933C12.4535 13.1133 12.4535 12.82 12.6335 12.6333C12.8135 12.4533 13.1069 12.4533 13.2935 12.6333L14.5335 13.8733C14.7135 14.0533 14.7135 14.3467 14.5335 14.5333C14.4402 14.62 14.3202 14.6667 14.2002 14.6667Z" fill="white"/>
</svg>
