<svg width="20" height="20" viewBox="0 0 20 20" fill="none" xmlns="http://www.w3.org/2000/svg">
<path opacity="0.4" d="M17.7298 9.67V13.6991C17.7298 16.1166 16.1182 17.7283 13.7007 17.7283H5.64241C3.22493 17.7283 1.61328 16.1166 1.61328 13.6991V9.67C1.61328 7.47815 2.93484 5.94708 4.9897 5.68922C5.19921 5.65698 5.41678 5.64087 5.64241 5.64087H13.7007C13.9102 5.64087 14.1117 5.64892 14.3051 5.68115C16.3841 5.9229 17.7298 7.46204 17.7298 9.67Z" fill="#F3F7F8"/>
<path d="M14.3036 5.681C14.1102 5.64876 13.9088 5.64071 13.6993 5.64071H5.641C5.41537 5.64071 5.1978 5.65683 4.98828 5.68906C5.1011 5.46343 5.26226 5.25392 5.45566 5.06052L8.0746 2.43352C9.17858 1.33759 10.9675 1.33759 12.0715 2.43352L13.4817 3.85984C13.9974 4.36752 14.2714 5.01216 14.3036 5.681Z" fill="#F3F7F8"/>
<path d="M17.7284 10.0728H15.3109C14.4245 10.0728 13.6992 10.798 13.6992 11.6844C13.6992 12.5708 14.4245 13.2961 15.3109 13.2961H17.7284" fill="#F3F7F8"/>
</svg>
