<svg width="16" height="16" viewBox="0 0 16 16" fill="none" xmlns="http://www.w3.org/2000/svg">
<path d="M11.1667 2.37331V1.33331C11.1667 1.05998 10.94 0.833313 10.6667 0.833313C10.3933 0.833313 10.1667 1.05998 10.1667 1.33331V2.33331H5.83332V1.33331C5.83332 1.05998 5.60665 0.833313 5.33332 0.833313C5.05998 0.833313 4.83332 1.05998 4.83332 1.33331V2.37331C3.03332 2.53998 2.15999 3.61331 2.02666 5.20664C2.01332 5.39998 2.17332 5.55998 2.35999 5.55998H13.64C13.8333 5.55998 13.9933 5.39331 13.9733 5.20664C13.84 3.61331 12.9667 2.53998 11.1667 2.37331Z" fill="white"/>
<path opacity="0.4" d="M13.3333 6.56C13.7 6.56 14 6.86 14 7.22666V11.3333C14 13.3333 13 14.6667 10.6667 14.6667H5.33333C3 14.6667 2 13.3333 2 11.3333V7.22666C2 6.86 2.3 6.56 2.66667 6.56H13.3333Z" fill="white"/>
<path d="M5.66667 9.99999C5.58 9.99999 5.49333 9.98 5.41333 9.94667C5.33333 9.91333 5.26001 9.86665 5.19334 9.80665C5.13334 9.73999 5.08666 9.66666 5.05332 9.58666C5.01999 9.50666 5 9.41999 5 9.33333C5 9.24666 5.01999 9.15999 5.05332 9.07999C5.08666 8.99999 5.13334 8.92666 5.19334 8.86C5.26001 8.8 5.33333 8.75332 5.41333 8.71998C5.57333 8.65332 5.76 8.65332 5.92 8.71998C6 8.75332 6.07333 8.8 6.13999 8.86C6.19999 8.92666 6.24668 8.99999 6.28001 9.07999C6.31334 9.15999 6.33333 9.24666 6.33333 9.33333C6.33333 9.41999 6.31334 9.50666 6.28001 9.58666C6.24668 9.66666 6.19999 9.73999 6.13999 9.80665C6.07333 9.86665 6 9.91333 5.92 9.94667C5.84 9.98 5.75333 9.99999 5.66667 9.99999Z" fill="white"/>
<path d="M8.00016 9.99999C7.9135 9.99999 7.82683 9.98 7.74683 9.94666C7.66683 9.91333 7.5935 9.86665 7.52684 9.80665C7.40684 9.67998 7.3335 9.50665 7.3335 9.33332C7.3335 9.15999 7.40684 8.98666 7.52684 8.85999C7.5935 8.79999 7.66683 8.75331 7.74683 8.71998C7.90683 8.64664 8.0935 8.64664 8.2535 8.71998C8.3335 8.75331 8.40682 8.79999 8.47349 8.85999C8.59349 8.98666 8.66683 9.15999 8.66683 9.33332C8.66683 9.50665 8.59349 9.67998 8.47349 9.80665C8.40682 9.86665 8.3335 9.91333 8.2535 9.94666C8.1735 9.98 8.08683 9.99999 8.00016 9.99999Z" fill="white"/>
<path d="M5.66667 12.3333C5.58 12.3333 5.49333 12.3133 5.41333 12.28C5.33333 12.2466 5.26001 12.2 5.19334 12.14C5.07334 12.0133 5 11.84 5 11.6666C5 11.4933 5.07334 11.32 5.19334 11.1933C5.26001 11.1333 5.33333 11.0866 5.41333 11.0533C5.57333 10.9866 5.76 10.9866 5.92 11.0533C6 11.0866 6.07333 11.1333 6.13999 11.1933C6.25999 11.32 6.33333 11.4933 6.33333 11.6666C6.33333 11.84 6.25999 12.0133 6.13999 12.14C6.07333 12.2 6 12.2466 5.92 12.28C5.84 12.3133 5.75333 12.3333 5.66667 12.3333Z" fill="white"/>
</svg>
