<svg width="18" height="19" viewBox="0 0 18 19" fill="none" xmlns="http://www.w3.org/2000/svg">
<path d="M1 9.75962C1.26522 9.75962 1.51956 9.86244 1.70709 10.0455C1.89463 10.2285 2 10.4767 2 10.7356V17.5673C2 17.8261 1.89463 18.0744 1.70709 18.2574C1.51956 18.4404 1.26522 18.5433 1 18.5433C0.734784 18.5433 0.480444 18.4404 0.292908 18.2574C0.105371 18.0744 0 17.8261 0 17.5673V10.7356C0 10.4767 0.105371 10.2285 0.292908 10.0455C0.480444 9.86244 0.734784 9.75962 1 9.75962ZM17 5.85577C17.2652 5.85577 17.5196 5.95859 17.7071 6.14162C17.8946 6.32465 18 6.57289 18 6.83173V17.5673C18 17.8261 17.8946 18.0744 17.7071 18.2574C17.5196 18.4404 17.2652 18.5433 17 18.5433C16.7348 18.5433 16.4804 18.4404 16.2929 18.2574C16.1054 18.0744 16 17.8261 16 17.5673V6.83173C16 6.57289 16.1054 6.32465 16.2929 6.14162C16.4804 5.95859 16.7348 5.85577 17 5.85577ZM6.341 0C6.60622 0 6.86056 0.102823 7.0481 0.285852C7.23563 0.46888 7.341 0.71712 7.341 0.975962V17.5673C7.341 17.8261 7.23563 18.0744 7.0481 18.2574C6.86056 18.4404 6.60622 18.5433 6.341 18.5433C6.07579 18.5433 5.82145 18.4404 5.63391 18.2574C5.44637 18.0744 5.341 17.8261 5.341 17.5673V0.975962C5.341 0.71712 5.44637 0.46888 5.63391 0.285852C5.82145 0.102823 6.07579 0 6.341 0Z" fill="white"/>
<path d="M11.5996 9.45996C11.8648 9.45996 12.1192 9.56278 12.3067 9.74581C12.4942 9.92884 12.5996 10.1771 12.5996 10.4359V17.2677C12.5996 17.5265 12.4942 17.7747 12.3067 17.9578C12.1192 18.1408 11.8648 18.2436 11.5996 18.2436C11.3344 18.2436 11.08 18.1408 10.8925 17.9578C10.7049 17.7747 10.5996 17.5265 10.5996 17.2677V10.4359C10.5996 10.1771 10.7049 9.92884 10.8925 9.74581C11.08 9.56278 11.3344 9.45996 11.5996 9.45996Z" fill="white"/>
</svg>
