<svg width="17" height="20" viewBox="0 0 17 20" fill="none" xmlns="http://www.w3.org/2000/svg">
<path d="M15.5837 15.8333V18.3333H1.41699V15.8333C1.41699 15.375 1.73574 15 2.12533 15H14.8753C15.2649 15 15.5837 15.375 15.5837 15.8333Z" fill="#F3F7F8" stroke="#F3F7F8" stroke-width="0.987449" stroke-miterlimit="10" stroke-linecap="round" stroke-linejoin="round"/>
<path opacity="0.6" d="M5.66634 9.16675H2.83301V15.0001H5.66634V9.16675Z" fill="#F3F7F8"/>
<path opacity="0.4" d="M8.50033 9.16675H5.66699V15.0001H8.50033V9.16675Z" fill="#F3F7F8"/>
<path opacity="0.6" d="M11.3333 9.16675H8.5V15.0001H11.3333V9.16675Z" fill="#F3F7F8"/>
<path opacity="0.4" d="M14.1663 9.16675H11.333V15.0001H14.1663V9.16675Z" fill="#F3F7F8"/>
<path d="M16.2913 18.9583H0.708008C0.417591 18.9583 0.176758 18.6749 0.176758 18.3333C0.176758 17.9916 0.417591 17.7083 0.708008 17.7083H16.2913C16.5818 17.7083 16.8226 17.9916 16.8226 18.3333C16.8226 18.6749 16.5818 18.9583 16.2913 18.9583Z" fill="#F3F7F8"/>
<path d="M15.1374 4.79168L8.76241 1.7917C8.62074 1.72503 8.37991 1.72503 8.23825 1.7917L1.86325 4.79168C1.61533 4.90835 1.41699 5.25001 1.41699 5.56667V8.33335C1.41699 8.79168 1.73574 9.16668 2.12533 9.16668H14.8753C15.2649 9.16668 15.5837 8.79168 15.5837 8.33335V5.56667C15.5837 5.25001 15.3853 4.90835 15.1374 4.79168ZM8.50033 7.08335C7.91241 7.08335 7.43783 6.52501 7.43783 5.83335C7.43783 5.14168 7.91241 4.58335 8.50033 4.58335C9.08824 4.58335 9.56283 5.14168 9.56283 5.83335C9.56283 6.52501 9.08824 7.08335 8.50033 7.08335Z" fill="#F3F7F8"/>
</svg>
