<svg width="25" height="24" viewBox="0 0 25 24" fill="none" xmlns="http://www.w3.org/2000/svg">
<path d="M5.5 15C4.56 15 3.69 15.33 3 15.88C2.08 16.61 1.5 17.74 1.5 19C1.5 21.21 3.29 23 5.5 23C6.51 23 7.43 22.62 8.14 22C8.97 21.27 9.5 20.2 9.5 19C9.5 16.79 7.71 15 5.5 15ZM6.5 19.25C6.5 19.51 6.36 19.76 6.14 19.89L4.89 20.64C4.77 20.71 4.64 20.75 4.5 20.75C4.25 20.75 4 20.62 3.86 20.39C3.65 20.03 3.75999 19.57 4.12 19.36L5.00999 18.83V17.75C5.00999 17.34 5.34999 17 5.75999 17C6.16999 17 6.50999 17.34 6.50999 17.75V19.25H6.5Z" fill="#F2FBF9"/>
<path opacity="0.4" d="M19.98 12.95H22V11.51C22 9.44001 20.31 7.75 18.24 7.75H6.75999C4.68999 7.75 3 9.44001 3 11.51V15.88C3.69 15.33 4.56 15 5.5 15C7.71 15 9.5 16.79 9.5 19C9.5 19.75 9.29 20.46 8.92 21.06C8.71 21.42 8.44 21.74 8.13 22H18.24C20.31 22 22 20.31 22 18.24V17.05H20.1C19.02 17.05 18.03 16.26 17.94 15.18C17.88 14.55 18.12 13.96 18.54 13.55C18.91 13.17 19.42 12.95 19.98 12.95Z" fill="#F2FBF9"/>
<path d="M15.35 3.95012V7.75011H6.75999C4.68999 7.75011 3 9.44012 3 11.5101V7.84014C3 6.65014 3.73 5.59009 4.84 5.17009L12.78 2.17009C14.02 1.71009 15.35 2.62012 15.35 3.95012Z" fill="#F2FBF9"/>
<path d="M23.0598 13.9699V16.03C23.0598 16.58 22.6198 17.0299 22.0598 17.0499H20.0998C19.0198 17.0499 18.0298 16.2599 17.9398 15.1799C17.8798 14.5499 18.1198 13.9599 18.5398 13.5499C18.9098 13.1699 19.4198 12.95 19.9798 12.95H22.0598C22.6198 12.97 23.0598 13.4199 23.0598 13.9699Z" fill="#F2FBF9"/>
<path d="M14.5 12.75H7.5C7.09 12.75 6.75 12.41 6.75 12C6.75 11.59 7.09 11.25 7.5 11.25H14.5C14.91 11.25 15.25 11.59 15.25 12C15.25 12.41 14.91 12.75 14.5 12.75Z" fill="#F2FBF9"/>
</svg>
