<svg width="14" height="15" viewBox="0 0 14 15" fill="none" xmlns="http://www.w3.org/2000/svg">
<path d="M12.7304 6.61216H8.07451V1.95627C8.07451 1.36891 7.58743 0.881836 7.00007 0.881836C6.41271 0.881836 5.92564 1.36891 5.92564 1.95627V6.61216H1.26975C0.68239 6.61216 0.195312 7.09924 0.195312 7.68659C0.195312 8.27395 0.68239 8.76103 1.26975 8.76103H5.92564V13.4169C5.92564 14.0043 6.41271 14.4914 7.00007 14.4914C7.58743 14.4914 8.07451 14.0043 8.07451 13.4169V8.76103H12.7304C13.3178 8.76103 13.8048 8.27395 13.8048 7.68659C13.8048 7.09924 13.3178 6.61216 12.7304 6.61216Z" fill="white"/>
</svg>
