<svg width="21" height="21" viewBox="0 0 21 21" fill="none" xmlns="http://www.w3.org/2000/svg">
<path d="M8.67571 3.80172L15.809 7.36839C19.009 8.96839 19.009 11.5851 15.809 13.1851L8.67571 16.7517C3.87571 19.1517 1.91737 17.1851 4.31737 12.3934L5.04237 10.9517C5.25071 10.5267 5.25071 10.0351 5.04237 9.61006L4.31737 8.16006C1.91737 3.36839 3.88404 1.40172 8.67571 3.80172Z" fill="white" fill-opacity="0.72"/>
<path d="M13.1162 10.9019H8.61621C8.27454 10.9019 7.99121 10.6185 7.99121 10.2769C7.99121 9.93519 8.27454 9.65186 8.61621 9.65186H13.1162C13.4579 9.65186 13.7412 9.93519 13.7412 10.2769C13.7412 10.6185 13.4579 10.9019 13.1162 10.9019Z" fill="#F2FBF9"/>
</svg>
