<svg width="25" height="24" viewBox="0 0 25 24" fill="none" xmlns="http://www.w3.org/2000/svg">
<path opacity="0.8" d="M13.4002 2.52009L13.3702 2.59009L10.4702 9.32009H7.6202C6.9402 9.32009 6.3002 9.45009 5.7002 9.71009L7.4502 5.53009L7.4902 5.44009L7.5502 5.28009C7.5802 5.21009 7.6002 5.15009 7.6302 5.10009C8.9402 2.07009 10.4202 1.38009 13.4002 2.52009Z" fill="#F2FBF9"/>
<path d="M18.7897 9.52002C18.3397 9.39002 17.8697 9.32002 17.3797 9.32002H10.4697L13.3697 2.59002L13.3997 2.52002C13.5397 2.57002 13.6897 2.64002 13.8397 2.69002L16.0497 3.62002C17.2797 4.13002 18.1397 4.66002 18.6697 5.30002C18.7597 5.42002 18.8397 5.53002 18.9197 5.66002C19.0097 5.80002 19.0797 5.94002 19.1197 6.09002C19.1597 6.18002 19.1897 6.26002 19.2097 6.35002C19.4697 7.20002 19.3097 8.23002 18.7897 9.52002Z" fill="#F2FBF9"/>
<path opacity="0.4" d="M22.2602 14.2001V16.1501C22.2602 16.3501 22.2502 16.5501 22.2402 16.7401C22.0502 20.2401 20.1002 22.0001 16.4002 22.0001H8.60023C8.35023 22.0001 8.12023 21.9801 7.89023 21.9501C4.71023 21.7401 3.01023 20.0401 2.79023 16.8601C2.76023 16.6201 2.74023 16.3901 2.74023 16.1501V14.2001C2.74023 12.1901 3.96023 10.4601 5.70023 9.71007C6.30023 9.45007 6.94023 9.32007 7.62023 9.32007H17.3802C17.8702 9.32007 18.3402 9.39007 18.7902 9.52007C20.7902 10.1301 22.2602 11.9901 22.2602 14.2001Z" fill="#F2FBF9"/>
<path opacity="0.6" d="M7.45023 5.53003L5.70023 9.71003C3.96023 10.46 2.74023 12.19 2.74023 14.2V11.27C2.74023 8.43003 4.76023 6.06003 7.45023 5.53003Z" fill="#F2FBF9"/>
<path opacity="0.6" d="M22.26 11.2701V14.2001C22.26 11.9901 20.79 10.1301 18.79 9.52009C19.31 8.23009 19.47 7.20009 19.21 6.35009C19.19 6.26009 19.16 6.18009 19.12 6.09009C20.99 7.06009 22.26 9.03009 22.26 11.2701Z" fill="#F2FBF9"/>
<path d="M15 16.75H10C9.59 16.75 9.25 16.41 9.25 16C9.25 15.59 9.59 15.25 10 15.25H15C15.41 15.25 15.75 15.59 15.75 16C15.75 16.41 15.41 16.75 15 16.75Z" fill="#F2FBF9"/>
</svg>
