<svg width="25" height="24" viewBox="0 0 25 24" fill="none" xmlns="http://www.w3.org/2000/svg">
<path d="M18.2504 7.04997C18.0104 7.00997 17.7604 6.99998 17.5004 6.99998H7.50043C7.22043 6.99998 6.95043 7.01998 6.69043 7.05998C6.83043 6.77998 7.03042 6.52001 7.27042 6.28001L10.5204 3.02C11.8904 1.66 14.1104 1.66 15.4804 3.02L17.2304 4.78996C17.8704 5.41996 18.2104 6.21997 18.2504 7.04997Z" fill="#F2FBF9"/>
<path opacity="0.4" d="M2.5 16.36V12C2.5 9.28 4.14 7.38 6.69 7.06C6.95 7.02 7.22 7 7.5 7H17.5C17.76 7 18.01 7.00999 18.25 7.04999C20.83 7.34999 22.5 9.26 22.5 12V17C22.5 19.76 20.26 22 17.5 22H8.13H7.5C4.74 22 2.5 19.76 2.5 17V16.36Z" fill="#F2FBF9"/>
<path d="M22.5 12.5H19.5C18.4 12.5 17.5 13.4 17.5 14.5C17.5 15.6 18.4 16.5 19.5 16.5H22.5" fill="#F2FBF9"/>
<path d="M1.72957 21.68L2.48956 20.92C2.08956 20.32 1.85957 19.6 1.85957 18.83C1.85957 16.72 3.56957 15.01 5.67957 15.01C7.78957 15.01 9.49957 16.72 9.49957 18.83C9.49957 20.94 7.78957 22.65 5.67957 22.65C4.90957 22.65 4.18956 22.42 3.58956 22.02L2.82957 22.78C2.67957 22.93 2.47957 23.01 2.27957 23.01C2.07957 23.01 1.87957 22.93 1.72957 22.78C1.41957 22.47 1.41957 21.98 1.72957 21.68Z" fill="#F2FBF9"/>
</svg>
