<svg width="4" height="3" viewBox="0 0 4 3" fill="none" xmlns="http://www.w3.org/2000/svg">
<path d="M2.99699 0.921621C2.94283 0.791621 2.86699 0.672454 2.76949 0.564121C2.66116 0.466621 2.54199 0.390788 2.41199 0.336621C2.15199 0.228288 1.84866 0.228288 1.58866 0.336621C1.45866 0.390788 1.33949 0.466621 1.23116 0.564121C1.13366 0.672454 1.05783 0.791621 1.00366 0.921621C0.949492 1.05162 0.916992 1.19245 0.916992 1.33329C0.916992 1.47412 0.949492 1.61495 1.00366 1.74495C1.05783 1.88579 1.13366 1.99412 1.23116 2.10245C1.33949 2.19995 1.45866 2.27579 1.58866 2.32995C1.71866 2.38412 1.85949 2.41662 2.00033 2.41662C2.14116 2.41662 2.28199 2.38412 2.41199 2.32995C2.54199 2.27579 2.66116 2.19995 2.76949 2.10245C2.86699 1.99412 2.94283 1.88579 2.99699 1.74495C3.05116 1.61495 3.08366 1.47412 3.08366 1.33329C3.08366 1.19245 3.05116 1.05162 2.99699 0.921621Z" fill="white"/>
</svg>
