<svg width="32" height="32" viewBox="0 0 32 32" fill="none" xmlns="http://www.w3.org/2000/svg">
<path d="M14.7333 19.9337L12.2667 22.4003C11.7467 22.9203 10.92 22.9203 10.3867 22.4137C10.24 22.267 10.0933 22.1337 9.94666 21.987C8.57332 20.6003 7.33332 19.147 6.22666 17.627C5.13332 16.107 4.25332 14.587 3.61332 13.0803C2.98666 11.5603 2.66666 10.107 2.66666 8.72033C2.66666 7.81366 2.82666 6.94699 3.14666 6.14699C3.46666 5.33366 3.97332 4.58699 4.67999 3.92033C5.53332 3.08033 6.46666 2.66699 7.45332 2.66699C7.82666 2.66699 8.19999 2.74699 8.53332 2.90699C8.87999 3.06699 9.18666 3.30699 9.42666 3.65366L12.52 8.01366C12.76 8.34699 12.9333 8.65366 13.0533 8.94699C13.1733 9.22699 13.24 9.50699 13.24 9.76033C13.24 10.0803 13.1467 10.4003 12.96 10.707C12.7867 11.0137 12.5333 11.3337 12.2133 11.6537L11.2 12.707C11.0533 12.8537 10.9867 13.027 10.9867 13.2403C10.9867 13.347 11 13.4403 11.0267 13.547C11.0667 13.6537 11.1067 13.7337 11.1333 13.8137C11.3733 14.2537 11.7867 14.827 12.3733 15.5203C12.9733 16.2137 13.6133 16.9203 14.3067 17.627C14.44 17.7603 14.5867 17.8937 14.72 18.027C15.2533 18.547 15.2667 19.4003 14.7333 19.9337Z" fill="white"/>
<path d="M29.2933 24.4397C29.2933 24.8131 29.2267 25.1997 29.0933 25.5731C29.0533 25.6797 29.0133 25.7864 28.96 25.8931C28.7333 26.3731 28.44 26.8264 28.0533 27.2531C27.4 27.9731 26.68 28.4931 25.8667 28.8264C25.8533 28.8264 25.84 28.8397 25.8267 28.8397C25.04 29.1597 24.1867 29.3331 23.2667 29.3331C21.9067 29.3331 20.4533 29.0131 18.92 28.3597C17.3867 27.7064 15.8533 26.8264 14.3333 25.7197C13.8133 25.3331 13.2933 24.9464 12.8 24.5331L17.16 20.1731C17.5333 20.4531 17.8667 20.6664 18.1467 20.8131C18.2133 20.8397 18.2933 20.8797 18.3867 20.9197C18.4933 20.9597 18.6 20.9731 18.72 20.9731C18.9467 20.9731 19.12 20.8931 19.2667 20.7464L20.28 19.7464C20.6133 19.4131 20.9333 19.1597 21.24 18.9997C21.5467 18.8131 21.8533 18.7197 22.1867 18.7197C22.44 18.7197 22.7067 18.7731 23 18.8931C23.2933 19.0131 23.6 19.1864 23.9333 19.4131L28.3467 22.5464C28.6933 22.7864 28.9333 23.0664 29.08 23.3997C29.2133 23.7331 29.2933 24.0664 29.2933 24.4397Z" fill="white"/>
</svg>
