<svg width="24" height="24" viewBox="0 0 24 24" fill="none" xmlns="http://www.w3.org/2000/svg">
<path d="M11 2H9C4 2 2 4 2 9V15C2 20 4 22 9 22H15C20 22 22 20 22 15V13" stroke="white" stroke-width="1.5" stroke-linecap="round" stroke-linejoin="round"/>
<path d="M16.0403 3.02001L8.16033 10.9C7.82254 11.2705 7.59408 11.7275 7.50033 12.22L7.07033 15.23C7.0181 15.464 7.0258 15.7075 7.09274 15.9377C7.15967 16.168 7.28366 16.3776 7.45321 16.5471C7.62276 16.7167 7.83238 16.8407 8.06263 16.9076C8.29288 16.9745 8.53631 16.9822 8.77033 16.93L11.7803 16.5C12.2714 16.402 12.7273 16.1741 13.1003 15.84L20.9803 7.96001C22.3403 6.60001 22.9803 5.02001 20.9803 3.02001C18.9803 1.02001 17.4003 1.66001 16.0403 3.02001Z" stroke="white" stroke-width="1.5" stroke-linecap="round" stroke-linejoin="round"/>
<path d="M14.9102 4.15002C15.2417 5.32749 15.8701 6.40009 16.7351 7.26507C17.6001 8.13005 18.6727 8.75843 19.8502 9.09002" stroke="white" stroke-width="1.5" stroke-linecap="round" stroke-linejoin="round"/>
</svg>
