<svg width="20" height="20" viewBox="0 0 20 20" fill="none" xmlns="http://www.w3.org/2000/svg">
<path opacity="0.4" d="M10.0002 16.6668C13.6821 16.6668 16.6668 13.6821 16.6668 10.0002C16.6668 6.31826 13.6821 3.3335 10.0002 3.3335C6.31826 3.3335 3.3335 6.31826 3.3335 10.0002C3.3335 13.6821 6.31826 16.6668 10.0002 16.6668Z" fill="#3976F8"/>
<path d="M9.9999 12.5999C11.4358 12.5999 12.5999 11.4358 12.5999 9.9999C12.5999 8.56396 11.4358 7.3999 9.9999 7.3999C8.56396 7.3999 7.3999 8.56396 7.3999 9.9999C7.3999 11.4358 8.56396 12.5999 9.9999 12.5999Z" fill="#3976F8"/>
<path d="M10.625 1.6665V3.3665H10.6167C10.4167 3.3415 10.2083 3.33317 10 3.33317C9.79167 3.33317 9.58333 3.3415 9.38333 3.3665H9.375V1.6665C9.375 1.32484 9.65833 1.0415 10 1.0415C10.3417 1.0415 10.625 1.32484 10.625 1.6665Z" fill="#3976F8"/>
<path d="M3.33317 10C3.33317 10.2083 3.3415 10.425 3.3665 10.625H1.6665C1.32484 10.625 1.0415 10.3417 1.0415 10C1.0415 9.65833 1.32484 9.375 1.6665 9.375H3.3665C3.3415 9.575 3.33317 9.79167 3.33317 10Z" fill="#3976F8"/>
<path d="M10.625 16.6333V18.3333C10.625 18.675 10.3417 18.9583 10 18.9583C9.65833 18.9583 9.375 18.675 9.375 18.3333V16.6333H9.38333C9.58333 16.6583 9.79167 16.6666 10 16.6666C10.2083 16.6666 10.4167 16.6583 10.6167 16.6333H10.625Z" fill="#3976F8"/>
<path d="M18.9583 10C18.9583 10.3417 18.675 10.625 18.3333 10.625H16.6333C16.6583 10.425 16.6666 10.2083 16.6666 10C16.6666 9.79167 16.6583 9.575 16.6333 9.375H18.3333C18.675 9.375 18.9583 9.65833 18.9583 10Z" fill="#3976F8"/>
</svg>
