<svg width="18" height="18" viewBox="0 0 18 18" fill="none" xmlns="http://www.w3.org/2000/svg">
<path opacity="0.4" d="M9.92999 1.5C10.2825 1.5 10.575 1.785 10.575 2.145V15.8625C10.575 16.215 10.29 16.5075 9.92999 16.5075C5.51249 16.5075 2.42999 13.425 2.42999 9.0075C2.42999 4.59 5.51999 1.5 9.92999 1.5Z" fill="#C6D4DB"/>
<path d="M15.405 8.65512L13.275 6.51762C13.0575 6.30012 12.6975 6.30012 12.48 6.51762C12.2625 6.73512 12.2625 7.09512 12.48 7.31262L13.65 8.48262H6.47247C6.16497 8.48262 5.90997 8.73762 5.90997 9.04512C5.90997 9.35262 6.16497 9.60762 6.47247 9.60762H13.65L12.48 10.7776C12.2625 10.9951 12.2625 11.3551 12.48 11.5726C12.5925 11.6851 12.735 11.7376 12.8775 11.7376C13.02 11.7376 13.1625 11.6851 13.275 11.5726L15.405 9.43512C15.6225 9.22512 15.6225 8.87262 15.405 8.65512Z" fill="#C6D4DB"/>
</svg>
