<svg width="25" height="25" viewBox="0 0 25 25" fill="none" xmlns="http://www.w3.org/2000/svg">
<path opacity="0.4" d="M17.3351 0H7.09773C2.65096 0 0 2.65096 0 7.09773V17.3229C0 21.7819 2.65096 24.4328 7.09773 24.4328H17.3229C21.7696 24.4328 24.4206 21.7819 24.4206 17.3351V7.09773C24.4328 2.65096 21.7819 0 17.3351 0Z" fill="white"/>
<path d="M16.9058 11.0824H12.9354V7.11203C12.9354 6.61116 12.5201 6.1958 12.0192 6.1958C11.5183 6.1958 11.103 6.61116 11.103 7.11203V11.0824H7.13265C6.63177 11.0824 6.21642 11.4977 6.21642 11.9986C6.21642 12.4995 6.63177 12.9148 7.13265 12.9148H11.103V16.8852C11.103 17.386 11.5183 17.8014 12.0192 17.8014C12.5201 17.8014 12.9354 17.386 12.9354 16.8852V12.9148H16.9058C17.4066 12.9148 17.822 12.4995 17.822 11.9986C17.822 11.4977 17.4066 11.0824 16.9058 11.0824Z" fill="white"/>
</svg>
