<svg width="16" height="14" viewBox="0 0 16 14" fill="none" xmlns="http://www.w3.org/2000/svg">
<path d="M13.8334 5.75H5.1834L8.05007 2.88333C8.5334 2.4 8.5334 1.6 8.05007 1.11667C7.56673 0.633332 6.76673 0.633332 6.2834 1.11667L1.2834 6.11666C0.800065 6.6 0.800065 7.4 1.2834 7.88333L6.2834 12.8833C6.5334 13.1333 6.85007 13.25 7.16673 13.25C7.4834 13.25 7.80007 13.1333 8.05007 12.8833C8.5334 12.4 8.5334 11.6 8.05007 11.1167L5.1834 8.25H13.8334C14.5167 8.25 15.0834 7.68333 15.0834 7C15.0834 6.31666 14.5167 5.75 13.8334 5.75Z" fill="#F2FBF9"/>
</svg>
