<svg width="28" height="28" viewBox="0 0 28 28" fill="none" xmlns="http://www.w3.org/2000/svg">
<path opacity="0.4" d="M2.3335 15.1318V8.15516C2.3335 4.93516 4.94683 2.3335 8.16683 2.3335H19.8335C23.0535 2.3335 25.6668 4.93516 25.6668 8.15516V16.2985C25.6668 19.5068 23.0535 22.1085 19.8335 22.1085H18.0835C17.7218 22.1085 17.3718 22.2835 17.1502 22.5752L15.4002 24.8968C14.6302 25.9235 13.3702 25.9235 12.6002 24.8968L10.8502 22.5752C10.6635 22.3185 10.2435 22.1085 9.91683 22.1085H8.16683C4.94683 22.1085 2.3335 19.5068 2.3335 16.2985V15.1318Z" fill="#6F8DA1"/>
<path d="M19.8332 10.2085H8.1665C7.68817 10.2085 7.2915 9.81183 7.2915 9.3335C7.2915 8.85516 7.68817 8.4585 8.1665 8.4585H19.8332C20.3115 8.4585 20.7082 8.85516 20.7082 9.3335C20.7082 9.81183 20.3115 10.2085 19.8332 10.2085Z" fill="#6F8DA1"/>
<path d="M15.1665 16.0415H8.1665C7.68817 16.0415 7.2915 15.6448 7.2915 15.1665C7.2915 14.6882 7.68817 14.2915 8.1665 14.2915H15.1665C15.6448 14.2915 16.0415 14.6882 16.0415 15.1665C16.0415 15.6448 15.6448 16.0415 15.1665 16.0415Z" fill="#6F8DA1"/>
</svg>
