<svg width="22" height="23" viewBox="0 0 22 23" fill="none" xmlns="http://www.w3.org/2000/svg">
<path opacity="0.4" d="M17.7281 13.7824L16.8115 12.2607C16.619 11.9215 16.4448 11.2799 16.4448 10.904V8.58487C16.4448 5.59654 14.0156 3.1582 11.0181 3.1582C8.02062 3.1582 5.59145 5.59654 5.59145 8.58487V10.904C5.59145 11.2799 5.41728 11.9215 5.22478 12.2515L4.29895 13.7824C3.93228 14.3965 3.84978 15.0749 4.07895 15.6982C4.29895 16.3124 4.82145 16.789 5.49978 17.0182C7.27812 17.6232 9.14812 17.9165 11.0181 17.9165C12.8881 17.9165 14.7581 17.6232 16.5365 17.0274C17.1781 16.8165 17.6731 16.3307 17.9115 15.6982C18.1498 15.0657 18.0856 14.369 17.7281 13.7824Z" fill="#1929FF"/>
<path d="M13.0626 3.5435C12.4301 3.296 11.7426 3.1585 11.0184 3.1585C10.3034 3.1585 9.6159 3.28683 8.9834 3.5435C9.37757 2.801 10.1567 2.3335 11.0184 2.3335C11.8892 2.3335 12.6592 2.801 13.0626 3.5435Z" fill="#1929FF"/>
<path d="M13.5942 18.8427C13.2092 19.906 12.1917 20.6668 11 20.6668C10.2759 20.6668 9.56087 20.3735 9.05671 19.851C8.76337 19.576 8.54337 19.2093 8.41504 18.8335C8.53421 18.8518 8.65337 18.861 8.78171 18.8793C8.99254 18.9068 9.21254 18.9343 9.43254 18.9527C9.95504 18.9985 10.4867 19.026 11.0184 19.026C11.5409 19.026 12.0634 18.9985 12.5767 18.9527C12.7692 18.9343 12.9617 18.9252 13.145 18.8977C13.2917 18.8793 13.4384 18.861 13.5942 18.8427Z" fill="#1929FF"/>
</svg>
