<svg width="22" height="22" viewBox="0 0 22 22" fill="none" xmlns="http://www.w3.org/2000/svg">
<path opacity="0.4" d="M14.8405 1.83333H7.15884C3.82217 1.83333 1.83301 3.8225 1.83301 7.15916V14.8317C1.83301 18.1775 3.82217 20.1667 7.15884 20.1667H14.8313C18.168 20.1667 20.1572 18.1775 20.1572 14.8408V7.15916C20.1663 3.8225 18.1772 1.83333 14.8405 1.83333Z" fill="white"/>
<path d="M15.5837 7.5625H6.41699C6.04116 7.5625 5.72949 7.25083 5.72949 6.875C5.72949 6.49917 6.04116 6.1875 6.41699 6.1875H15.5837C15.9595 6.1875 16.2712 6.49917 16.2712 6.875C16.2712 7.25083 15.9595 7.5625 15.5837 7.5625Z" fill="#1929FF"/>
<path d="M15.5837 11.6875H6.41699C6.04116 11.6875 5.72949 11.3758 5.72949 11C5.72949 10.6242 6.04116 10.3125 6.41699 10.3125H15.5837C15.9595 10.3125 16.2712 10.6242 16.2712 11C16.2712 11.3758 15.9595 11.6875 15.5837 11.6875Z" fill="#1929FF"/>
<path d="M15.5837 15.8125H6.41699C6.04116 15.8125 5.72949 15.5008 5.72949 15.125C5.72949 14.7492 6.04116 14.4375 6.41699 14.4375H15.5837C15.9595 14.4375 16.2712 14.7492 16.2712 15.125C16.2712 15.5008 15.9595 15.8125 15.5837 15.8125Z" fill="#1929FF"/>
</svg>
