<svg width="22" height="22" viewBox="0 0 22 22" fill="none" xmlns="http://www.w3.org/2000/svg">
<path opacity="0.4" d="M15.5833 16.8942H11.9167L7.83748 19.6076C7.23248 20.0109 6.41666 19.58 6.41666 18.8467V16.8942C3.66666 16.8942 1.83333 15.0609 1.83333 12.3109V6.81087C1.83333 4.06087 3.66666 2.22754 6.41666 2.22754H15.5833C18.3333 2.22754 20.1667 4.06087 20.1667 6.81087V12.3109C20.1667 15.0609 18.3333 16.8942 15.5833 16.8942Z" fill="#1929FF"/>
<path d="M11 11.1008C10.6242 11.1008 10.3125 10.7892 10.3125 10.4133V10.2209C10.3125 9.15753 11.0917 8.63502 11.385 8.43335C11.7242 8.20419 11.8341 8.04836 11.8341 7.81003C11.8341 7.35169 11.4583 6.97583 11 6.97583C10.5417 6.97583 10.1659 7.35169 10.1659 7.81003C10.1659 8.18586 9.8542 8.49753 9.47836 8.49753C9.10253 8.49753 8.79086 8.18586 8.79086 7.81003C8.79086 6.59086 9.78084 5.60083 11 5.60083C12.2192 5.60083 13.2091 6.59086 13.2091 7.81003C13.2091 8.85503 12.4392 9.37751 12.155 9.57001C11.7975 9.80835 11.6875 9.9642 11.6875 10.2209V10.4133C11.6875 10.7983 11.3758 11.1008 11 11.1008Z" fill="#1929FF"/>
<path d="M11 13.3833C10.615 13.3833 10.3125 13.0716 10.3125 12.6958C10.3125 12.32 10.6242 12.0083 11 12.0083C11.3758 12.0083 11.6875 12.32 11.6875 12.6958C11.6875 13.0716 11.385 13.3833 11 13.3833Z" fill="#6F8DA1"/>
</svg>
