<svg width="21" height="21" viewBox="0 0 21 21" fill="none" xmlns="http://www.w3.org/2000/svg">
<path opacity="0.4" d="M10.7503 18.6105C15.3527 18.6105 19.0837 14.8796 19.0837 10.2772C19.0837 5.67481 15.3527 1.94385 10.7503 1.94385C6.14795 1.94385 2.41699 5.67481 2.41699 10.2772C2.41699 14.8796 6.14795 18.6105 10.7503 18.6105Z" fill="#F3F7F8"/>
<path d="M14.0837 9.65169H11.3753V6.94336C11.3753 6.60169 11.092 6.31836 10.7503 6.31836C10.4087 6.31836 10.1253 6.60169 10.1253 6.94336V9.65169H7.41699C7.07533 9.65169 6.79199 9.93503 6.79199 10.2767C6.79199 10.6184 7.07533 10.9017 7.41699 10.9017H10.1253V13.61C10.1253 13.9517 10.4087 14.235 10.7503 14.235C11.092 14.235 11.3753 13.9517 11.3753 13.61V10.9017H14.0837C14.4253 10.9017 14.7087 10.6184 14.7087 10.2767C14.7087 9.93503 14.4253 9.65169 14.0837 9.65169Z" fill="#F3F7F8"/>
</svg>
