<svg width="18" height="21" viewBox="0 0 18 21" fill="none" xmlns="http://www.w3.org/2000/svg">
<path d="M16.3337 16.1102V18.6102H2.16699V16.1102C2.16699 15.6519 2.48574 15.2769 2.87533 15.2769H15.6253C16.0149 15.2769 16.3337 15.6519 16.3337 16.1102Z" fill="#F3F7F8" stroke="#F3F7F8" stroke-width="0.987449" stroke-miterlimit="10" stroke-linecap="round" stroke-linejoin="round"/>
<path opacity="0.6" d="M6.41634 9.44336H3.58301V15.2767H6.41634V9.44336Z" fill="#F3F7F8"/>
<path opacity="0.4" d="M9.25033 9.44336H6.41699V15.2767H9.25033V9.44336Z" fill="#F3F7F8"/>
<path opacity="0.6" d="M12.0833 9.44336H9.25V15.2767H12.0833V9.44336Z" fill="#F3F7F8"/>
<path opacity="0.4" d="M14.9163 9.44336H12.083V15.2767H14.9163V9.44336Z" fill="#F3F7F8"/>
<path d="M17.0413 19.2349H1.45801C1.16759 19.2349 0.926758 18.9515 0.926758 18.6099C0.926758 18.2682 1.16759 17.9849 1.45801 17.9849H17.0413C17.3318 17.9849 17.5726 18.2682 17.5726 18.6099C17.5726 18.9515 17.3318 19.2349 17.0413 19.2349Z" fill="#F3F7F8"/>
<path d="M15.8874 5.06853L9.51241 2.06855C9.37074 2.00189 9.12991 2.00189 8.98825 2.06855L2.61325 5.06853C2.36533 5.1852 2.16699 5.52686 2.16699 5.84353V8.6102C2.16699 9.06853 2.48574 9.44353 2.87533 9.44353H15.6253C16.0149 9.44353 16.3337 9.06853 16.3337 8.6102V5.84353C16.3337 5.52686 16.1353 5.1852 15.8874 5.06853ZM9.25033 7.3602C8.66241 7.3602 8.18783 6.80187 8.18783 6.1102C8.18783 5.41853 8.66241 4.8602 9.25033 4.8602C9.83824 4.8602 10.3128 5.41853 10.3128 6.1102C10.3128 6.80187 9.83824 7.3602 9.25033 7.3602Z" fill="#F3F7F8"/>
</svg>
