<svg width="34" height="35" viewBox="0 0 34 35" fill="none" xmlns="http://www.w3.org/2000/svg">
<path d="M29.7018 10.6302C28.5047 9.30634 26.5049 8.64442 23.6037 8.64442H23.2657V8.58809C23.2657 6.22209 23.2657 3.29276 17.9704 3.29276H15.8297C10.5344 3.29276 10.5344 6.23617 10.5344 8.58809V8.65851H10.1964C7.28114 8.65851 5.29539 9.32042 4.09831 10.6443C2.70406 12.1934 2.74631 14.2778 2.88714 15.7002L2.90123 15.7988L3.04206 17.2775C3.05614 17.2916 3.08431 17.3198 3.11248 17.3338C3.57723 17.6437 4.05606 17.9535 4.56306 18.2352C4.76023 18.3619 4.97148 18.4746 5.18273 18.5873C7.59098 19.9111 10.2386 20.7983 12.9286 21.2349C13.0553 22.5588 13.6327 24.1079 16.717 24.1079C19.8012 24.1079 20.4068 22.5728 20.5054 21.2068C23.3784 20.742 26.1528 19.7421 28.6596 18.2774C28.7441 18.2352 28.8005 18.1929 28.8709 18.1507C29.5187 17.7845 30.1243 17.3902 30.7158 16.9536C30.744 16.9395 30.7721 16.9113 30.7862 16.8832L30.8426 16.3762L30.913 15.7143C30.9271 15.6298 30.9271 15.5593 30.9411 15.4608C31.0538 14.0383 31.0256 12.0948 29.7018 10.6302ZM18.4351 20.2773C18.4351 21.7701 18.4351 21.9954 16.7029 21.9954C14.9706 21.9954 14.9706 21.7278 14.9706 20.2913V18.5168H18.4351V20.2773ZM12.5483 8.64442V8.58809C12.5483 6.19392 12.5483 5.30667 15.8297 5.30667H17.9704C21.2518 5.30667 21.2518 6.20801 21.2518 8.58809V8.65851H12.5483V8.64442Z" fill="white"/>
<path opacity="0.4" d="M29.2803 26.3354C29.1377 27.6933 28.7988 28.9321 27.8623 29.8462C26.9303 30.7559 25.2877 31.4575 22.2803 31.4575H11.5479C8.54087 31.4574 6.89805 30.7563 5.96582 29.8481C5.02928 28.9356 4.68938 27.6995 4.54688 26.3491L3.81445 18.5239C3.95626 18.6089 4.10015 18.6933 4.24707 18.7749V18.7739C4.45631 18.906 4.67333 19.0231 4.86719 19.1265V19.1274C7.20115 20.4241 9.75094 21.3073 12.3477 21.7681C12.4573 22.3819 12.6982 23.0505 13.2471 23.603C13.9592 24.3197 15.0732 24.73 16.7168 24.73C18.3618 24.73 19.4766 24.3155 20.1885 23.5923C20.7389 23.033 20.9783 22.3557 21.0869 21.7349C23.8661 21.217 26.5487 20.2349 28.9873 18.8101L28.9941 18.8062C29.0292 18.7851 29.0646 18.7647 29.0996 18.7437C29.1316 18.7244 29.1633 18.7043 29.1953 18.6851C29.4824 18.5286 29.762 18.3607 30.0371 18.187L29.2803 26.3354Z" fill="white" stroke="#F3F7F8" stroke-width="1.3"/>
</svg>
