<svg width="35" height="34" viewBox="0 0 35 34" fill="none" xmlns="http://www.w3.org/2000/svg">
<path d="M22.5791 3.56702C27.276 3.56709 31.083 7.37403 31.083 12.0709C31.0829 16.7678 27.2759 20.5748 22.5791 20.5748C22.5302 20.5748 22.4803 20.5721 22.4297 20.5709C21.8301 16.2488 18.4004 12.8186 14.0781 12.2194C14.077 12.1691 14.0752 12.1196 14.0752 12.0709C14.0752 7.37399 17.8822 3.56702 22.5791 3.56702Z" fill="white" stroke="#F3F7F8" stroke-width="1.3"/>
<path opacity="0.4" d="M21.8757 21.9292C21.8757 26.9851 17.7775 31.0833 12.7216 31.0833C7.66563 31.0833 3.56738 26.9851 3.56738 21.9292C3.56738 16.8732 7.66563 12.775 12.7216 12.775C12.961 12.775 13.2145 12.7891 13.4539 12.8032C17.9183 13.1552 21.4955 16.7324 21.8476 21.1968C21.8616 21.4362 21.8757 21.6897 21.8757 21.9292Z" fill="#F3F7F8"/>
<path d="M11.4817 20.6898L12.721 18.4083L13.9604 20.6898L16.2419 21.9292L13.9604 23.1685L12.721 25.45L11.4817 23.1685L9.2002 21.9292L11.4817 20.6898Z" fill="#F3F7F8"/>
</svg>
