<svg width="34" height="34" viewBox="0 0 34 34" fill="none" xmlns="http://www.w3.org/2000/svg">
<path opacity="0.4" d="M30.9831 12.675V23.1812C30.9831 26.4063 28.3636 29.0117 25.1385 29.0117H8.66099C5.43591 29.0117 2.81641 26.4063 2.81641 23.1812V12.675H30.9831Z" fill="white"/>
<path d="M8.66113 5.43872H25.1387C28.0066 5.43882 30.3328 7.7546 30.333 10.6184V12.0247H3.4668V10.6184C3.46703 7.75455 5.79313 5.43872 8.66113 5.43872Z" fill="white" stroke="#F3F7F8" stroke-width="1.3"/>
<path d="M11.2665 24.2937H8.4498C7.87239 24.2937 7.39355 23.8149 7.39355 23.2375C7.39355 22.6601 7.87239 22.1812 8.4498 22.1812H11.2665C11.8439 22.1812 12.3227 22.6601 12.3227 23.2375C12.3227 23.8149 11.8439 24.2937 11.2665 24.2937Z" fill="#F3F7F8"/>
<path d="M20.421 24.2937H14.7877C14.2103 24.2937 13.7314 23.8149 13.7314 23.2375C13.7314 22.6601 14.2103 22.1812 14.7877 22.1812H20.421C20.9984 22.1812 21.4773 22.6601 21.4773 23.2375C21.4773 23.8149 20.9984 24.2937 20.421 24.2937Z" fill="#6F8DA1"/>
</svg>
