<svg width="34" height="35" viewBox="0 0 34 35" fill="none" xmlns="http://www.w3.org/2000/svg">
<path d="M25.4033 23.6265C25.4033 27.5789 21.6847 30.933 16.8994 30.9331C12.114 30.9331 8.39557 27.5789 8.39551 23.6265V22.6011C10.1107 25.0869 13.3326 26.6001 16.8994 26.6001C20.4662 26.6001 23.6882 25.0869 25.4033 22.6011V23.6265Z" fill="white" stroke="#F3F7F8" stroke-width="1.3"/>
<path opacity="0.4" d="M26.0534 11.374V18.4157C26.0534 22.8097 21.9552 25.9503 16.8993 25.9503C11.8434 25.9503 7.74512 22.8097 7.74512 18.4157V11.374C7.74512 12.6556 8.0972 13.8386 8.71687 14.8526C10.2238 17.3313 13.3221 18.9086 16.8993 18.9086C20.4764 18.9086 23.5748 17.3313 25.0817 14.8526C25.7014 13.8386 26.0534 12.6556 26.0534 11.374Z" fill="#F3F7F8"/>
<path d="M26.0534 11.3736C26.0534 12.6552 25.7014 13.8382 25.0817 14.8522C23.5748 17.3308 20.4764 18.9082 16.8993 18.9082C13.3221 18.9082 10.2238 17.3308 8.71687 14.8522C8.0972 13.8382 7.74512 12.6552 7.74512 11.3736C7.74512 6.97959 11.8434 3.4165 16.8993 3.4165C19.4343 3.4165 21.7158 4.30375 23.3776 5.74025C25.0254 7.19084 26.0534 9.17659 26.0534 11.3736Z" fill="#F3F7F8"/>
</svg>
