<svg width="21" height="24" viewBox="0 0 21 24" fill="none" xmlns="http://www.w3.org/2000/svg">
<path d="M13.8405 12.8924V17.0574C13.8405 20.5282 12.6294 21.9166 9.60166 21.9166H5.96835C2.94059 21.9166 1.72949 20.5282 1.72949 17.0574V12.8924C1.72949 9.42154 2.94059 8.0332 5.96835 8.0332H9.60166C12.6294 8.0332 13.8405 9.42154 13.8405 12.8924Z" fill="#F3F7F8"/>
<path opacity="0.4" d="M11.1602 2.41235H14.793C16.2636 2.41235 17.2086 2.75021 17.7998 3.42798C18.4011 4.11736 18.7031 5.23135 18.7031 6.94263V11.1077C18.7031 12.7937 18.4081 13.898 17.8232 14.5872C17.2953 15.2091 16.48 15.5495 15.252 15.6155V12.8928C15.252 10.7753 14.8245 9.15542 13.873 8.0647C12.9132 6.96449 11.4756 6.46411 9.60254 6.46411H7.27051C7.32377 5.00081 7.62571 4.02401 8.18359 3.40161C8.7741 2.74299 9.71091 2.41235 11.1602 2.41235Z" fill="#F3F7F8" stroke="#F3F7F8" stroke-width="0.658299"/>
</svg>
