<svg width="18" height="21" viewBox="0 0 18 21" fill="none" xmlns="http://www.w3.org/2000/svg">
<path d="M3.06031 0.539978C2.92298 0.392604 2.75738 0.274399 2.57338 0.192416C2.38938 0.110432 2.19076 0.066348 1.98935 0.0627945C1.78795 0.0592409 1.58789 0.0962902 1.40111 0.171732C1.21434 0.247174 1.04467 0.359463 0.90223 0.501901C0.759793 0.644338 0.647504 0.814006 0.572062 1.00078C0.49662 1.18756 0.45957 1.38762 0.463124 1.58902C0.466678 1.79043 0.510761 1.98906 0.592745 2.17305C0.674729 2.35705 0.792934 2.52265 0.940307 2.65998L5.11031 6.83198C5.62106 7.34297 6.22749 7.74833 6.89495 8.02489C7.56241 8.30146 8.27782 8.4438 9.00031 8.4438C9.72279 8.4438 10.4382 8.30146 11.1057 8.02489C11.7731 7.74833 12.3796 7.34297 12.8903 6.83198L17.0603 2.66098C17.3337 2.3782 17.4851 1.99937 17.4818 1.60607C17.4786 1.21277 17.321 0.836479 17.043 0.558234C16.7651 0.27999 16.3889 0.122059 15.9956 0.118457C15.6023 0.114856 15.2233 0.265871 14.9403 0.538977L10.7683 4.71098C10.5362 4.94319 10.2605 5.1274 9.95717 5.25308C9.65381 5.37876 9.32867 5.44344 9.00031 5.44344C8.67195 5.44344 8.3468 5.37876 8.04345 5.25308C7.74009 5.1274 7.46446 4.94319 7.23231 4.71098L3.06131 0.538977L3.06031 0.539978ZM3.06031 16.66C2.77596 16.9249 2.39986 17.0692 2.01126 17.0623C1.62266 17.0555 1.25189 16.898 0.977063 16.6232C0.702237 16.3484 0.544814 15.9776 0.537957 15.589C0.531101 15.2004 0.675347 14.8243 0.940307 14.54L5.11031 10.368C5.62106 9.85698 6.22749 9.45162 6.89495 9.17506C7.56241 8.8985 8.27782 8.75615 9.00031 8.75615C9.72279 8.75615 10.4382 8.8985 11.1057 9.17506C11.7731 9.45162 12.3796 9.85698 12.8903 10.368L17.0603 14.539C17.3337 14.8218 17.4851 15.2006 17.4818 15.5939C17.4786 15.9872 17.321 16.3635 17.043 16.6417C16.7651 16.92 16.3889 17.0779 15.9956 17.0815C15.6023 17.0851 15.2233 16.9341 14.9403 16.661L10.7683 12.489C10.5362 12.2568 10.2605 12.0726 9.95717 11.9469C9.65381 11.8212 9.32867 11.7565 9.00031 11.7565C8.67195 11.7565 8.3468 11.8212 8.04345 11.9469C7.74009 12.0726 7.46446 12.2568 7.23231 12.489L3.06131 16.661L3.06031 16.66Z" fill="#F2FBF9"/>
</svg>
