<svg width="18" height="19" viewBox="0 0 18 19" fill="none" xmlns="http://www.w3.org/2000/svg">
<path d="M1 9.98813C1.26522 9.98813 1.51956 10.091 1.70709 10.274C1.89463 10.457 2 10.7053 2 10.9641V17.7958C2 18.0547 1.89463 18.3029 1.70709 18.4859C1.51956 18.669 1.26522 18.7718 1 18.7718C0.734784 18.7718 0.480444 18.669 0.292908 18.4859C0.105371 18.3029 0 18.0547 0 17.7958V10.9641C0 10.7053 0.105371 10.457 0.292908 10.274C0.480444 10.091 0.734784 9.98813 1 9.98813ZM17 6.08428C17.2652 6.08428 17.5196 6.18711 17.7071 6.37014C17.8946 6.55316 18 6.80141 18 7.06025V17.7958C18 18.0547 17.8946 18.3029 17.7071 18.4859C17.5196 18.669 17.2652 18.7718 17 18.7718C16.7348 18.7718 16.4804 18.669 16.2929 18.4859C16.1054 18.3029 16 18.0547 16 17.7958V7.06025C16 6.80141 16.1054 6.55316 16.2929 6.37014C16.4804 6.18711 16.7348 6.08428 17 6.08428ZM6.341 0.228516C6.60622 0.228516 6.86056 0.331339 7.0481 0.514367C7.23563 0.697396 7.341 0.945636 7.341 1.20448V17.7958C7.341 18.0547 7.23563 18.3029 7.0481 18.4859C6.86056 18.669 6.60622 18.7718 6.341 18.7718C6.07579 18.7718 5.82145 18.669 5.63391 18.4859C5.44637 18.3029 5.341 18.0547 5.341 17.7958V1.20448C5.341 0.945636 5.44637 0.697396 5.63391 0.514367C5.82145 0.331339 6.07579 0.228516 6.341 0.228516Z" fill="white"/>
<path d="M11.5996 9.68848C11.8648 9.68848 12.1192 9.7913 12.3067 9.97433C12.4942 10.1574 12.5996 10.4056 12.5996 10.6644V17.4962C12.5996 17.755 12.4942 18.0033 12.3067 18.1863C12.1192 18.3693 11.8648 18.4721 11.5996 18.4721C11.3344 18.4721 11.08 18.3693 10.8925 18.1863C10.7049 18.0033 10.5996 17.755 10.5996 17.4962V10.6644C10.5996 10.4056 10.7049 10.1574 10.8925 9.97433C11.08 9.7913 11.3344 9.68848 11.5996 9.68848Z" fill="white"/>
</svg>
