<svg width="34" height="35" viewBox="0 0 34 35" fill="none" xmlns="http://www.w3.org/2000/svg">
<path d="M31.9133 7.13462C31.6317 6.62762 30.9839 6.43045 30.4769 6.71212L6.61971 19.8378C6.45071 19.0773 6.33803 18.2886 6.33803 17.5C6.33803 11.6695 11.07 6.93745 16.9005 6.93745C18.8863 6.93745 20.8157 7.4867 22.4776 8.52887C22.9705 8.8387 23.6183 8.68378 23.9281 8.19087C24.2379 7.69795 24.083 7.05012 23.5901 6.74028C21.5903 5.48687 19.2806 4.82495 16.9005 4.82495C9.9152 4.82495 4.22553 10.5146 4.22553 17.5C4.22553 18.6407 4.38045 19.7674 4.6762 20.8659C4.6762 20.88 4.6903 20.88 4.6903 20.894L2.31021 22.2038C1.80321 22.4855 1.60607 23.1333 1.88773 23.6403C2.0849 23.9924 2.43694 24.1895 2.81719 24.1895C2.98619 24.1895 3.16926 24.1473 3.32417 24.0628L31.4908 8.57112C31.9978 8.28945 32.195 7.64162 31.9133 7.13462Z" fill="white"/>
<path opacity="0.4" d="M30.793 12.2095C30.9747 12.1087 31.231 12.1749 31.3447 12.3794C31.4462 12.5621 31.3785 12.8177 31.1885 12.9312L28.9385 14.1704L28.5127 14.4038L28.6162 14.8784C28.8079 15.7545 28.9394 16.6199 28.9395 17.4995C28.9395 24.1257 23.5412 29.5247 16.915 29.5249C14.6414 29.5249 12.4379 28.896 10.5293 27.6948L10.5215 27.6909L10.4561 27.6411C10.319 27.5141 10.2896 27.3096 10.3955 27.1411C10.5185 26.9454 10.7669 26.8928 10.9492 27.0073L10.9521 27.0093C12.7294 28.1144 14.7775 28.7124 16.9004 28.7124C23.0899 28.7124 28.1133 23.689 28.1133 17.4995C28.1133 16.8722 28.0367 16.2701 27.9512 15.6997L27.8125 14.7759L26.9951 15.2261L3.0127 28.4214C2.96062 28.4497 2.8861 28.4682 2.81738 28.4683C2.688 28.4683 2.56911 28.4131 2.4873 28.3022L2.45508 28.2515C2.35614 28.0706 2.42137 27.8167 2.62305 27.7026L27.6777 13.9292L27.7588 13.8843L27.7734 13.8687C27.7827 13.8639 27.794 13.8586 27.8057 13.8521C27.8098 13.8497 27.8139 13.8468 27.8184 13.8442L30.79 12.2104L30.793 12.2095Z" fill="white" stroke="#F3F7F8" stroke-width="1.3"/>
</svg>
