<svg width="34" height="35" viewBox="0 0 34 35" fill="none" xmlns="http://www.w3.org/2000/svg">
<path d="M26.6455 15.2633H29.5635C30.0056 15.285 30.333 15.6375 30.333 16.0494V18.9508C30.3329 19.3629 30.0051 19.7157 29.5625 19.7369H26.8145C25.5804 19.7369 24.5157 18.8349 24.4209 17.6998L24.4199 17.692L24.4102 17.4381C24.4226 16.8532 24.6708 16.3146 25.0713 15.9235L25.083 15.9117C25.4808 15.5032 26.031 15.2633 26.6455 15.2633Z" fill="white" stroke="#F3F7F8" stroke-width="1.3"/>
<path opacity="0.4" d="M24.6184 15.4578C24.0269 16.0352 23.6889 16.8661 23.7734 17.7534C23.9001 19.2744 25.2944 20.387 26.8154 20.387H29.5757V22.4291C29.5757 26.6541 26.7591 29.4707 22.5341 29.4707H9.85905C5.63405 29.4707 2.81738 26.6541 2.81738 22.4291V12.5707C2.81738 8.74005 5.12705 6.06422 8.7183 5.61355C9.08447 5.55722 9.46472 5.52905 9.85905 5.52905H22.5341C22.9002 5.52905 23.2523 5.54312 23.5903 5.59945C27.2238 6.02195 29.5757 8.71189 29.5757 12.5707V14.6128H26.6464C25.8577 14.6128 25.1394 14.9226 24.6184 15.4578Z" fill="#F3F7F8"/>
<path d="M18.308 14.3313H9.85801C9.28059 14.3313 8.80176 13.8524 8.80176 13.275C8.80176 12.6976 9.28059 12.2188 9.85801 12.2188H18.308C18.8854 12.2188 19.3643 12.6976 19.3643 13.275C19.3643 13.8524 18.8854 14.3313 18.308 14.3313Z" fill="#F3F7F8"/>
</svg>
