<svg width="17" height="17" viewBox="0 0 17 17" fill="none" xmlns="http://www.w3.org/2000/svg">
<path d="M8.79703 11.5102C8.93427 11.5103 9.07016 11.4832 9.19696 11.4307C9.32376 11.3782 9.43899 11.3013 9.53604 11.2042L13.436 7.30425C13.6319 7.10839 13.7419 6.84275 13.7419 6.56576C13.7419 6.28876 13.6319 6.02312 13.436 5.82726C13.2402 5.6314 12.9745 5.52135 12.6975 5.52135C12.4205 5.52135 12.1549 5.6314 11.959 5.82726L8.79504 8.22725L5.63104 5.82726C5.43518 5.6314 5.16954 5.52135 4.89255 5.52135C4.61556 5.52135 4.34988 5.6314 4.15402 5.82726C3.95816 6.02312 3.84814 6.28876 3.84814 6.56576C3.84814 6.84275 3.95816 7.10839 4.15402 7.30425L8.05405 11.2042C8.15154 11.3018 8.2674 11.3791 8.39493 11.4316C8.52246 11.4841 8.65911 11.5108 8.79703 11.5102Z" fill="#C0C9EA"/>
</svg>
