<svg width="29" height="28" viewBox="0 0 29 28" fill="none" xmlns="http://www.w3.org/2000/svg">
<path opacity="0.4" d="M3.73183 11.6695C3.23016 11.6695 2.8335 11.2728 2.8335 10.7712V8.07618C2.8335 4.91452 5.41183 2.33618 8.5735 2.33618H11.2685C11.7702 2.33618 12.1668 2.73285 12.1668 3.23452C12.1668 3.73618 11.7702 4.13285 11.2685 4.13285H8.5735C6.39183 4.13285 4.63016 5.90618 4.63016 8.07618V10.7712C4.63016 11.2728 4.22183 11.6695 3.73183 11.6695Z" fill="#3976F8"/>
<path opacity="0.4" d="M25.2685 11.6695C24.7785 11.6695 24.3702 11.2728 24.3702 10.7712V8.07618C24.3702 5.89452 22.5968 4.13285 20.4268 4.13285H17.7318C17.2302 4.13285 16.8335 3.72452 16.8335 3.23452C16.8335 2.74452 17.2302 2.33618 17.7318 2.33618H20.4268C23.5885 2.33618 26.1668 4.91452 26.1668 8.07618V10.7712C26.1668 11.2728 25.7702 11.6695 25.2685 11.6695Z" fill="#3976F8"/>
<path d="M20.4267 25.6695H18.8051C18.3151 25.6695 17.9067 25.2728 17.9067 24.7711C17.9067 24.2811 18.3034 23.8728 18.8051 23.8728H20.4267C22.6084 23.8728 24.3701 22.0995 24.3701 19.9295V18.3195C24.3701 17.8295 24.7667 17.4211 25.2684 17.4211C25.7584 17.4211 26.1667 17.8178 26.1667 18.3195V19.9295C26.1667 23.0911 23.5884 25.6695 20.4267 25.6695Z" fill="#3976F8"/>
<path d="M11.2685 25.6695H8.5735C5.41183 25.6695 2.8335 23.0912 2.8335 19.9295V17.2345C2.8335 16.7328 3.23016 16.3362 3.73183 16.3362C4.2335 16.3362 4.63016 16.7328 4.63016 17.2345V19.9295C4.63016 22.1112 6.4035 23.8728 8.5735 23.8728H11.2685C11.7585 23.8728 12.1668 24.2695 12.1668 24.7712C12.1668 25.2728 11.7702 25.6695 11.2685 25.6695Z" fill="#3976F8"/>
<path d="M22.0366 13.1045H20.4499H8.54994H6.96327C6.46161 13.1045 6.06494 13.5128 6.06494 14.0028C6.06494 14.4928 6.46161 14.9012 6.96327 14.9012H8.54994H20.4499H22.0366C22.5383 14.9012 22.9349 14.4928 22.9349 14.0028C22.9349 13.5128 22.5383 13.1045 22.0366 13.1045Z" fill="#3976F8"/>
<path d="M8.5498 16.2662V16.6512C8.5498 18.5879 10.1131 20.1512 12.0498 20.1512H16.9498C18.8865 20.1512 20.4498 18.5879 20.4498 16.6512V16.2662C20.4498 16.1262 20.3448 16.0212 20.2048 16.0212H8.7948C8.6548 16.0212 8.5498 16.1262 8.5498 16.2662Z" fill="#3976F8"/>
<path opacity="0.4" d="M8.5498 11.7395V11.3545C8.5498 9.41783 10.1131 7.85449 12.0498 7.85449H16.9498C18.8865 7.85449 20.4498 9.41783 20.4498 11.3545V11.7395C20.4498 11.8795 20.3448 11.9845 20.2048 11.9845H8.7948C8.6548 11.9845 8.5498 11.8795 8.5498 11.7395Z" fill="#3976F8"/>
</svg>
