<svg width="21" height="20" viewBox="0 0 21 20" fill="none" xmlns="http://www.w3.org/2000/svg">
<path opacity="0.4" d="M18.7044 10.2497V14.2788C18.7044 16.6963 17.0928 18.308 14.6753 18.308H6.61702C4.19954 18.308 2.58789 16.6963 2.58789 14.2788V10.2497C2.58789 8.05787 3.90945 6.52679 5.9643 6.26893C6.17382 6.2367 6.39139 6.22058 6.61702 6.22058H14.6753C14.8848 6.22058 15.0863 6.22863 15.2797 6.26086C17.3587 6.50261 18.7044 8.04175 18.7044 10.2497Z" fill="#F3F7F8"/>
<path d="M15.2802 6.26083C15.0868 6.2286 14.8853 6.22055 14.6758 6.22055H6.61756C6.39193 6.22055 6.17436 6.23666 5.96484 6.2689C6.07766 6.04326 6.23882 5.83375 6.43222 5.64035L9.05116 3.01335C10.1551 1.91743 11.9441 1.91743 13.0481 3.01335L14.4583 4.43968C14.974 4.94735 15.248 5.59199 15.2802 6.26083Z" fill="#F3F7F8"/>
<path d="M18.7039 10.6526H16.2865C15.4 10.6526 14.6748 11.3778 14.6748 12.2642C14.6748 13.1507 15.4 13.8759 16.2865 13.8759H18.7039" fill="#F3F7F8"/>
</svg>
