<svg width="34" height="34" viewBox="0 0 34 34" fill="none" xmlns="http://www.w3.org/2000/svg">
<path d="M8.53383 22.1418L16.4346 8.60769C16.6599 8.21336 17.2232 8.18519 17.4908 8.55136L19.6878 11.4948C20.3216 12.3398 20.3638 13.4805 19.8146 14.3819L15.1107 21.9164C14.646 22.6629 13.8292 23.1135 12.9419 23.1135H9.0831C8.59018 23.0994 8.28033 22.5643 8.53383 22.1418Z" fill="white"/>
<path d="M24.7012 22.4497H19.3242L22.0127 17.9683L24.7012 22.4497Z" fill="white" stroke="#F3F7F8" stroke-width="1.3"/>
<path opacity="0.4" d="M16.9007 31.1833C24.6787 31.1833 30.9841 24.8779 30.9841 17.0999C30.9841 9.32193 24.6787 3.0166 16.9007 3.0166C9.12271 3.0166 2.81738 9.32193 2.81738 17.0999C2.81738 24.8779 9.12271 31.1833 16.9007 31.1833Z" fill="#F3F7F8"/>
</svg>
