<svg width="34" height="35" viewBox="0 0 34 35" fill="none" xmlns="http://www.w3.org/2000/svg">
<path d="M16.4069 3.70921L8.9427 11.1734C8.66103 11.455 8.66103 11.8916 8.9427 12.1733L10.7594 13.99C11.0411 14.2717 11.4777 14.2717 11.7594 13.99L16.3928 9.35663C16.6744 9.07497 17.111 9.07497 17.3927 9.35663L22.0261 13.99C22.3078 14.2717 22.7444 14.2717 23.026 13.99L24.8428 12.1733C25.1244 11.8916 25.1244 11.455 24.8428 11.1734L17.3927 3.7233C17.1251 3.44163 16.6744 3.44163 16.4069 3.70921Z" fill="white"/>
<path d="M22.5566 21.0654C22.5622 21.0678 22.5707 21.0726 22.5811 21.083L24.3975 22.8994C24.408 22.91 24.4128 22.9193 24.415 22.9248C24.4174 22.9305 24.4189 22.9359 24.4189 22.9404C24.4189 22.9449 24.4174 22.9504 24.415 22.9561C24.4127 22.9616 24.4077 22.9702 24.3975 22.9805L16.957 30.4199C16.9432 30.4321 16.9245 30.4404 16.9023 30.4404C16.8797 30.4404 16.8697 30.4331 16.8672 30.4307L9.41699 22.9805C9.40663 22.9701 9.40175 22.9616 9.39941 22.9561C9.39707 22.9504 9.39653 22.9449 9.39648 22.9404C9.39648 22.9359 9.39709 22.9305 9.39941 22.9248C9.4017 22.9193 9.40642 22.91 9.41699 22.8994L11.2334 21.083C11.244 21.0724 11.2533 21.0677 11.2588 21.0654C11.2645 21.0631 11.2699 21.0625 11.2744 21.0625C11.2789 21.0625 11.2844 21.0631 11.29 21.0654C11.2956 21.0678 11.3041 21.0727 11.3145 21.083L15.9482 25.7168C16.4837 26.2519 17.3318 26.2521 17.8672 25.7168L22.5 21.083C22.5106 21.0724 22.5199 21.0677 22.5254 21.0654C22.5311 21.0631 22.5365 21.0625 22.541 21.0625C22.5456 21.0625 22.551 21.0631 22.5566 21.0654Z" fill="white" stroke="#F3F7F8" stroke-width="1.3"/>
<path opacity="0.4" d="M28.3077 14.6243L30.4766 16.7931C30.7582 17.0748 30.7582 17.5113 30.4766 17.793L28.3077 19.9759C28.0261 20.2576 27.5895 20.2576 27.3078 19.9759L25.139 17.8071C24.8573 17.5254 24.8573 17.0888 25.139 16.8072L27.3078 14.6383C27.5895 14.3567 28.0402 14.3567 28.3077 14.6243Z" fill="#F3F7F8"/>
<path opacity="0.4" d="M6.47863 14.624L8.64747 16.7929C8.92913 17.0745 8.92913 17.5111 8.64747 17.7928L6.47863 19.9757C6.19697 20.2574 5.76038 20.2574 5.47872 19.9757L3.30988 17.8069C3.02822 17.5252 3.02822 17.0886 3.30988 16.8069L5.4928 14.624C5.76038 14.3564 6.21105 14.3564 6.47863 14.624Z" fill="#F3F7F8"/>
<path opacity="0.4" d="M17.3934 14.3143L19.8861 16.807C20.1678 17.0887 20.1678 17.5253 19.8861 17.8069L17.3934 20.2997C17.1117 20.5814 16.6751 20.5814 16.3935 20.2997L13.9007 17.8069C13.619 17.5253 13.619 17.0887 13.9007 16.807L16.3935 14.3143C16.6751 14.0326 17.1258 14.0326 17.3934 14.3143Z" fill="#6F8DA1"/>
</svg>
