<svg width="34" height="34" viewBox="0 0 34 34" fill="none" xmlns="http://www.w3.org/2000/svg">
<path d="M16.0546 3.50977L8.81574 10.7627C8.53408 11.0444 8.53408 11.4809 8.81574 11.7626L11.2522 14.199C11.5338 14.4807 11.9704 14.4807 12.2521 14.199L19.505 6.9461C19.7867 6.66444 19.7867 6.22785 19.505 5.94619L17.0686 3.50977C16.7728 3.24219 16.3362 3.24219 16.0546 3.50977Z" fill="white"/>
<path opacity="0.4" d="M22.0068 9.47607C22.0364 9.44646 22.0843 9.44586 22.1133 9.47314L24.5381 11.8979C24.5487 11.9085 24.5534 11.9178 24.5557 11.9233C24.5579 11.929 24.5586 11.9345 24.5586 11.939C24.5585 11.9435 24.558 11.9489 24.5557 11.9546C24.5533 11.9601 24.5484 11.9686 24.5381 11.979L11.792 24.7241C11.7815 24.7346 11.7731 24.7394 11.7676 24.7417C11.7618 24.7441 11.7565 24.7456 11.752 24.7456C11.7474 24.7456 11.7421 24.7441 11.7363 24.7417C11.7308 24.7394 11.7223 24.7345 11.7119 24.7241L9.27539 22.2876C9.26493 22.2771 9.2601 22.2687 9.25781 22.2632C9.2554 22.2574 9.25488 22.2522 9.25488 22.2476C9.25488 22.2429 9.2554 22.2377 9.25781 22.2319C9.2601 22.2264 9.26493 22.218 9.27539 22.2075L22.0068 9.47607Z" fill="white" stroke="#F3F7F8" stroke-width="1.3"/>
<path d="M27.0533 14.5091L14.3079 27.2545C14.0263 27.5362 14.0263 27.9728 14.3079 28.2544L16.7443 30.6909C17.026 30.9725 17.4626 30.9725 17.7443 30.6909L30.4897 17.9454C30.7713 17.6638 30.7713 17.2272 30.4897 16.9455L28.0533 14.5091C27.7716 14.2274 27.3209 14.2274 27.0533 14.5091Z" fill="#F3F7F8"/>
<path opacity="0.4" d="M5.76095 19.6919L3.32453 17.2555C3.04286 16.9738 3.04286 16.5372 3.32453 16.2556L5.76095 13.8192C6.04261 13.5375 6.4792 13.5375 6.76086 13.8192L9.19728 16.2556C9.47895 16.5372 9.47895 16.9738 9.19728 17.2555L6.76086 19.6919C6.4792 19.9736 6.02853 19.9736 5.76095 19.6919Z" fill="#F3F7F8"/>
</svg>
