<svg width="24" height="25" viewBox="0 0 24 25" fill="none" xmlns="http://www.w3.org/2000/svg">
<path opacity="0.4" d="M12 22.6001C17.5228 22.6001 22 18.1229 22 12.6001C22 7.07725 17.5228 2.6001 12 2.6001C6.47715 2.6001 2 7.07725 2 12.6001C2 18.1229 6.47715 22.6001 12 22.6001Z" fill="#F3F7F8"/>
<path d="M16.4898 12.2101C16.8698 11.7201 17.1098 11.1001 17.1098 10.4301C17.1098 8.8801 15.7498 7.5101 14.1898 7.5101H13.3098V6.1001C13.3098 5.6901 12.9698 5.3501 12.5598 5.3501C12.1498 5.3501 11.8098 5.6901 11.8098 6.1001V7.5201H10.8298H10.5998V6.1001C10.5998 5.6901 10.2598 5.3501 9.8498 5.3501C9.4398 5.3501 9.1198 5.6901 9.1198 6.1001V7.5201H8.7798H7.0498C6.6398 7.5201 6.2998 7.8601 6.2998 8.2701C6.2998 8.6801 6.6398 9.0201 7.0498 9.0201H8.0298V12.6001V16.1801H7.0498C6.6398 16.1801 6.2998 16.5201 6.2998 16.9301C6.2998 17.3401 6.6398 17.6801 7.0498 17.6801H8.7798H9.1098V19.1001C9.1098 19.5101 9.4498 19.8501 9.8598 19.8501C10.2698 19.8501 10.6098 19.5101 10.6098 19.1001V17.6801H10.8398H11.8198V19.1001C11.8198 19.5101 12.1598 19.8501 12.5698 19.8501C12.9798 19.8501 13.3198 19.5101 13.3198 19.1001V17.6801H14.9698C16.7498 17.6801 18.1998 16.3701 18.1998 14.7601C18.1998 13.6601 17.4998 12.7001 16.4898 12.2101ZM10.8398 9.0201H14.1998C14.9998 9.0201 15.6198 9.7801 15.6198 10.4401C15.6198 11.2201 14.9798 11.8601 14.1998 11.8601H9.5298V9.0201H10.8398ZM14.9698 16.1801H10.8398H9.5298V13.3501H14.1998H14.9698C15.9198 13.3501 16.6998 13.9901 16.6998 14.7701C16.6998 15.5501 15.9198 16.1801 14.9698 16.1801Z" fill="#F3F7F8"/>
</svg>
