<svg width="34" height="35" viewBox="0 0 34 35" fill="none" xmlns="http://www.w3.org/2000/svg">
<path opacity="0.4" d="M9.71732 13.4159L16.4351 10.4302C16.7308 10.3035 17.0688 10.3035 17.3505 10.4302L24.0823 13.4159C24.6738 13.6835 25.2231 12.9652 24.8147 12.4582L17.773 3.85329C17.2941 3.26179 16.5055 3.26179 16.0266 3.85329L8.98498 12.4582C8.57657 12.9652 9.12582 13.6835 9.71732 13.4159Z" fill="white"/>
<path opacity="0.4" d="M17.2852 30.7354L17.2822 30.7383C17.1566 30.8933 17.0204 30.9403 16.915 30.9404C16.8096 30.9404 16.6727 30.8936 16.5469 30.7383L16.5449 30.7354L9.59277 22.2402L16.1865 25.1641L16.1934 25.167C16.6483 25.362 17.1766 25.3678 17.6318 25.1631L17.6309 25.1621L24.2432 22.2295L17.2852 30.7354Z" fill="white" stroke="#F3F7F8" stroke-width="1.3"/>
<path d="M16.591 13.9655L10.7746 16.8667C10.2535 17.1202 10.2535 17.8666 10.7746 18.1201L16.591 21.0213C16.7882 21.1199 17.0276 21.1199 17.2248 21.0213L23.0412 18.1201C23.5623 17.8666 23.5623 17.1202 23.0412 16.8667L17.2248 13.9655C17.0135 13.867 16.7882 13.867 16.591 13.9655Z" fill="#F3F7F8"/>
</svg>
