<svg width="24" height="25" viewBox="0 0 24 25" fill="none" xmlns="http://www.w3.org/2000/svg">
<path d="M6.06031 4.73962C5.92298 4.59225 5.75738 4.47405 5.57338 4.39206C5.38938 4.31008 5.19076 4.26599 4.98935 4.26244C4.78795 4.25889 4.58789 4.29594 4.40111 4.37138C4.21434 4.44682 4.04467 4.55911 3.90223 4.70155C3.75979 4.84398 3.6475 5.01365 3.57206 5.20043C3.49662 5.3872 3.45957 5.58726 3.46312 5.78867C3.46668 5.99007 3.51076 6.1887 3.59275 6.3727C3.67473 6.5567 3.79293 6.7223 3.94031 6.85962L8.11031 11.0316C8.62106 11.5426 9.22749 11.948 9.89495 12.2245C10.5624 12.5011 11.2778 12.6434 12.0003 12.6434C12.7228 12.6434 13.4382 12.5011 14.1057 12.2245C14.7731 11.948 15.3796 11.5426 15.8903 11.0316L20.0603 6.86062C20.3337 6.57785 20.4851 6.19902 20.4818 5.80572C20.4786 5.41242 20.321 5.03612 20.043 4.75788C19.7651 4.47964 19.3889 4.32171 18.9956 4.3181C18.6023 4.3145 18.2233 4.46552 17.9403 4.73862L13.7683 8.91062C13.5362 9.14284 13.2605 9.32705 12.9572 9.45273C12.6538 9.5784 12.3287 9.64309 12.0003 9.64309C11.6719 9.64309 11.3468 9.5784 11.0434 9.45273C10.7401 9.32705 10.4645 9.14284 10.2323 8.91062L6.06131 4.73862L6.06031 4.73962ZM6.06031 20.8596C5.77596 21.1246 5.39986 21.2688 5.01126 21.262C4.62266 21.2551 4.25189 21.0977 3.97706 20.8229C3.70224 20.548 3.54481 20.1773 3.53796 19.7887C3.5311 19.4001 3.67535 19.024 3.94031 18.7396L8.11031 14.5676C8.62106 14.0566 9.22749 13.6513 9.89495 13.3747C10.5624 13.0981 11.2778 12.9558 12.0003 12.9558C12.7228 12.9558 13.4382 13.0981 14.1057 13.3747C14.7731 13.6513 15.3796 14.0566 15.8903 14.5676L20.0603 18.7386C20.3337 19.0214 20.4851 19.4002 20.4818 19.7935C20.4786 20.1868 20.321 20.5631 20.043 20.8414C19.7651 21.1196 19.3889 21.2775 18.9956 21.2811C18.6023 21.2847 18.2233 21.1337 17.9403 20.8606L13.7683 16.6886C13.5362 16.4564 13.2605 16.2722 12.9572 16.1465C12.6538 16.0208 12.3287 15.9562 12.0003 15.9562C11.6719 15.9562 11.3468 16.0208 11.0434 16.1465C10.7401 16.2722 10.4645 16.4564 10.2323 16.6886L6.06131 20.8606L6.06031 20.8596Z" fill="#F2FBF9"/>
</svg>
