<svg width="34" height="34" viewBox="0 0 34 34" fill="none" xmlns="http://www.w3.org/2000/svg">
<path opacity="0.4" d="M8.60449 5.60791H20.9844C22.4762 5.60795 23.6887 5.92489 24.584 6.54346C25.462 7.15019 26.0945 8.08821 26.3701 9.46338H26.3711C26.4654 10.0022 26.5312 10.5405 26.5312 11.1538V18.4067C26.5312 20.4517 25.9496 21.8058 25.0342 22.6558C24.1101 23.5137 22.7435 23.9536 20.9844 23.9536H8.60449C8.00838 23.9536 7.45222 23.9006 6.94531 23.7866L6.9248 23.7817L6.90527 23.7788L6.68066 23.7358C6.53153 23.703 6.38395 23.6622 6.23926 23.6157L6.02441 23.5425C5.09173 23.1932 4.36622 22.626 3.86621 21.8159C3.36086 20.997 3.05859 19.8835 3.05859 18.4067V11.1538C3.05866 9.10909 3.6394 7.7557 4.55469 6.90576C5.47872 6.04774 6.84531 5.60797 8.60449 5.60791Z" fill="white" stroke="#F3F7F8" stroke-width="1.3"/>
<path d="M31.4053 15.3792V22.6321C31.4053 26.9698 28.9267 28.8288 25.2087 28.8288H12.8294C11.7873 28.8288 10.8437 28.688 10.0269 28.3782C8.35094 27.7585 7.21017 26.4769 6.80176 24.4207C7.36509 24.5475 7.97067 24.6038 8.60442 24.6038H20.9837C24.7017 24.6038 27.1803 22.7448 27.1803 18.4071V11.1542C27.1803 10.4923 27.124 9.90081 27.0114 9.35156C29.6872 9.9149 31.4053 11.802 31.4053 15.3792Z" fill="#F3F7F8"/>
<path d="M14.7874 18.5059C16.8408 18.5059 18.5054 16.8412 18.5054 14.7878C18.5054 12.7345 16.8408 11.0698 14.7874 11.0698C12.734 11.0698 11.0693 12.7345 11.0693 14.7878C11.0693 16.8412 12.734 18.5059 14.7874 18.5059Z" fill="#F3F7F8"/>
<path d="M6.73203 11.6187C6.15461 11.6187 5.67578 12.0975 5.67578 12.6749V16.8999C5.67578 17.4773 6.15461 17.9562 6.73203 17.9562C7.30945 17.9562 7.78828 17.4773 7.78828 16.8999V12.6749C7.78828 12.0975 7.32353 11.6187 6.73203 11.6187Z" fill="#F3F7F8"/>
<path d="M22.8287 11.6187C22.2513 11.6187 21.7725 12.0975 21.7725 12.6749V16.8999C21.7725 17.4773 22.2513 17.9562 22.8287 17.9562C23.4061 17.9562 23.885 17.4773 23.885 16.8999V12.6749C23.885 12.0975 23.4202 11.6187 22.8287 11.6187Z" fill="#F3F7F8"/>
</svg>
