<svg width="22" height="22" viewBox="0 0 22 22" fill="none" xmlns="http://www.w3.org/2000/svg">
<path opacity="0.4" d="M17.7281 13.2824L16.8115 11.7607C16.619 11.4215 16.4448 10.7799 16.4448 10.404V8.08487C16.4448 5.09654 14.0156 2.6582 11.0181 2.6582C8.02062 2.6582 5.59145 5.09654 5.59145 8.08487V10.404C5.59145 10.7799 5.41728 11.4215 5.22478 11.7515L4.29895 13.2824C3.93228 13.8965 3.84978 14.5749 4.07895 15.1982C4.29895 15.8124 4.82145 16.289 5.49978 16.5182C7.27812 17.1232 9.14812 17.4165 11.0181 17.4165C12.8881 17.4165 14.7581 17.1232 16.5365 16.5274C17.1781 16.3165 17.6731 15.8307 17.9115 15.1982C18.1498 14.5657 18.0856 13.869 17.7281 13.2824Z" fill="#1929FF"/>
<path d="M13.0626 3.0435C12.4301 2.796 11.7426 2.6585 11.0184 2.6585C10.3034 2.6585 9.6159 2.78683 8.9834 3.0435C9.37757 2.301 10.1567 1.8335 11.0184 1.8335C11.8892 1.8335 12.6592 2.301 13.0626 3.0435Z" fill="#1929FF"/>
<path d="M13.5942 18.3427C13.2092 19.406 12.1917 20.1668 11 20.1668C10.2759 20.1668 9.56087 19.8735 9.05671 19.351C8.76337 19.076 8.54337 18.7093 8.41504 18.3335C8.53421 18.3518 8.65337 18.361 8.78171 18.3793C8.99254 18.4068 9.21254 18.4343 9.43254 18.4527C9.95504 18.4985 10.4867 18.526 11.0184 18.526C11.5409 18.526 12.0634 18.4985 12.5767 18.4527C12.7692 18.4343 12.9617 18.4252 13.145 18.3977C13.2917 18.3793 13.4384 18.361 13.5942 18.3427Z" fill="#1929FF"/>
</svg>
