<svg width="34" height="35" viewBox="0 0 34 35" fill="none" xmlns="http://www.w3.org/2000/svg">
<path d="M30.1108 16.7258L23.7733 13.0642C23.4494 12.8811 23.0409 12.8811 22.717 13.0642L16.3795 16.7258C16.3795 16.7258 16.3795 16.7399 16.3654 16.7399L10.5631 20.0917L5.28185 17.0357V10.9235L10.5631 7.86741L15.8443 10.9235V12.529C15.8443 13.1064 16.3232 13.5852 16.9006 13.5852C17.478 13.5852 17.9568 13.1064 17.9568 12.529V10.3179C17.9568 9.93766 17.7597 9.58558 17.4217 9.40249L11.0842 5.74083C10.7603 5.55774 10.3518 5.55774 10.0279 5.74083L3.69043 9.40249C3.36651 9.58558 3.15527 9.93766 3.15527 10.3179V17.6412C3.15527 18.0215 3.35243 18.3736 3.69043 18.5567L10.0279 22.2183C10.1969 22.3169 10.38 22.3592 10.5631 22.3592C10.7462 22.3592 10.9293 22.3169 11.0983 22.2183L17.4358 18.5567C17.4358 18.5567 17.4358 18.5426 17.4498 18.5426L23.2522 15.1907L28.5334 18.2468V24.3449L23.2522 27.401L17.9709 24.3449V22.6267C17.9709 22.0493 17.4921 21.5705 16.9147 21.5705C16.3373 21.5705 15.8584 22.0493 15.8584 22.6267V24.9505C15.8584 25.3307 16.0556 25.6828 16.3936 25.8659L22.7311 29.5276C22.9001 29.6262 23.0832 29.6684 23.2663 29.6684C23.4494 29.6684 23.6324 29.6262 23.8014 29.5276L30.1389 25.8659C30.4628 25.6828 30.6741 25.3307 30.6741 24.9505V17.6272C30.6318 17.261 30.4347 16.9089 30.1108 16.7258Z" fill="white"/>
<path opacity="0.4" d="M10.1855 10.0771C10.4201 9.94115 10.7059 9.94109 10.9404 10.0771L10.9434 10.0791L13.7578 11.6963V11.6973C13.9933 11.8342 14.1377 12.0847 14.1377 12.3604V15.6133C14.1377 15.889 13.9934 16.1394 13.7578 16.2764L10.9434 17.8945L10.9404 17.8965C10.7059 18.0325 10.4201 18.0325 10.1855 17.8965L10.1826 17.8945L7.36816 16.2764C7.13254 16.1394 6.98828 15.8891 6.98828 15.6133V12.3604C6.98828 12.0846 7.13256 11.8342 7.36816 11.6973L7.36719 11.6963L10.1826 10.0791L10.1855 10.0771Z" fill="white" stroke="#F3F7F8" stroke-width="1.3"/>
<path opacity="0.4" d="M19.0127 19.6834V22.9366C19.0127 23.4436 19.2803 23.9084 19.7169 24.1619L22.5335 25.7815C22.9701 26.035 23.5053 26.035 23.9419 25.7815L26.7585 24.1619C27.1951 23.9084 27.4627 23.4436 27.4627 22.9366V19.6834C27.4627 19.1764 27.1951 18.7116 26.7585 18.4581L23.9419 16.8386C23.5053 16.5851 22.9701 16.5851 22.5335 16.8386L19.7169 18.4581C19.2803 18.7116 19.0127 19.1764 19.0127 19.6834Z" fill="#F3F7F8"/>
</svg>
