<svg width="34" height="35" viewBox="0 0 34 35" fill="none" xmlns="http://www.w3.org/2000/svg">
<path d="M31.9133 7.33457C31.6317 6.82757 30.9839 6.6304 30.4769 6.91207L6.61971 20.0377C6.45071 19.2772 6.33803 18.4886 6.33803 17.6999C6.33803 11.8694 11.07 7.1374 16.9005 7.1374C18.8863 7.1374 20.8157 7.68665 22.4776 8.72882C22.9705 9.03865 23.6183 8.88374 23.9281 8.39082C24.2379 7.8979 24.083 7.25007 23.5901 6.94024C21.5903 5.68682 19.2806 5.0249 16.9005 5.0249C9.9152 5.0249 4.22553 10.7146 4.22553 17.6999C4.22553 18.8407 4.38045 19.9673 4.6762 21.0658C4.6762 21.0799 4.6903 21.0799 4.6903 21.094L2.31021 22.4037C1.80321 22.6854 1.60607 23.3332 1.88773 23.8402C2.0849 24.1923 2.43694 24.3895 2.81719 24.3895C2.98619 24.3895 3.16926 24.3472 3.32417 24.2627L31.4908 8.77107C31.9978 8.4894 32.195 7.84157 31.9133 7.33457Z" fill="white"/>
<path opacity="0.4" d="M30.793 12.4092C30.9747 12.3084 31.231 12.3746 31.3447 12.5791C31.4462 12.7618 31.3785 13.0174 31.1885 13.1309L28.9385 14.3701L28.5127 14.6035L28.6162 15.0781C28.8079 15.9542 28.9394 16.8196 28.9395 17.6992C28.9395 24.3254 23.5412 29.7244 16.915 29.7246C14.6414 29.7246 12.4379 29.0957 10.5293 27.8945L10.5215 27.8906L10.4561 27.8408C10.319 27.7138 10.2896 27.5094 10.3955 27.3408C10.5185 27.1451 10.7669 27.0925 10.9492 27.207L10.9521 27.209C12.7294 28.3141 14.7775 28.9121 16.9004 28.9121C23.0899 28.9121 28.1133 23.8887 28.1133 17.6992C28.1133 17.0719 28.0367 16.4698 27.9512 15.8994L27.8125 14.9756L26.9951 15.4258L3.0127 28.6211C2.96062 28.6494 2.8861 28.6679 2.81738 28.668C2.688 28.668 2.56911 28.6128 2.4873 28.502L2.45508 28.4512C2.35614 28.2703 2.42137 28.0164 2.62305 27.9023L27.6777 14.1289L27.7588 14.084L27.7734 14.0684C27.7827 14.0636 27.794 14.0583 27.8057 14.0518C27.8098 14.0495 27.8139 14.0466 27.8184 14.0439L30.79 12.4102L30.793 12.4092Z" fill="white" stroke="#F3F7F8" stroke-width="1.3"/>
</svg>
