<svg width="34" height="35" viewBox="0 0 34 35" fill="none" xmlns="http://www.w3.org/2000/svg">
<path opacity="0.4" d="M10.52 5.51807H23.2795C24.7723 5.51807 26.5328 6.60248 27.1947 7.9404L30.5747 14.7286C31.3915 16.3622 30.9408 18.686 29.6029 19.9112L19.8432 28.7697C18.2236 30.2343 15.59 30.2343 13.9704 28.7697L4.21068 19.9112C2.85868 18.686 2.42209 16.3622 3.23893 14.7286L6.61893 7.9404C7.26676 6.60248 9.02718 5.51807 10.52 5.51807Z" fill="white"/>
<path d="M11.2676 12.3652H22.5342C22.7525 12.3654 22.9404 12.5532 22.9404 12.7715C22.9402 12.9896 22.7523 13.1776 22.5342 13.1777H17.3066V21.2207C17.3066 21.4391 17.1188 21.627 16.9004 21.627C16.682 21.6269 16.4941 21.4391 16.4941 21.2207V13.1777H11.2676C11.0493 13.1777 10.8616 12.9897 10.8613 12.7715C10.8613 12.5531 11.0491 12.3652 11.2676 12.3652Z" fill="white" stroke="#F3F7F8" stroke-width="1.3"/>
</svg>
