<svg width="34" height="35" viewBox="0 0 34 35" fill="none" xmlns="http://www.w3.org/2000/svg">
<path opacity="0.4" d="M10.52 5.11816H23.2795C24.7723 5.11816 26.5328 6.20258 27.1947 7.5405L30.5747 14.3287C31.3915 15.9623 30.9408 18.2861 29.6029 19.5113L19.8432 28.3697C18.2236 29.8344 15.59 29.8344 13.9704 28.3697L4.21068 19.5113C2.85868 18.2861 2.42209 15.9623 3.23893 14.3287L6.61893 7.5405C7.26676 6.20258 9.02718 5.11816 10.52 5.11816Z" fill="white"/>
<path d="M11.2676 11.9653H22.5342C22.7525 11.9655 22.9404 12.1533 22.9404 12.3716C22.9402 12.5897 22.7523 12.7776 22.5342 12.7778H17.3066V20.8208C17.3066 21.0392 17.1188 21.2271 16.9004 21.2271C16.682 21.227 16.4941 21.0392 16.4941 20.8208V12.7778H11.2676C11.0493 12.7778 10.8616 12.5898 10.8613 12.3716C10.8613 12.1532 11.0491 11.9653 11.2676 11.9653Z" fill="white" stroke="#F3F7F8" stroke-width="1.3"/>
</svg>
