<svg width="33" height="34" viewBox="0 0 33 34" fill="none" xmlns="http://www.w3.org/2000/svg">
<path d="M18.3608 19.181L17.144 22.4672C17.1109 22.5582 17.1109 22.658 17.144 22.7491L19.2381 28.4031L21.6581 27.0267L18.7527 19.181C18.7379 19.141 18.7111 19.1065 18.6761 19.0821C18.6411 19.0577 18.5994 19.0447 18.5568 19.0447C18.5141 19.0447 18.4725 19.0577 18.4374 19.0821C18.4024 19.1065 18.3757 19.141 18.3608 19.181ZM20.8001 13.6548C20.7852 13.6148 20.7585 13.5803 20.7235 13.556C20.6885 13.5316 20.6468 13.5186 20.6042 13.5186C20.5615 13.5186 20.5198 13.5316 20.4848 13.556C20.4498 13.5803 20.4231 13.6148 20.4082 13.6548L19.1913 16.9411C19.1582 17.0321 19.1582 17.1319 19.1913 17.223L22.6206 26.4795L25.042 25.1031L20.8001 13.6548Z" fill="white" fill-opacity="0.48"/>
<path d="M16.4971 6.45793C16.5574 6.46018 16.6166 6.47567 16.6703 6.5033L25.9034 11.7531C25.9554 11.7828 25.9988 11.8255 26.0292 11.8771C26.0596 11.9288 26.0759 11.9874 26.0767 12.0473V22.5454C26.0767 22.6678 26.0107 22.7792 25.9034 22.8397L16.6703 28.0908C16.6174 28.1205 16.5577 28.1357 16.4971 28.1348C16.4372 28.1328 16.3786 28.1178 16.3252 28.0908L7.09205 22.8452C7.03984 22.8154 6.99637 22.7724 6.96597 22.7205C6.93557 22.6686 6.91931 22.6097 6.9188 22.5496V12.0501C6.9188 11.9277 6.9848 11.8163 7.09205 11.7544L16.3252 6.50468C16.3776 6.47485 16.4367 6.45876 16.4971 6.45793ZM16.4971 4.92481C16.1698 4.92481 15.8398 5.00731 15.5456 5.17643L6.31518 10.4248C6.02672 10.5871 5.78653 10.8231 5.61912 11.1087C5.45171 11.3942 5.36309 11.7191 5.3623 12.0501V22.5482C5.3623 23.2178 5.7253 23.8379 6.31518 24.1721L15.5469 29.4232C15.8377 29.5873 16.1659 29.6735 16.4998 29.6735C16.8337 29.6735 17.1619 29.5873 17.4527 29.4232L26.6844 24.1734C26.9729 24.0111 27.2131 23.7751 27.3805 23.4896C27.5479 23.204 27.6365 22.8792 27.6373 22.5482V12.0501C27.6365 11.7191 27.5479 11.3942 27.3805 11.1087C27.2131 10.8231 26.9729 10.5871 26.6844 10.4248L17.4499 5.17643C17.1595 5.01129 16.8311 4.92457 16.4971 4.92481Z" fill="#F2FBF9"/>
<path d="M10.3935 26.4916L11.2418 24.2009L12.9523 25.6006L11.3532 27.0389L10.3935 26.4916ZM15.7202 11.2979H13.38C13.2946 11.297 13.2111 11.3225 13.141 11.371C13.0708 11.4195 13.0174 11.4886 12.9881 11.5687L7.9707 25.1152L10.3935 26.4916L15.9168 11.5743C15.9279 11.543 15.9312 11.5095 15.9266 11.4766C15.922 11.4438 15.9095 11.4125 15.8902 11.3855C15.8709 11.3585 15.8453 11.3366 15.8157 11.3216C15.7862 11.3066 15.7534 11.2975 15.7202 11.2979Z" fill="#F2FBF9"/>
<path d="M19.8162 11.2979H17.4746C17.3895 11.2972 17.3063 11.3229 17.2364 11.3714C17.1665 11.4199 17.1133 11.4888 17.0841 11.5687L11.3545 27.0375L13.7759 28.4125L20.0115 11.5742C20.0225 11.5431 20.0259 11.5097 20.0213 11.477C20.0167 11.4442 20.0044 11.413 19.9852 11.3861C19.9661 11.3591 19.9407 11.3372 19.9113 11.322C19.8819 11.3069 19.8493 11.2977 19.8162 11.2979Z" fill="#F2FBF9"/>
</svg>
