<svg width="34" height="34" viewBox="0 0 34 34" fill="none" xmlns="http://www.w3.org/2000/svg">
<path opacity="0.4" d="M16.9007 30.9831C24.6787 30.9831 30.9841 24.6778 30.9841 16.8997C30.9841 9.12173 24.6787 2.81641 16.9007 2.81641C9.12271 2.81641 2.81738 9.12173 2.81738 16.8997C2.81738 24.6778 9.12271 30.9831 16.9007 30.9831Z" fill="white"/>
<path d="M23.584 9.6416C23.7386 9.48703 24.0036 9.48703 24.1582 9.6416C26.0926 11.576 27.1641 14.1578 27.1641 16.9004C27.1639 19.6428 26.0925 22.2239 24.1582 24.1582C24.0753 24.2411 23.9756 24.2773 23.8711 24.2773C23.7666 24.2773 23.6669 24.2411 23.584 24.1582C23.4295 24.0036 23.4294 23.7385 23.584 23.584C25.3677 21.8003 26.3514 19.4244 26.3516 16.9004C26.3516 14.3762 25.3678 11.9997 23.584 10.2158C23.4294 10.0612 23.4294 9.79618 23.584 9.6416Z" fill="white" stroke="#F3F7F8" stroke-width="1.3"/>
<path d="M9.92964 24.9275C9.66206 24.9275 9.39448 24.8289 9.18323 24.6176C7.12706 22.5615 5.98633 19.8152 5.98633 16.9C5.98633 13.9847 7.12706 11.2385 9.18323 9.18229C9.59165 8.77387 10.2676 8.77387 10.6761 9.18229C11.0845 9.59071 11.0845 10.2667 10.6761 10.6751C9.01423 12.337 8.09883 14.548 8.09883 16.9C8.09883 19.2519 9.01423 21.463 10.6761 23.1248C11.0845 23.5332 11.0845 24.2092 10.6761 24.6176C10.4648 24.8289 10.1972 24.9275 9.92964 24.9275Z" fill="#F3F7F8"/>
<path d="M19.2238 16.5906L17.9563 16.14V13.3514H17.9985C18.6182 13.3514 19.1393 13.9148 19.1393 14.5908C19.1393 15.1682 19.6181 15.647 20.1955 15.647C20.7729 15.647 21.2518 15.1682 21.2518 14.5908C21.2518 12.7459 19.8012 11.2389 17.9985 11.2389H17.9563V10.9854C17.9563 10.408 17.4774 9.9292 16.9 9.9292C16.3226 9.9292 15.8438 10.408 15.8438 10.9854V11.2389H15.5198C13.8862 11.2389 12.5483 12.6191 12.5483 14.295C12.5483 15.7738 13.2102 16.7174 14.5622 17.1962L15.8297 17.6469V20.4354H15.7874C15.1678 20.4354 14.6467 19.872 14.6467 19.196C14.6467 18.6186 14.1678 18.1398 13.5904 18.1398C13.013 18.1398 12.5342 18.6186 12.5342 19.196C12.5342 21.041 13.9848 22.5479 15.7874 22.5479H15.8297V22.8014C15.8297 23.3788 16.3085 23.8576 16.8859 23.8576C17.4633 23.8576 17.9422 23.3788 17.9422 22.8014V22.5479H18.2661C19.8998 22.5479 21.2377 21.1677 21.2377 19.4918C21.2377 18.013 20.5898 17.0695 19.2238 16.5906ZM15.2663 15.2105C14.8157 15.0555 14.6608 14.971 14.6608 14.3091C14.6608 13.788 15.041 13.3655 15.5198 13.3655H15.8438V15.4217L15.2663 15.2105ZM18.2802 20.4495H17.9563V18.3933L18.5337 18.5905C18.9844 18.7454 19.1393 18.8299 19.1393 19.4918C19.1252 20.0129 18.745 20.4495 18.2802 20.4495Z" fill="#F3F7F8"/>
</svg>
