<svg width="7" height="10" viewBox="0 0 7 10" fill="none" xmlns="http://www.w3.org/2000/svg">
<path d="M6.93454 4.94888C6.93456 5.08612 6.90328 5.22202 6.84249 5.34882C6.7817 5.47561 6.69258 5.59084 6.58023 5.6879L2.06441 9.58789C1.83762 9.78375 1.53004 9.8938 1.20931 9.8938C0.888582 9.8938 0.580998 9.78375 0.354209 9.58789C0.127421 9.39203 0 9.12639 0 8.8494C0 8.5724 0.127421 8.30676 0.354209 8.1109L3.13315 4.9469L0.354209 1.7829C0.127422 1.58704 -2.48335e-08 1.32139 0 1.0444C2.48335e-08 0.767412 0.127422 0.50174 0.354209 0.305878C0.580997 0.110015 0.888582 2.14471e-08 1.20931 0C1.53004 -2.1447e-08 1.83762 0.110015 2.06441 0.305878L6.58023 4.2059C6.69318 4.3034 6.78263 4.41925 6.84344 4.54678C6.90426 4.67431 6.93524 4.81096 6.93454 4.94888Z" fill="#C0C9EA"/>
</svg>
