<svg width="34" height="34" viewBox="0 0 34 34" fill="none" xmlns="http://www.w3.org/2000/svg">
<path opacity="0.4" d="M30.9831 12.675V23.1812C30.9831 26.4063 28.3636 29.0117 25.1385 29.0117H8.66099C5.43591 29.0117 2.81641 26.4063 2.81641 23.1812V12.675H30.9831Z" fill="white"/>
<path d="M8.66113 5.43896H25.1387C28.0066 5.43906 30.3328 7.75485 30.333 10.6187V12.0249H3.4668V10.6187C3.46703 7.75479 5.79313 5.43896 8.66113 5.43896Z" fill="white" stroke="#F3F7F8" stroke-width="1.3"/>
<path d="M11.2674 24.2939H8.45078C7.87336 24.2939 7.39453 23.8151 7.39453 23.2376C7.39453 22.6602 7.87336 22.1814 8.45078 22.1814H11.2674C11.8449 22.1814 12.3237 22.6602 12.3237 23.2376C12.3237 23.8151 11.8449 24.2939 11.2674 24.2939Z" fill="#F3F7F8"/>
<path d="M20.4201 24.2939H14.7867C14.2093 24.2939 13.7305 23.8151 13.7305 23.2376C13.7305 22.6602 14.2093 22.1814 14.7867 22.1814H20.4201C20.9975 22.1814 21.4763 22.6602 21.4763 23.2376C21.4763 23.8151 20.9975 24.2939 20.4201 24.2939Z" fill="#F3F7F8"/>
</svg>
