<svg width="34" height="34" viewBox="0 0 34 34" fill="none" xmlns="http://www.w3.org/2000/svg">
<path d="M21.8301 3.46729C26.527 3.46736 30.334 7.2743 30.334 11.9712C30.3339 16.668 26.5269 20.475 21.8301 20.4751C21.7812 20.4751 21.7312 20.4724 21.6807 20.4712C21.0811 16.149 17.6514 12.7188 13.3291 12.1196C13.3279 12.0693 13.3262 12.0198 13.3262 11.9712C13.3262 7.27426 17.1331 3.46729 21.8301 3.46729Z" fill="white" stroke="#F3F7F8" stroke-width="1.3"/>
<path opacity="0.4" d="M21.1247 21.8292C21.1247 26.8851 17.0265 30.9834 11.9706 30.9834C6.91466 30.9834 2.81641 26.8851 2.81641 21.8292C2.81641 16.7733 6.91466 12.675 11.9706 12.675C12.21 12.675 12.4635 12.6891 12.7029 12.7032C17.1673 13.0553 20.7445 16.6325 21.0966 21.0969C21.1107 21.3363 21.1247 21.5898 21.1247 21.8292Z" fill="#F3F7F8"/>
<path d="M10.7307 20.5898L11.9701 18.3083L13.2094 20.5898L15.4909 21.8292L13.2094 23.0685L11.9701 25.35L10.7307 23.0685L8.44922 21.8292L10.7307 20.5898Z" fill="#F3F7F8"/>
</svg>
