<svg width="34" height="34" viewBox="0 0 34 34" fill="none" xmlns="http://www.w3.org/2000/svg">
<path opacity="0.8" d="M18.1664 3.54904L18.1242 3.64763L14.04 13.1257H10.0263C9.0686 13.1257 8.16727 13.3088 7.32227 13.675L9.78685 7.78813L9.84318 7.66138L9.92768 7.43604C9.96993 7.33746 9.9981 7.25296 10.0403 7.18254C11.8853 2.91529 13.9696 1.94354 18.1664 3.54904Z" fill="white"/>
<path d="M18.5352 4.38696V4.38794L21.6475 5.69751L21.6504 5.69849C23.3454 6.4013 24.4366 7.09609 25.082 7.87134C25.1996 8.02848 25.2944 8.16021 25.3877 8.31177L25.3945 8.32251C25.4984 8.48405 25.5612 8.61881 25.5947 8.74438L25.6084 8.79419L25.6289 8.84106C25.6758 8.94651 25.6996 9.01562 25.7148 9.08423L25.7207 9.10864L25.7285 9.13306C25.9986 10.0161 25.8956 11.1369 25.3555 12.6379C24.8441 12.5316 24.3161 12.4758 23.7725 12.4758H15.0283L18.5156 4.38013C18.5221 4.38243 18.5286 4.38469 18.5352 4.38696Z" fill="white" stroke="#F3F7F8" stroke-width="1.3"/>
<path opacity="0.4" d="M30.645 19.9984V22.7447C30.645 23.0263 30.6309 23.308 30.6168 23.5756C30.3492 28.5047 27.603 30.9834 22.3921 30.9834H11.4071C11.055 30.9834 10.7311 30.9552 10.4072 30.913C5.92871 30.6172 3.53455 28.2231 3.22471 23.7446C3.18246 23.4066 3.1543 23.0827 3.1543 22.7447V19.9984C3.1543 17.1676 4.87246 14.7312 7.32296 13.675C8.16796 13.3088 9.0693 13.1257 10.027 13.1257H23.7723C24.4624 13.1257 25.1243 13.2243 25.758 13.4074C28.5747 14.2665 30.645 16.886 30.645 19.9984Z" fill="#F3F7F8"/>
<path opacity="0.6" d="M9.78755 7.78809L7.32296 13.6749C4.87246 14.7312 3.1543 17.1676 3.1543 19.9983V15.8719C3.1543 11.8723 5.99913 8.5345 9.78755 7.78809Z" fill="#F3F7F8"/>
<path opacity="0.6" d="M30.6467 15.8718V19.9982C30.6467 16.8858 28.5764 14.2663 25.7598 13.4072C26.4921 11.5905 26.7174 10.1399 26.3513 8.94283C26.3231 8.81608 26.2808 8.70341 26.2245 8.57666C28.8581 9.94274 30.6467 12.7172 30.6467 15.8718Z" fill="#6F8DA1"/>
</svg>
