<svg width="27" height="44" viewBox="0 0 27 44" fill="none" xmlns="http://www.w3.org/2000/svg">
<path d="M10.7716 26.6915H10.7643L6.1189 21.9985L5.38235 22.7426L0.102539 28.0839L5.48445 33.521L11.5081 27.4356L10.7716 26.6915Z" fill="#1929FF"/>
<path d="M26.9169 11.8614L21.535 6.42429L16.1531 0.987219V0.979852L15.1759 0L9.79395 5.43707L10.7639 6.42429H10.7711L16.1531 11.8614L11.5077 16.5617L16.1531 21.2547L16.8896 21.9988L21.535 17.2984L26.9169 11.8614Z" fill="#F2FBF9"/>
<path d="M16.1526 22.7426L11.5072 27.4356L16.1453 32.1286H16.1526L10.7707 37.5657L10.1289 38.214L15.5108 43.651L16.1526 43.0101L21.5345 37.5657H21.5418L26.9164 32.1286L16.8891 21.9985L16.1526 22.7426Z" fill="#1929FF"/>
<path d="M10.7711 15.8175V15.8101L5.38191 10.373L0 15.8101L5.38191 21.2472H5.3892L5.38191 21.2546L6.11846 21.9987L11.5077 16.5616L10.7711 15.8175Z" fill="#1929FF"/>
</svg>
