<svg width="34" height="34" viewBox="0 0 34 34" fill="none" xmlns="http://www.w3.org/2000/svg">
<path opacity="0.4" d="M22.8718 2.81641H10.9291C7.04212 2.81641 5.63379 4.22474 5.63379 8.18216V25.6173C5.63379 29.5747 7.04212 30.9831 10.9291 30.9831H22.8577C26.7588 30.9831 28.1671 29.5747 28.1671 25.6173V8.18216C28.1671 4.22474 26.7588 2.81641 22.8718 2.81641Z" fill="white"/>
<path d="M14.084 7.34033H19.7168C19.9352 7.34033 20.123 7.52815 20.123 7.74658C20.1228 7.96485 19.9351 8.15283 19.7168 8.15283H14.084C13.8657 8.15283 13.678 7.96485 13.6777 7.74658C13.6777 7.52815 13.8656 7.34033 14.084 7.34033Z" fill="white" stroke="#F3F7F8" stroke-width="1.3"/>
<path d="M16.8996 27.1811C18.2608 27.1811 19.3642 26.0777 19.3642 24.7165C19.3642 23.3554 18.2608 22.252 16.8996 22.252C15.5385 22.252 14.4351 23.3554 14.4351 24.7165C14.4351 26.0777 15.5385 27.1811 16.8996 27.1811Z" fill="#F3F7F8"/>
</svg>
