<svg width="34" height="34" viewBox="0 0 34 34" fill="none" xmlns="http://www.w3.org/2000/svg">
<path d="M30.9831 26.7584V30.9834H2.81641V26.7584C2.81641 25.9838 3.45016 25.3501 4.22474 25.3501H29.5747C30.3493 25.3501 30.9831 25.9838 30.9831 26.7584Z" fill="white" stroke="#F3F7F8" stroke-width="1.95" stroke-miterlimit="10" stroke-linecap="round" stroke-linejoin="round"/>
<path opacity="0.6" d="M11.2681 15.4919H5.63477V25.3503H11.2681V15.4919Z" fill="#F3F7F8"/>
<path opacity="0.4" d="M16.899 15.4919H11.2656V25.3503H16.899V15.4919Z" fill="#F3F7F8"/>
<path opacity="0.6" d="M22.5337 15.4919H16.9004V25.3503H22.5337V15.4919Z" fill="#F3F7F8"/>
<path opacity="0.4" d="M28.1685 15.4919H22.5352V25.3503H28.1685V15.4919Z" fill="#F3F7F8"/>
<path d="M32.3931 32.0395H1.40977C0.832349 32.0395 0.353516 31.5607 0.353516 30.9833C0.353516 30.4058 0.832349 29.927 1.40977 29.927H32.3931C32.9705 29.927 33.4493 30.4058 33.4493 30.9833C33.4493 31.5607 32.9705 32.0395 32.3931 32.0395Z" fill="#F3F7F8"/>
<path d="M30.0958 8.09807L17.4208 3.0281C17.1392 2.91544 16.6603 2.91544 16.3787 3.0281L3.70366 8.09807C3.21075 8.29524 2.81641 8.87264 2.81641 9.40781V14.0835C2.81641 14.8581 3.45016 15.4918 4.22474 15.4918H29.5747C30.3493 15.4918 30.9831 14.8581 30.9831 14.0835V9.40781C30.9831 8.87264 30.5887 8.29524 30.0958 8.09807ZM16.8997 11.971C15.7308 11.971 14.7872 11.0274 14.7872 9.85849C14.7872 8.68957 15.7308 7.74599 16.8997 7.74599C18.0687 7.74599 19.0122 8.68957 19.0122 9.85849C19.0122 11.0274 18.0687 11.971 16.8997 11.971Z" fill="#F3F7F8"/>
</svg>
